G04 Layer_Color=8388736*
%FSLAX25Y25*%
%MOIN*%
G70*
G01*
G75*
%ADD29C,0.00394*%
%ADD69R,0.05918X0.04737*%
%ADD70R,0.05721X0.04343*%
%ADD71R,0.04737X0.05918*%
%ADD72R,0.07099X0.05524*%
%ADD73R,0.12611X0.10642*%
%ADD74R,0.06115X0.04343*%
%ADD75R,0.06902X0.11824*%
%ADD76R,0.11824X0.06902*%
%ADD77C,0.07690*%
%ADD78C,0.07800*%
%ADD79C,0.07099*%
%ADD80R,0.07099X0.07099*%
%ADD81C,0.07887*%
%ADD82C,0.16548*%
%ADD83C,0.08674*%
%ADD84C,0.13595*%
%ADD85C,0.10249*%
%ADD86C,0.06312*%
%ADD87R,0.06312X0.06312*%
%ADD88C,0.14579*%
%ADD89C,0.10642*%
G04:AMPARAMS|DCode=90|XSize=185.16mil|YSize=96.58mil|CornerRadius=26.15mil|HoleSize=0mil|Usage=FLASHONLY|Rotation=270.000|XOffset=0mil|YOffset=0mil|HoleType=Round|Shape=RoundedRectangle|*
%AMROUNDEDRECTD90*
21,1,0.18516,0.04429,0,0,270.0*
21,1,0.13287,0.09658,0,0,270.0*
1,1,0.05229,-0.02215,-0.06644*
1,1,0.05229,-0.02215,0.06644*
1,1,0.05229,0.02215,0.06644*
1,1,0.05229,0.02215,-0.06644*
%
%ADD90ROUNDEDRECTD90*%
G04:AMPARAMS|DCode=91|XSize=185.16mil|YSize=96.58mil|CornerRadius=26.15mil|HoleSize=0mil|Usage=FLASHONLY|Rotation=0.000|XOffset=0mil|YOffset=0mil|HoleType=Round|Shape=RoundedRectangle|*
%AMROUNDEDRECTD91*
21,1,0.18516,0.04429,0,0,0.0*
21,1,0.13287,0.09658,0,0,0.0*
1,1,0.05229,0.06644,-0.02215*
1,1,0.05229,-0.06644,-0.02215*
1,1,0.05229,-0.06644,0.02215*
1,1,0.05229,0.06644,0.02215*
%
%ADD91ROUNDEDRECTD91*%
G04:AMPARAMS|DCode=92|XSize=204.85mil|YSize=106.42mil|CornerRadius=28.61mil|HoleSize=0mil|Usage=FLASHONLY|Rotation=90.000|XOffset=0mil|YOffset=0mil|HoleType=Round|Shape=RoundedRectangle|*
%AMROUNDEDRECTD92*
21,1,0.20485,0.04921,0,0,90.0*
21,1,0.14764,0.10642,0,0,90.0*
1,1,0.05721,0.02461,0.07382*
1,1,0.05721,0.02461,-0.07382*
1,1,0.05721,-0.02461,-0.07382*
1,1,0.05721,-0.02461,0.07382*
%
%ADD92ROUNDEDRECTD92*%
%ADD93C,0.08280*%
%ADD94R,0.08280X0.08280*%
%ADD95R,0.07099X0.07099*%
%ADD96C,0.34265*%
D29*
X0Y-177165D02*
X393701D01*
X0D02*
Y177165D01*
X393701Y-177165D02*
Y177165D01*
X0D02*
X393701D01*
D69*
X126969Y108071D02*
D03*
Y100591D02*
D03*
X88366Y11437D02*
D03*
Y18917D02*
D03*
X126969Y-69095D02*
D03*
Y-76575D02*
D03*
Y78543D02*
D03*
Y71063D02*
D03*
Y-98622D02*
D03*
Y-106102D02*
D03*
D70*
X120079Y87598D02*
D03*
Y95472D02*
D03*
Y58071D02*
D03*
Y65945D02*
D03*
Y-89567D02*
D03*
Y-81693D02*
D03*
Y-119095D02*
D03*
Y-111221D02*
D03*
D71*
X95846Y28917D02*
D03*
X88366D02*
D03*
X95846Y38917D02*
D03*
X88366D02*
D03*
X95846Y48917D02*
D03*
X88366D02*
D03*
D72*
X89173Y-41929D02*
D03*
Y-56496D02*
D03*
X117520D02*
D03*
Y-41929D02*
D03*
X89173Y-49213D02*
D03*
X117520D02*
D03*
X74410Y-111811D02*
D03*
Y-126378D02*
D03*
X102756D02*
D03*
Y-111811D02*
D03*
X74410Y-119095D02*
D03*
X102756D02*
D03*
X74410Y-79331D02*
D03*
Y-93898D02*
D03*
X102756D02*
D03*
Y-79331D02*
D03*
X74410Y-86614D02*
D03*
X102756D02*
D03*
D73*
X103347Y-59449D02*
D03*
Y-38976D02*
D03*
X88583Y-129331D02*
D03*
Y-108858D02*
D03*
Y-96850D02*
D03*
Y-76378D02*
D03*
D74*
X126969Y58169D02*
D03*
Y65847D02*
D03*
Y-118996D02*
D03*
Y-111319D02*
D03*
Y87697D02*
D03*
Y95374D02*
D03*
Y-89468D02*
D03*
Y-81791D02*
D03*
D75*
X124508Y120079D02*
D03*
X135335D02*
D03*
D76*
X141732Y-50689D02*
D03*
Y-61516D02*
D03*
D77*
X98425Y-24685D02*
D03*
Y-14685D02*
D03*
X324882Y-162402D02*
D03*
X314882D02*
D03*
D78*
X154528D02*
D03*
X54134Y-130905D02*
D03*
X167323Y-162402D02*
D03*
X131890Y50197D02*
D03*
X121063Y50197D02*
D03*
X142717Y50197D02*
D03*
X142717Y-127953D02*
D03*
X131890D02*
D03*
X121063D02*
D03*
D79*
X72008Y147638D02*
D03*
X62008D02*
D03*
X128347Y-150512D02*
D03*
Y-160512D02*
D03*
X118347Y-150512D02*
D03*
Y-160512D02*
D03*
X108346Y-150512D02*
D03*
Y-160512D02*
D03*
X98347Y-150512D02*
D03*
Y-160512D02*
D03*
X88346Y-150512D02*
D03*
Y-160512D02*
D03*
X78347Y-150512D02*
D03*
Y-160512D02*
D03*
X68347Y-150512D02*
D03*
Y-160512D02*
D03*
X58346Y-150512D02*
D03*
X379016Y111929D02*
D03*
X369016Y101929D02*
D03*
X379016D02*
D03*
X369016Y91929D02*
D03*
X379016D02*
D03*
X369016Y81929D02*
D03*
X379016D02*
D03*
X369016Y71929D02*
D03*
X379016D02*
D03*
X369016Y61929D02*
D03*
X379016D02*
D03*
X369016Y51929D02*
D03*
X379016D02*
D03*
X369016Y41929D02*
D03*
X379016D02*
D03*
X369016Y31929D02*
D03*
X379016D02*
D03*
X369016Y21929D02*
D03*
X379016D02*
D03*
X339646Y111929D02*
D03*
X329646Y101929D02*
D03*
X339646D02*
D03*
X329646Y91929D02*
D03*
X339646D02*
D03*
X329646Y81929D02*
D03*
X339646D02*
D03*
X329646Y71929D02*
D03*
X339646D02*
D03*
X329646Y61929D02*
D03*
X339646D02*
D03*
X329646Y51929D02*
D03*
X339646D02*
D03*
X329646Y41929D02*
D03*
X339646D02*
D03*
X329646Y31929D02*
D03*
X339646D02*
D03*
X329646Y21929D02*
D03*
X339646D02*
D03*
X369016Y-111929D02*
D03*
X379016Y-101929D02*
D03*
X369016D02*
D03*
X379016Y-91929D02*
D03*
X369016D02*
D03*
X379016Y-81929D02*
D03*
X369016D02*
D03*
X379016Y-71929D02*
D03*
X369016D02*
D03*
X379016Y-61929D02*
D03*
X369016D02*
D03*
X379016Y-51929D02*
D03*
X369016D02*
D03*
X379016Y-41929D02*
D03*
X369016D02*
D03*
X379016Y-31929D02*
D03*
X369016D02*
D03*
X379016Y-21929D02*
D03*
X369016D02*
D03*
X329646Y-111929D02*
D03*
X339646Y-101929D02*
D03*
X329646D02*
D03*
X339646Y-91929D02*
D03*
X329646D02*
D03*
X339646Y-81929D02*
D03*
X329646D02*
D03*
X339646Y-71929D02*
D03*
X329646D02*
D03*
X339646Y-61929D02*
D03*
X329646D02*
D03*
X339646Y-51929D02*
D03*
X329646D02*
D03*
X339646Y-41929D02*
D03*
X329646D02*
D03*
X339646Y-31929D02*
D03*
X329646D02*
D03*
X339646Y-21929D02*
D03*
X329646D02*
D03*
D80*
X52008Y147638D02*
D03*
X58346Y-160512D02*
D03*
D81*
X95472Y100394D02*
D03*
X75787D02*
D03*
X113189Y161417D02*
D03*
Y141732D02*
D03*
X132874Y9843D02*
D03*
X152559D02*
D03*
D82*
X294291Y-33465D02*
D03*
X253937Y-73819D02*
D03*
Y73819D02*
D03*
X294291Y33465D02*
D03*
X246063Y-111221D02*
D03*
X286417Y-151575D02*
D03*
Y151575D02*
D03*
X246063Y111221D02*
D03*
D83*
X17717Y-93347D02*
D03*
Y-113347D02*
D03*
X49528Y101378D02*
D03*
Y91378D02*
D03*
D84*
X42677Y13917D02*
D03*
Y58917D02*
D03*
Y-58917D02*
D03*
Y-13917D02*
D03*
D85*
X24685Y5905D02*
D03*
Y66929D02*
D03*
Y-66929D02*
D03*
Y-5905D02*
D03*
D86*
X77677Y18917D02*
D03*
X67677Y23917D02*
D03*
X77677Y28917D02*
D03*
X67677Y33917D02*
D03*
X77677Y38917D02*
D03*
X67677Y43917D02*
D03*
X77677Y48917D02*
D03*
Y-53917D02*
D03*
X67677Y-48917D02*
D03*
X77677Y-43917D02*
D03*
X67677Y-38917D02*
D03*
X77677Y-33917D02*
D03*
X67677Y-28917D02*
D03*
X77677Y-23917D02*
D03*
D87*
X67677Y53917D02*
D03*
Y-18917D02*
D03*
D88*
X29528Y81378D02*
D03*
Y121378D02*
D03*
D89*
X176082Y170176D02*
D03*
X185826Y160432D02*
D03*
X166339D02*
D03*
X176082Y150689D02*
D03*
X156595Y150689D02*
D03*
X166339Y140945D02*
D03*
X146851D02*
D03*
X156595Y131201D02*
D03*
X200787Y67913D02*
D03*
X214567D02*
D03*
X200787Y81693D02*
D03*
X214567D02*
D03*
X200787Y95472D02*
D03*
X214567D02*
D03*
X200787Y109252D02*
D03*
X214567D02*
D03*
X176082Y-6990D02*
D03*
X185826Y-16733D02*
D03*
X166339D02*
D03*
X176082Y-26477D02*
D03*
X156595Y-26477D02*
D03*
X166339Y-36220D02*
D03*
X146851D02*
D03*
X156595Y-45964D02*
D03*
X200787Y-109252D02*
D03*
X214567D02*
D03*
X200787Y-95472D02*
D03*
X214567D02*
D03*
X200787Y-81693D02*
D03*
X214567D02*
D03*
X200787Y-67913D02*
D03*
X214567D02*
D03*
D90*
X29528Y-101378D02*
D03*
D91*
X42323Y-120276D02*
D03*
D92*
X54134Y-101378D02*
D03*
D93*
X314724Y142717D02*
D03*
X329724D02*
D03*
D94*
X344724D02*
D03*
D95*
X369016Y111929D02*
D03*
X329646D02*
D03*
X379016Y-111929D02*
D03*
X339646D02*
D03*
D96*
X19685Y-157480D02*
D03*
Y157480D02*
D03*
X374016Y157480D02*
D03*
Y-157480D02*
D03*
M02*
