G04 Layer_Physical_Order=2*
G04 Layer_Color=16711680*
%FSLAX25Y25*%
%MOIN*%
G70*
G01*
G75*
%ADD10R,0.05118X0.03937*%
%ADD11R,0.04921X0.03543*%
%ADD12R,0.03937X0.05118*%
%ADD16R,0.06102X0.11024*%
%ADD17R,0.11024X0.06102*%
%ADD18C,0.02953*%
%ADD19C,0.01968*%
%ADD20C,0.01378*%
%ADD21C,0.03937*%
%ADD22C,0.09842*%
%ADD23C,0.00984*%
%ADD29C,0.00394*%
%ADD30C,0.06890*%
%ADD31C,0.07000*%
%ADD32C,0.06299*%
%ADD33R,0.06299X0.06299*%
%ADD34C,0.07087*%
%ADD35C,0.15748*%
%ADD36C,0.07874*%
%ADD37C,0.12795*%
%ADD38C,0.09449*%
%ADD39C,0.05512*%
%ADD40R,0.05512X0.05512*%
%ADD41C,0.13780*%
%ADD42C,0.09842*%
G04:AMPARAMS|DCode=43|XSize=177.16mil|YSize=88.58mil|CornerRadius=22.15mil|HoleSize=0mil|Usage=FLASHONLY|Rotation=270.000|XOffset=0mil|YOffset=0mil|HoleType=Round|Shape=RoundedRectangle|*
%AMROUNDEDRECTD43*
21,1,0.17716,0.04429,0,0,270.0*
21,1,0.13287,0.08858,0,0,270.0*
1,1,0.04429,-0.02215,-0.06644*
1,1,0.04429,-0.02215,0.06644*
1,1,0.04429,0.02215,0.06644*
1,1,0.04429,0.02215,-0.06644*
%
%ADD43ROUNDEDRECTD43*%
G04:AMPARAMS|DCode=44|XSize=177.16mil|YSize=88.58mil|CornerRadius=22.15mil|HoleSize=0mil|Usage=FLASHONLY|Rotation=0.000|XOffset=0mil|YOffset=0mil|HoleType=Round|Shape=RoundedRectangle|*
%AMROUNDEDRECTD44*
21,1,0.17716,0.04429,0,0,0.0*
21,1,0.13287,0.08858,0,0,0.0*
1,1,0.04429,0.06644,-0.02215*
1,1,0.04429,-0.06644,-0.02215*
1,1,0.04429,-0.06644,0.02215*
1,1,0.04429,0.06644,0.02215*
%
%ADD44ROUNDEDRECTD44*%
G04:AMPARAMS|DCode=45|XSize=196.85mil|YSize=98.42mil|CornerRadius=24.61mil|HoleSize=0mil|Usage=FLASHONLY|Rotation=90.000|XOffset=0mil|YOffset=0mil|HoleType=Round|Shape=RoundedRectangle|*
%AMROUNDEDRECTD45*
21,1,0.19685,0.04921,0,0,90.0*
21,1,0.14764,0.09842,0,0,90.0*
1,1,0.04921,0.02461,0.07382*
1,1,0.04921,0.02461,-0.07382*
1,1,0.04921,-0.02461,-0.07382*
1,1,0.04921,-0.02461,0.07382*
%
%ADD45ROUNDEDRECTD45*%
%ADD46C,0.07480*%
%ADD47R,0.07480X0.07480*%
%ADD48R,0.06299X0.06299*%
%ADD49C,0.33465*%
%ADD50C,0.03937*%
%ADD51C,0.04000*%
%ADD52R,0.04331X0.06890*%
%ADD53R,0.02520X0.07480*%
%ADD54R,0.07480X0.02520*%
%ADD55R,0.03543X0.04921*%
%ADD56R,0.10827X0.05118*%
%ADD57R,0.13386X0.05315*%
%ADD58R,0.05315X0.13386*%
%ADD59R,0.11811X0.03150*%
%ADD60R,0.25590X0.23622*%
%ADD61R,0.05512X0.07677*%
%ADD62R,0.09055X0.09055*%
G36*
X343504Y113189D02*
Y80709D01*
X339567Y76772D01*
X320866Y76772D01*
X315945Y81693D01*
X315945Y112205D01*
X321850Y118110D01*
X338583D01*
X343504Y113189D01*
D02*
G37*
G36*
X343504Y-20945D02*
X343504Y-53150D01*
X341535Y-55118D01*
X332742D01*
X332561Y-54618D01*
X333096Y-53921D01*
X333494Y-52960D01*
X333629Y-51929D01*
X333494Y-50898D01*
X333096Y-49937D01*
X332463Y-49112D01*
X331638Y-48479D01*
X330677Y-48081D01*
X329646Y-47945D01*
X328615Y-48081D01*
X327654Y-48479D01*
X326829Y-49112D01*
X326196Y-49937D01*
X325798Y-50898D01*
X325662Y-51929D01*
X325798Y-52960D01*
X326196Y-53921D01*
X326731Y-54618D01*
X326549Y-55118D01*
X315945D01*
Y-24606D01*
X324803Y-15748D01*
X338307D01*
X343504Y-20945D01*
D02*
G37*
G36*
X341417Y-78858D02*
X343504Y-80945D01*
Y-114905D01*
X338330Y-120079D01*
X323819Y-120079D01*
X315945Y-112205D01*
X315945Y-90551D01*
X325247Y-81249D01*
X325721Y-81482D01*
X325662Y-81929D01*
X325798Y-82960D01*
X326196Y-83921D01*
X326829Y-84746D01*
X327654Y-85379D01*
X328615Y-85777D01*
X329646Y-85913D01*
X330677Y-85777D01*
X331638Y-85379D01*
X332463Y-84746D01*
X333096Y-83921D01*
X333494Y-82960D01*
X333629Y-81929D01*
X333494Y-80898D01*
X333096Y-79937D01*
X332598Y-79289D01*
X332830Y-78791D01*
X341417Y-78858D01*
D02*
G37*
G36*
X343504Y53150D02*
Y20669D01*
X338583Y15748D01*
X322126D01*
X315945Y21929D01*
Y57087D01*
X339567D01*
X343504Y53150D01*
D02*
G37*
G36*
X36417Y157480D02*
X14764Y135827D01*
Y103965D01*
X14173D01*
X13861Y103903D01*
X13597Y103726D01*
X13420Y103462D01*
X13358Y103150D01*
Y89764D01*
X13420Y89452D01*
X13597Y89187D01*
X13861Y89010D01*
X14173Y88948D01*
X14764D01*
Y-89641D01*
X14338Y-89968D01*
X13579Y-90957D01*
X13101Y-92110D01*
X12939Y-93347D01*
X13101Y-94583D01*
X13579Y-95735D01*
X14338Y-96725D01*
X14764Y-97052D01*
Y-109641D01*
X14338Y-109968D01*
X13579Y-110958D01*
X13101Y-112110D01*
X12939Y-113347D01*
X13101Y-114583D01*
X13579Y-115735D01*
X14338Y-116725D01*
X14764Y-117052D01*
Y-135827D01*
X36417Y-157480D01*
X36417Y-176181D01*
X984Y-176181D01*
X984Y177165D01*
X36417Y177165D01*
Y157480D01*
D02*
G37*
G36*
X142717Y167323D02*
Y146653D01*
X139776Y143713D01*
X139238Y143642D01*
X138564Y143363D01*
X137986Y142919D01*
X135252Y140186D01*
X130413D01*
X130101Y140124D01*
X129837Y139947D01*
X129660Y139682D01*
X129598Y139370D01*
Y134252D01*
X129660Y133940D01*
X129837Y133675D01*
X130101Y133498D01*
X130413Y133436D01*
X136811D01*
Y128375D01*
X130413D01*
X130101Y128313D01*
X129837Y128136D01*
X129660Y127871D01*
X129598Y127559D01*
Y122441D01*
X129660Y122129D01*
X129837Y121864D01*
X130101Y121687D01*
X130413Y121625D01*
X135252D01*
X136811Y120067D01*
Y85524D01*
X135203Y83917D01*
X134917Y83489D01*
X134817Y82985D01*
Y80791D01*
X134017Y80397D01*
X133597Y80571D01*
X132874Y80666D01*
X132151Y80571D01*
X131478Y80292D01*
X131442Y80265D01*
X122821D01*
X117783Y85303D01*
X117030Y85806D01*
X116542Y85903D01*
X116385Y86184D01*
X116265Y86760D01*
X116592Y87186D01*
X116870Y87860D01*
X116966Y88583D01*
X117459Y89145D01*
X117717D01*
X118029Y89207D01*
X118293Y89384D01*
X118470Y89648D01*
X119263Y89534D01*
Y87874D01*
X119325Y87562D01*
X119502Y87297D01*
X119767Y87120D01*
X120079Y87058D01*
X130554D01*
X130900Y86608D01*
X131478Y86164D01*
X132151Y85885D01*
X132874Y85790D01*
X133597Y85885D01*
X134270Y86164D01*
X134848Y86608D01*
X135292Y87186D01*
X135571Y87860D01*
X135666Y88583D01*
X135571Y89305D01*
X135292Y89979D01*
X134848Y90557D01*
X134270Y91001D01*
X133597Y91280D01*
X133524Y91290D01*
Y92096D01*
X133597Y92106D01*
X134270Y92385D01*
X134848Y92829D01*
X135292Y93407D01*
X135571Y94080D01*
X135666Y94803D01*
X135571Y95526D01*
X135292Y96199D01*
X134848Y96778D01*
X134270Y97221D01*
X133597Y97500D01*
X132874Y97596D01*
X132151Y97500D01*
X131478Y97221D01*
X130900Y96778D01*
X130554Y96328D01*
X120079D01*
X119767Y96265D01*
X119502Y96089D01*
X119325Y95824D01*
X118532Y95938D01*
Y96063D01*
X118470Y96375D01*
X118293Y96640D01*
X118029Y96817D01*
X117717Y96879D01*
X106693D01*
X106381Y96817D01*
X106116Y96640D01*
X105939Y96375D01*
X105877Y96063D01*
Y89961D01*
X105939Y89648D01*
X106116Y89384D01*
X106381Y89207D01*
X106693Y89145D01*
X106951D01*
X107444Y88583D01*
X107539Y87860D01*
X107818Y87186D01*
X107382Y86441D01*
X107283Y86454D01*
X106561Y86359D01*
X105887Y86080D01*
X105309Y85636D01*
X104865Y85058D01*
X104586Y84384D01*
X104491Y83661D01*
X104586Y82939D01*
X104865Y82265D01*
X105309Y81687D01*
X105887Y81243D01*
X106561Y80964D01*
X107283Y80869D01*
X108006Y80964D01*
X108680Y81243D01*
X108807Y81340D01*
X115180D01*
X117339Y79182D01*
X117008Y78382D01*
X112894D01*
Y74311D01*
Y70240D01*
X117717D01*
X118107Y70318D01*
X118438Y70539D01*
X118601Y70783D01*
X118905Y70907D01*
X119499Y70996D01*
X119689Y70869D01*
X120079Y70791D01*
X125295D01*
Y73386D01*
X125984D01*
Y74075D01*
X132909D01*
Y74961D01*
X133009Y75099D01*
X133597Y75177D01*
X134017Y75351D01*
X134817Y74958D01*
Y68192D01*
X134017Y67799D01*
X133597Y67973D01*
X132874Y68068D01*
X132151Y67973D01*
X131478Y67694D01*
X130900Y67250D01*
X130554Y66800D01*
X120079D01*
X119767Y66738D01*
X119502Y66561D01*
X119325Y66296D01*
X118532Y66411D01*
Y66535D01*
X118470Y66848D01*
X118293Y67112D01*
X118029Y67289D01*
X117717Y67351D01*
X106693D01*
X106381Y67289D01*
X106116Y67112D01*
X105939Y66848D01*
X105877Y66535D01*
Y60433D01*
X105939Y60121D01*
X106116Y59856D01*
X106381Y59680D01*
X106693Y59617D01*
X106951D01*
X107444Y59055D01*
X107539Y58332D01*
X107818Y57659D01*
X108262Y57081D01*
X108840Y56637D01*
X109513Y56358D01*
X110236Y56263D01*
X110959Y56358D01*
X111632Y56637D01*
X111759Y56734D01*
X112650D01*
X112777Y56637D01*
X113451Y56358D01*
X114173Y56263D01*
X114896Y56358D01*
X115569Y56637D01*
X116148Y57081D01*
X116592Y57659D01*
X116870Y58332D01*
X116966Y59055D01*
X117459Y59617D01*
X117717D01*
X118029Y59680D01*
X118293Y59856D01*
X118470Y60121D01*
X119263Y60007D01*
Y58346D01*
X119325Y58034D01*
X119502Y57770D01*
X119767Y57593D01*
X120079Y57531D01*
X130554D01*
X130900Y57081D01*
X131478Y56637D01*
X132151Y56358D01*
X132874Y56263D01*
X133597Y56358D01*
X134017Y56532D01*
X134817Y56139D01*
Y54988D01*
X133863Y54034D01*
X133012Y54386D01*
X131890Y54534D01*
X130767Y54386D01*
X129721Y53953D01*
X128823Y53264D01*
X128134Y52365D01*
X127700Y51319D01*
X127553Y50197D01*
X127700Y49074D01*
X128053Y48223D01*
X127809Y47979D01*
X127523Y47551D01*
X127423Y47047D01*
Y45698D01*
X126772D01*
X126460Y45636D01*
X126195Y45459D01*
X126018Y45194D01*
X125956Y44882D01*
Y39764D01*
X126018Y39452D01*
X126195Y39187D01*
X126460Y39010D01*
X126772Y38948D01*
X130709D01*
X131021Y39010D01*
X131285Y39187D01*
X131462Y39452D01*
X131524Y39764D01*
Y44882D01*
X131480Y45107D01*
X131728Y45563D01*
X131891Y45768D01*
X132573Y45795D01*
X133090Y45157D01*
X133036Y44882D01*
Y43012D01*
X136024D01*
X139012D01*
Y44882D01*
X139008Y44900D01*
X139745Y45294D01*
X140720Y44320D01*
Y39764D01*
X140782Y39452D01*
X140959Y39187D01*
X141223Y39010D01*
X141535Y38948D01*
X145472D01*
X145785Y39010D01*
X145931Y39108D01*
X162402Y22638D01*
Y-11811D01*
X148225Y-25987D01*
X147488Y-25593D01*
X147488Y-25591D01*
X147488Y-25591D01*
Y-18701D01*
X147350Y-18005D01*
X146956Y-17414D01*
X146956Y-17414D01*
X145440Y-15899D01*
X144850Y-15504D01*
X144153Y-15366D01*
X144153Y-15366D01*
X143285D01*
X143274Y-15348D01*
X143009Y-15172D01*
X142697Y-15110D01*
X135216D01*
X134904Y-15172D01*
X134787Y-15250D01*
X133989Y-15079D01*
X134317Y-14190D01*
X134640Y-14022D01*
X134904Y-14198D01*
X135216Y-14261D01*
X142697D01*
X143009Y-14198D01*
X143274Y-14022D01*
X143450Y-13757D01*
X143512Y-13445D01*
Y-10925D01*
X143450Y-10613D01*
X143274Y-10348D01*
X143009Y-10172D01*
X142697Y-10109D01*
X135216D01*
X134904Y-10172D01*
X134640Y-10348D01*
X133949Y-9989D01*
X133660Y-9767D01*
X132986Y-9488D01*
X132264Y-9393D01*
X131541Y-9488D01*
X131527Y-9493D01*
X130710Y-9033D01*
X130708Y-9020D01*
X131359Y-8296D01*
X133661D01*
X133974Y-8234D01*
X134238Y-8057D01*
X134415Y-7792D01*
X134477Y-7480D01*
Y-2362D01*
X134415Y-2050D01*
X134238Y-1785D01*
X133974Y-1609D01*
X133661Y-1546D01*
X129724D01*
X129412Y-1609D01*
X129148Y-1785D01*
X128971Y-2050D01*
X128909Y-2362D01*
Y-5133D01*
X128001Y-6041D01*
X127201Y-5709D01*
Y-5610D01*
X124902D01*
Y-8500D01*
X126181D01*
X126692Y-9214D01*
Y-13739D01*
X126692Y-13739D01*
X126830Y-14436D01*
X127225Y-15026D01*
X129616Y-17417D01*
X121971Y-25063D01*
X121266Y-25348D01*
X121001Y-25172D01*
X120689Y-25109D01*
X113209D01*
X112991Y-25153D01*
X112957Y-25141D01*
X112821Y-24685D01*
X112957Y-24230D01*
X112991Y-24217D01*
X113209Y-24261D01*
X120689D01*
X121001Y-24198D01*
X121266Y-24022D01*
X121443Y-23757D01*
X121505Y-23445D01*
Y-20925D01*
X121443Y-20613D01*
X121266Y-20348D01*
X121055Y-20207D01*
X121024Y-19943D01*
X121057Y-19605D01*
X121097Y-19375D01*
X121410Y-19166D01*
X121631Y-18835D01*
X121709Y-18445D01*
Y-17874D01*
X116949D01*
Y-16496D01*
X121709D01*
Y-15925D01*
X121631Y-15535D01*
X121410Y-15204D01*
X121097Y-14995D01*
X121057Y-14765D01*
X121024Y-14427D01*
X121055Y-14163D01*
X121266Y-14022D01*
X121443Y-13757D01*
X121505Y-13445D01*
Y-10925D01*
X121443Y-10613D01*
X121266Y-10348D01*
X121001Y-10172D01*
X120689Y-10109D01*
X113209D01*
X112897Y-10172D01*
X112632Y-10348D01*
X112620Y-10366D01*
X111831D01*
X111831Y-10366D01*
X111135Y-10504D01*
X110544Y-10899D01*
X108950Y-12493D01*
X108555Y-13084D01*
X108417Y-13780D01*
X108417Y-13780D01*
Y-14639D01*
X108262Y-14758D01*
X107818Y-15336D01*
X107539Y-16010D01*
X107444Y-16732D01*
X107539Y-17455D01*
X107818Y-18128D01*
X108262Y-18707D01*
X108635Y-18994D01*
X108703Y-19227D01*
X108708Y-19670D01*
X108641Y-19934D01*
X108281Y-20211D01*
X107838Y-20789D01*
X107559Y-21462D01*
X107464Y-22185D01*
X107559Y-22908D01*
X107838Y-23581D01*
X108281Y-24160D01*
X108309Y-24181D01*
Y-25189D01*
X108281Y-25210D01*
X107838Y-25789D01*
X107559Y-26462D01*
X107464Y-27185D01*
X107559Y-27908D01*
X107838Y-28581D01*
X108281Y-29160D01*
X108860Y-29603D01*
X109533Y-29882D01*
X110256Y-29977D01*
X110979Y-29882D01*
X111652Y-29603D01*
X111942Y-29381D01*
X112632Y-29022D01*
X112897Y-29199D01*
X113209Y-29261D01*
X120689D01*
X121001Y-29199D01*
X121266Y-29022D01*
X121277Y-29004D01*
X122421D01*
X122421Y-29004D01*
X123117Y-28866D01*
X123708Y-28471D01*
X133175Y-19004D01*
X134628D01*
X134640Y-19022D01*
X134904Y-19198D01*
X135216Y-19261D01*
X142608D01*
X142746Y-19301D01*
X143217Y-19690D01*
X142697Y-20109D01*
X135216D01*
X134904Y-20172D01*
X134640Y-20348D01*
X134628Y-20366D01*
X134311D01*
X134311Y-20366D01*
X133615Y-20504D01*
X133025Y-20899D01*
X133025Y-20899D01*
X124574Y-29349D01*
X124180Y-29939D01*
X124041Y-30635D01*
X124041Y-30635D01*
Y-67373D01*
X120079D01*
X119767Y-67435D01*
X119502Y-67612D01*
X119325Y-67877D01*
X119263Y-68189D01*
Y-69350D01*
X118463Y-69593D01*
X118438Y-69555D01*
X118107Y-69334D01*
X117717Y-69256D01*
X112894D01*
Y-73327D01*
Y-77398D01*
X117717D01*
X118107Y-77320D01*
X118438Y-77099D01*
X118601Y-76855D01*
X118905Y-76731D01*
X119499Y-76642D01*
X119689Y-76769D01*
X120079Y-76846D01*
X125295D01*
Y-74252D01*
X125984D01*
Y-73563D01*
X132909D01*
Y-72677D01*
X133009Y-72538D01*
X133597Y-72461D01*
X134017Y-72287D01*
X134817Y-72680D01*
Y-79446D01*
X134017Y-79839D01*
X133597Y-79665D01*
X132874Y-79570D01*
X132151Y-79665D01*
X131478Y-79944D01*
X130900Y-80388D01*
X130554Y-80838D01*
X120079D01*
X119767Y-80900D01*
X119502Y-81077D01*
X119325Y-81341D01*
X118532Y-81227D01*
Y-81102D01*
X118470Y-80790D01*
X118293Y-80526D01*
X118029Y-80349D01*
X117717Y-80287D01*
X106693D01*
X106381Y-80349D01*
X106116Y-80526D01*
X105939Y-80790D01*
X105877Y-81102D01*
Y-87205D01*
X105939Y-87517D01*
X106116Y-87782D01*
X106381Y-87958D01*
X106693Y-88020D01*
X106951D01*
X107444Y-88583D01*
X107539Y-89305D01*
X107818Y-89979D01*
X108262Y-90557D01*
X108840Y-91001D01*
X109513Y-91280D01*
X110236Y-91375D01*
X110959Y-91280D01*
X111632Y-91001D01*
X111759Y-90904D01*
X112650D01*
X112777Y-91001D01*
X113451Y-91280D01*
X114173Y-91375D01*
X114896Y-91280D01*
X115569Y-91001D01*
X116148Y-90557D01*
X116592Y-89979D01*
X116870Y-89305D01*
X116966Y-88583D01*
X117459Y-88020D01*
X117717D01*
X118029Y-87958D01*
X118293Y-87782D01*
X118470Y-87517D01*
X119263Y-87631D01*
Y-89291D01*
X119325Y-89604D01*
X119502Y-89868D01*
X119767Y-90045D01*
X120079Y-90107D01*
X130554D01*
X130900Y-90557D01*
X131478Y-91001D01*
X131898Y-91175D01*
X132186Y-92019D01*
X131942Y-92262D01*
X131657Y-92690D01*
X131557Y-93194D01*
Y-96840D01*
X131478Y-96873D01*
X131442Y-96901D01*
X120079D01*
X119767Y-96963D01*
X119502Y-97140D01*
X119325Y-97404D01*
X119263Y-97716D01*
Y-98878D01*
X118463Y-99120D01*
X118438Y-99082D01*
X118107Y-98861D01*
X117717Y-98784D01*
X112894D01*
Y-102854D01*
Y-106925D01*
X117717D01*
X118107Y-106848D01*
X118438Y-106626D01*
X118601Y-106382D01*
X118905Y-106259D01*
X119499Y-106170D01*
X119689Y-106296D01*
X120079Y-106374D01*
X125295D01*
Y-103779D01*
X125984D01*
Y-103091D01*
X132909D01*
Y-102205D01*
X133009Y-102066D01*
X133597Y-101989D01*
X134017Y-101814D01*
X134817Y-102208D01*
Y-108973D01*
X134017Y-109367D01*
X133597Y-109193D01*
X132874Y-109097D01*
X132151Y-109193D01*
X131478Y-109471D01*
X130900Y-109915D01*
X130554Y-110365D01*
X120079D01*
X119767Y-110427D01*
X119502Y-110604D01*
X119325Y-110869D01*
X118532Y-110755D01*
Y-110630D01*
X118470Y-110318D01*
X118293Y-110053D01*
X118029Y-109876D01*
X117717Y-109814D01*
X106693D01*
X106381Y-109876D01*
X106116Y-110053D01*
X105939Y-110318D01*
X105877Y-110630D01*
Y-116732D01*
X105939Y-117044D01*
X106116Y-117309D01*
X106381Y-117486D01*
X106693Y-117548D01*
X106951D01*
X107444Y-118110D01*
X107539Y-118833D01*
X107818Y-119506D01*
X108262Y-120085D01*
X108840Y-120528D01*
X109513Y-120808D01*
X110236Y-120903D01*
X110959Y-120808D01*
X111632Y-120528D01*
X111759Y-120431D01*
X112650D01*
X112777Y-120528D01*
X113451Y-120808D01*
X114173Y-120903D01*
X114896Y-120808D01*
X115569Y-120528D01*
X116148Y-120085D01*
X116592Y-119506D01*
X116870Y-118833D01*
X116966Y-118110D01*
X117459Y-117548D01*
X117717D01*
X118029Y-117486D01*
X118293Y-117309D01*
X118470Y-117044D01*
X119263Y-117159D01*
Y-118819D01*
X119325Y-119131D01*
X119502Y-119396D01*
X119767Y-119572D01*
X120079Y-119634D01*
X130554D01*
X130900Y-120085D01*
X131478Y-120528D01*
X132151Y-120808D01*
X132874Y-120903D01*
X133597Y-120808D01*
X134017Y-120633D01*
X134817Y-121027D01*
Y-122178D01*
X133167Y-123828D01*
X133012Y-123763D01*
X131890Y-123616D01*
X130767Y-123763D01*
X129721Y-124197D01*
X128823Y-124886D01*
X128134Y-125784D01*
X127700Y-126830D01*
X127553Y-127953D01*
X127700Y-129075D01*
X127770Y-129244D01*
X127523Y-129614D01*
X127423Y-130118D01*
Y-132452D01*
X126772D01*
X126460Y-132514D01*
X126195Y-132691D01*
X126018Y-132956D01*
X125956Y-133268D01*
Y-138386D01*
X126018Y-138698D01*
X126195Y-138963D01*
X126460Y-139139D01*
X126772Y-139201D01*
X130709D01*
X131021Y-139139D01*
X131285Y-138963D01*
X131462Y-138698D01*
X131524Y-138386D01*
Y-133268D01*
X131480Y-133043D01*
X131728Y-132587D01*
X131891Y-132381D01*
X132573Y-132355D01*
X133090Y-132993D01*
X133036Y-133268D01*
Y-135138D01*
X135335D01*
Y-132248D01*
X134670D01*
X134398Y-131448D01*
X134957Y-131020D01*
X135646Y-130121D01*
X136079Y-129075D01*
X136227Y-127953D01*
X136079Y-126830D01*
X135646Y-125784D01*
X135338Y-125383D01*
X137066Y-123655D01*
X137352Y-123228D01*
X137434Y-122817D01*
X137889Y-122543D01*
X138173Y-122425D01*
X139715Y-123966D01*
X139670Y-124871D01*
X139650Y-124886D01*
X138961Y-125784D01*
X138527Y-126830D01*
X138379Y-127953D01*
X138527Y-129075D01*
X138961Y-130121D01*
X139650Y-131020D01*
X140548Y-131709D01*
X140897Y-131853D01*
Y-132783D01*
X140782Y-132956D01*
X140720Y-133268D01*
Y-138386D01*
X140782Y-138698D01*
X140959Y-138963D01*
X141223Y-139139D01*
X141535Y-139201D01*
X145472D01*
X145785Y-139139D01*
X146049Y-138963D01*
X146226Y-138698D01*
X146288Y-138386D01*
Y-133268D01*
X146226Y-132956D01*
X146049Y-132691D01*
X145785Y-132514D01*
X145472Y-132452D01*
X145181D01*
X144962Y-131901D01*
X144959Y-131652D01*
X145783Y-131020D01*
X146473Y-130121D01*
X146906Y-129075D01*
X146990Y-128436D01*
X147835Y-128150D01*
X162402Y-142717D01*
Y-152559D01*
X159449Y-155512D01*
X116583Y-155512D01*
X116032Y-154892D01*
X116075Y-154661D01*
X116949Y-154208D01*
X117316Y-154360D01*
X118347Y-154496D01*
X119378Y-154360D01*
X120339Y-153962D01*
X121164Y-153329D01*
X121797Y-152504D01*
X122195Y-151543D01*
X122330Y-150512D01*
X122195Y-149481D01*
X121797Y-148520D01*
X121164Y-147695D01*
X120339Y-147062D01*
X119378Y-146664D01*
X118347Y-146528D01*
X117316Y-146664D01*
X116355Y-147062D01*
X116253Y-147140D01*
X115388Y-146796D01*
X114988Y-146197D01*
X111927Y-143136D01*
X111906Y-142978D01*
X111627Y-142304D01*
X111183Y-141726D01*
X110605Y-141282D01*
X109931Y-141003D01*
X109209Y-140908D01*
X108486Y-141003D01*
X107812Y-141282D01*
X107234Y-141726D01*
X106790Y-142304D01*
X106511Y-142978D01*
X106416Y-143701D01*
X106434Y-143836D01*
X106511Y-144423D01*
X106790Y-145097D01*
X107234Y-145675D01*
X107812Y-146119D01*
X108486Y-146398D01*
X108644Y-146419D01*
X111527Y-149301D01*
Y-151811D01*
X111202Y-152297D01*
X111026Y-153185D01*
Y-154550D01*
X108966Y-156610D01*
X108346Y-156528D01*
X107315Y-156664D01*
X106467Y-157015D01*
X105667Y-156704D01*
Y-155512D01*
X105491Y-154624D01*
X104988Y-153871D01*
X102249Y-151131D01*
X102330Y-150512D01*
X102194Y-149481D01*
X101796Y-148520D01*
X101163Y-147695D01*
X100338Y-147062D01*
X99378Y-146664D01*
X98347Y-146528D01*
X97315Y-146664D01*
X96355Y-147062D01*
X95530Y-147695D01*
X94897Y-148520D01*
X94498Y-149481D01*
X94363Y-150512D01*
X94498Y-151543D01*
X94897Y-152504D01*
X95530Y-153329D01*
X96355Y-153962D01*
X97315Y-154360D01*
X98347Y-154496D01*
X98966Y-154414D01*
X100574Y-156021D01*
X100521Y-156272D01*
X99602Y-156757D01*
X99378Y-156664D01*
X98347Y-156528D01*
X97315Y-156664D01*
X96355Y-157062D01*
X95530Y-157695D01*
X94897Y-158520D01*
X94498Y-159481D01*
X94363Y-160512D01*
X94367Y-160542D01*
X84473Y-170436D01*
X37233D01*
X37233Y-157815D01*
X37255Y-157480D01*
X37105Y-155187D01*
X36656Y-152933D01*
X35917Y-150757D01*
X34901Y-148695D01*
X33624Y-146784D01*
X32109Y-145056D01*
X30381Y-143541D01*
X28470Y-142264D01*
X26409Y-141248D01*
X24232Y-140509D01*
X21978Y-140061D01*
X20023Y-139933D01*
X16732Y-136642D01*
Y-98601D01*
X17334Y-98074D01*
X17717Y-98124D01*
X18953Y-97961D01*
X20106Y-97484D01*
X21095Y-96725D01*
X21854Y-95735D01*
X22332Y-94583D01*
X22494Y-93347D01*
X22332Y-92110D01*
X21854Y-90957D01*
X21095Y-89968D01*
X20106Y-89209D01*
X18953Y-88731D01*
X17717Y-88569D01*
X17334Y-88619D01*
X16732Y-88091D01*
Y-69722D01*
X19864D01*
X20745Y-70869D01*
X21899Y-71755D01*
X23243Y-72312D01*
X24685Y-72501D01*
X26127Y-72312D01*
X27471Y-71755D01*
X28625Y-70869D01*
X29511Y-69715D01*
X30067Y-68371D01*
X30257Y-66929D01*
X30067Y-65487D01*
X29511Y-64143D01*
X28625Y-62989D01*
X27471Y-62104D01*
X26127Y-61547D01*
X24685Y-61357D01*
X23243Y-61547D01*
X21899Y-62104D01*
X20745Y-62989D01*
X19864Y-64137D01*
X16732D01*
Y-8698D01*
X19865D01*
X20745Y-9845D01*
X21899Y-10731D01*
X23243Y-11288D01*
X24685Y-11477D01*
X26127Y-11288D01*
X27471Y-10731D01*
X28625Y-9845D01*
X29511Y-8691D01*
X30067Y-7348D01*
X30257Y-5905D01*
X30067Y-4463D01*
X29511Y-3119D01*
X28625Y-1965D01*
X27471Y-1080D01*
X26127Y-523D01*
X25218Y-404D01*
Y404D01*
X26127Y523D01*
X27471Y1080D01*
X28625Y1965D01*
X29511Y3119D01*
X30067Y4463D01*
X30257Y5905D01*
X30067Y7348D01*
X29511Y8691D01*
X28625Y9845D01*
X27471Y10731D01*
X26127Y11287D01*
X24685Y11477D01*
X23243Y11287D01*
X21899Y10731D01*
X20745Y9845D01*
X19864Y8698D01*
X16732D01*
Y59055D01*
X34652D01*
X34766Y59035D01*
X35437Y58837D01*
X35560Y57583D01*
X35584Y57506D01*
X35592Y57426D01*
X35957Y56220D01*
X35995Y56150D01*
X36018Y56073D01*
X36613Y54961D01*
X36663Y54899D01*
X36663Y54899D01*
X36663Y54899D01*
X36701Y54828D01*
X37501Y53854D01*
X37563Y53803D01*
X37563Y53803D01*
X37563Y53803D01*
X37614Y53741D01*
X38588Y52942D01*
X38659Y52904D01*
X38659Y52904D01*
X38721Y52853D01*
X39832Y52259D01*
X39909Y52235D01*
X39980Y52197D01*
X41186Y51832D01*
X41266Y51824D01*
X41343Y51801D01*
X42597Y51677D01*
X42677Y51685D01*
X42757Y51677D01*
X44011Y51801D01*
X44088Y51824D01*
X44168Y51832D01*
X45374Y52197D01*
X45445Y52235D01*
X45522Y52259D01*
X46633Y52853D01*
X46695Y52904D01*
X46695Y52904D01*
X46695Y52904D01*
X46766Y52942D01*
X47740Y53741D01*
X47791Y53803D01*
X47791Y53803D01*
X47791Y53803D01*
X47853Y53854D01*
X48653Y54828D01*
X48691Y54899D01*
X48691Y54899D01*
X48742Y54961D01*
X49336Y56073D01*
X49359Y56150D01*
X49397Y56220D01*
X49763Y57426D01*
X49771Y57506D01*
X49794Y57583D01*
X49918Y58837D01*
X50588Y59035D01*
X50702Y59055D01*
X62008D01*
X67913Y59055D01*
X75164Y51805D01*
X75141Y51453D01*
X74571Y50711D01*
X74213Y49846D01*
X74090Y48917D01*
X74213Y47989D01*
X74571Y47124D01*
X75141Y46381D01*
X75884Y45811D01*
X76749Y45453D01*
X77583Y45343D01*
Y42492D01*
X76749Y42382D01*
X75884Y42023D01*
X75141Y41453D01*
X74571Y40711D01*
X74213Y39846D01*
X74090Y38917D01*
X74213Y37989D01*
X74571Y37124D01*
X75141Y36381D01*
X75884Y35811D01*
X76749Y35453D01*
X77583Y35343D01*
Y32492D01*
X76749Y32382D01*
X75884Y32023D01*
X75141Y31453D01*
X74571Y30711D01*
X74213Y29846D01*
X74090Y28917D01*
X74213Y27989D01*
X74571Y27124D01*
X75141Y26381D01*
X75884Y25811D01*
X76749Y25453D01*
X77583Y25343D01*
Y22492D01*
X76749Y22382D01*
X75884Y22023D01*
X75141Y21453D01*
X74571Y20711D01*
X74213Y19846D01*
X74090Y18917D01*
X74213Y17989D01*
X74571Y17124D01*
X75141Y16381D01*
X75884Y15811D01*
X76749Y15453D01*
X77583Y15343D01*
Y6556D01*
X67718D01*
X66743Y7531D01*
X66769Y7725D01*
X66674Y8447D01*
X66395Y9121D01*
X65951Y9699D01*
X65373Y10143D01*
X64699Y10422D01*
X63976Y10517D01*
X63254Y10422D01*
X62580Y10143D01*
X62002Y9699D01*
X61558Y9121D01*
X61279Y8447D01*
X61184Y7725D01*
X61279Y7002D01*
X61558Y6329D01*
X62002Y5750D01*
X62580Y5306D01*
X62645Y5280D01*
Y4414D01*
X62580Y4387D01*
X62002Y3943D01*
X61558Y3365D01*
X61279Y2691D01*
X61184Y1969D01*
X61279Y1246D01*
X61558Y572D01*
X62002Y-6D01*
X62580Y-450D01*
X63254Y-729D01*
X63976Y-824D01*
X64699Y-729D01*
X65373Y-450D01*
X65951Y-6D01*
X66070Y149D01*
X76040D01*
X77583Y-1394D01*
Y-30343D01*
X76749Y-30453D01*
X75884Y-30811D01*
X75141Y-31381D01*
X74571Y-32124D01*
X74213Y-32989D01*
X74090Y-33917D01*
X74213Y-34846D01*
X74571Y-35711D01*
X75141Y-36453D01*
X75884Y-37023D01*
X76749Y-37382D01*
X77583Y-37492D01*
Y-40343D01*
X76749Y-40453D01*
X75884Y-40811D01*
X75141Y-41381D01*
X74571Y-42124D01*
X74427Y-42472D01*
X70200D01*
X69928Y-41672D01*
X70213Y-41453D01*
X70783Y-40711D01*
X71141Y-39846D01*
X71264Y-38917D01*
X71141Y-37989D01*
X70783Y-37124D01*
X70213Y-36381D01*
X69470Y-35811D01*
X68605Y-35453D01*
X67677Y-35331D01*
X66749Y-35453D01*
X65884Y-35811D01*
X65141Y-36381D01*
X64571Y-37124D01*
X64213Y-37989D01*
X64091Y-38917D01*
X64213Y-39846D01*
X64571Y-40711D01*
X65141Y-41453D01*
X65426Y-41672D01*
X65154Y-42472D01*
X62430D01*
Y-39764D01*
X62368Y-39452D01*
X62191Y-39187D01*
X61926Y-39010D01*
X61614Y-38948D01*
X52559D01*
X52247Y-39010D01*
X51982Y-39187D01*
X51806Y-39452D01*
X51743Y-39764D01*
Y-48819D01*
X51806Y-49131D01*
X51982Y-49396D01*
X52247Y-49573D01*
X52559Y-49635D01*
X61614D01*
X61926Y-49573D01*
X62191Y-49396D01*
X62368Y-49131D01*
X62430Y-48819D01*
Y-46111D01*
X64340D01*
X64735Y-46911D01*
X64571Y-47124D01*
X64213Y-47989D01*
X64091Y-48917D01*
X64213Y-49846D01*
X64571Y-50711D01*
X65141Y-51453D01*
X65858Y-52004D01*
Y-53712D01*
X63149D01*
X62837Y-53774D01*
X62573Y-53951D01*
X62396Y-54215D01*
X62334Y-54528D01*
Y-63583D01*
X62396Y-63895D01*
X62573Y-64160D01*
X62837Y-64336D01*
X63149Y-64398D01*
X72205D01*
X72517Y-64336D01*
X72781Y-64160D01*
X72958Y-63895D01*
X73020Y-63583D01*
Y-54528D01*
X72958Y-54215D01*
X72781Y-53951D01*
X72517Y-53774D01*
X72205Y-53712D01*
X69496D01*
Y-52004D01*
X70213Y-51453D01*
X70783Y-50711D01*
X71141Y-49846D01*
X71264Y-48917D01*
X71141Y-47989D01*
X70783Y-47124D01*
X70619Y-46911D01*
X71014Y-46111D01*
X74878D01*
X75141Y-46453D01*
X75884Y-47023D01*
X76749Y-47382D01*
X77583Y-47492D01*
Y-50343D01*
X76749Y-50453D01*
X75884Y-50811D01*
X75141Y-51381D01*
X74571Y-52124D01*
X74213Y-52989D01*
X74090Y-53917D01*
X74213Y-54846D01*
X74571Y-55711D01*
X75141Y-56453D01*
X75858Y-57003D01*
Y-66018D01*
X70448Y-71428D01*
X63149D01*
X62837Y-71491D01*
X62573Y-71667D01*
X62396Y-71932D01*
X62334Y-72244D01*
Y-81299D01*
X62396Y-81611D01*
X62573Y-81876D01*
X62837Y-82053D01*
X63149Y-82115D01*
X72205D01*
X72517Y-82053D01*
X72781Y-81876D01*
X72958Y-81611D01*
X73020Y-81299D01*
Y-74001D01*
X76844Y-70177D01*
X77583Y-70483D01*
Y-100946D01*
X74603Y-103926D01*
X74410Y-103901D01*
X73687Y-103996D01*
X73013Y-104275D01*
X72435Y-104718D01*
X71991Y-105297D01*
X71712Y-105970D01*
X71617Y-106693D01*
X71712Y-107416D01*
X71991Y-108089D01*
X72435Y-108667D01*
X73013Y-109111D01*
X73687Y-109390D01*
X74410Y-109485D01*
X75132Y-109390D01*
X75806Y-109111D01*
X76384Y-108667D01*
X76783Y-108147D01*
X76871Y-108144D01*
X77583Y-108624D01*
Y-114985D01*
X80674Y-118075D01*
Y-122462D01*
X74603Y-128532D01*
X74410Y-128507D01*
X73687Y-128602D01*
X73013Y-128881D01*
X72435Y-129325D01*
X71991Y-129903D01*
X71712Y-130577D01*
X71617Y-131299D01*
X71712Y-132022D01*
X71991Y-132695D01*
X72435Y-133274D01*
X73013Y-133718D01*
X73687Y-133996D01*
X74410Y-134092D01*
X75132Y-133996D01*
X75806Y-133718D01*
X76384Y-133274D01*
X76828Y-132695D01*
X77107Y-132022D01*
X77202Y-131299D01*
X77176Y-131105D01*
X83779Y-124502D01*
X83779Y-124502D01*
X84174Y-123912D01*
X84312Y-123216D01*
X84312Y-123216D01*
Y-122759D01*
Y-70540D01*
X86272Y-68580D01*
X86272Y-68580D01*
X86667Y-67990D01*
X86805Y-67294D01*
Y-4062D01*
X87000Y-3880D01*
X87605Y-3541D01*
X87795Y-3579D01*
X91732D01*
X92123Y-3501D01*
X92453Y-3280D01*
X92674Y-2949D01*
X92752Y-2559D01*
Y-1965D01*
X94460D01*
Y-2559D01*
X94522Y-2871D01*
X94699Y-3136D01*
X94964Y-3313D01*
X95276Y-3375D01*
X99213D01*
X99525Y-3313D01*
X99789Y-3136D01*
X99966Y-2871D01*
X100028Y-2559D01*
Y-1965D01*
X102365D01*
X108268Y3937D01*
Y4145D01*
X108481Y4187D01*
X108746Y4364D01*
X108923Y4629D01*
X108985Y4941D01*
Y12421D01*
X108923Y12733D01*
X108746Y12998D01*
X108729Y13010D01*
Y26360D01*
X108746Y26372D01*
X108923Y26637D01*
X108985Y26949D01*
Y34429D01*
X108923Y34741D01*
X108746Y35006D01*
X108481Y35183D01*
X108169Y35245D01*
X107472D01*
X104609Y38108D01*
X104607Y38124D01*
X104328Y38798D01*
X103884Y39376D01*
X103306Y39820D01*
X102632Y40099D01*
X102615Y40101D01*
X95311Y47406D01*
Y51378D01*
X95233Y51768D01*
X95012Y52099D01*
X94682Y52320D01*
X94291Y52398D01*
X90748D01*
X90358Y52320D01*
X90127Y52165D01*
X86559D01*
X86417Y52194D01*
X85602D01*
X85598Y52197D01*
X79050D01*
X78605Y52382D01*
X77677Y52504D01*
X76749Y52382D01*
X76612Y52325D01*
X59055Y69882D01*
Y85208D01*
X68701D01*
X69216Y84517D01*
Y80054D01*
X65939Y76778D01*
X65495Y76199D01*
X65216Y75526D01*
X65121Y74803D01*
X65216Y74080D01*
X65495Y73407D01*
X65939Y72829D01*
X66517Y72385D01*
X67191Y72106D01*
X67913Y72011D01*
X68636Y72106D01*
X69310Y72385D01*
X69525Y72550D01*
X70250Y72098D01*
X70240Y72047D01*
Y70768D01*
X73130D01*
Y73067D01*
X71260D01*
X71257Y73066D01*
X70863Y73804D01*
X71834Y74775D01*
X73756D01*
X73819Y74767D01*
X73881Y74775D01*
X76378D01*
X76690Y74837D01*
X76955Y75014D01*
X77131Y75278D01*
X77194Y75590D01*
Y75740D01*
X94263D01*
Y67143D01*
X94246Y67132D01*
X94069Y66867D01*
X94007Y66555D01*
Y59075D01*
X94069Y58763D01*
X94246Y58498D01*
X94511Y58321D01*
X94823Y58259D01*
X97342D01*
X97655Y58321D01*
X97919Y58498D01*
X98096Y58763D01*
X98158Y59075D01*
Y66555D01*
X98096Y66867D01*
X97919Y67132D01*
X97902Y67143D01*
Y77756D01*
Y80494D01*
X97919Y80506D01*
X98096Y80770D01*
X98158Y81083D01*
Y88563D01*
X98096Y88875D01*
X97919Y89140D01*
X97655Y89317D01*
X97342Y89379D01*
X94823D01*
X94511Y89317D01*
X94246Y89140D01*
X94069Y88875D01*
X94007Y88563D01*
Y81083D01*
X94069Y80770D01*
X94246Y80506D01*
X94263Y80494D01*
Y79378D01*
X87902D01*
Y80494D01*
X87919Y80506D01*
X88096Y80770D01*
X88158Y81083D01*
Y88563D01*
X88096Y88875D01*
X87919Y89140D01*
X87866Y89176D01*
X87847Y89923D01*
X87887Y90050D01*
X88010Y90101D01*
X88463Y90449D01*
X88932Y90324D01*
X89263Y90110D01*
Y89151D01*
X89246Y89140D01*
X89069Y88875D01*
X89007Y88563D01*
Y81083D01*
X89069Y80770D01*
X89246Y80506D01*
X89511Y80329D01*
X89823Y80267D01*
X92343D01*
X92655Y80329D01*
X92919Y80506D01*
X93096Y80770D01*
X93158Y81083D01*
Y88563D01*
X93096Y88875D01*
X92919Y89140D01*
X92902Y89151D01*
Y91020D01*
X93046Y91144D01*
X93666Y91401D01*
X94076Y91086D01*
X94750Y90807D01*
X95472Y90711D01*
X96195Y90807D01*
X96869Y91086D01*
X97447Y91529D01*
X97891Y92108D01*
X98170Y92781D01*
X98265Y93504D01*
X98170Y94227D01*
X97891Y94900D01*
X97447Y95478D01*
X96869Y95922D01*
X96195Y96201D01*
X95472Y96296D01*
X94750Y96201D01*
X94076Y95922D01*
X93498Y95478D01*
X93379Y95323D01*
X92520D01*
X91824Y95185D01*
X91233Y94790D01*
X91233Y94790D01*
X90033Y93590D01*
X89249Y93667D01*
X89100Y93752D01*
X89032Y93916D01*
X88589Y94494D01*
X88010Y94938D01*
X87337Y95217D01*
X86614Y95312D01*
X85891Y95217D01*
X85218Y94938D01*
X84640Y94494D01*
X84521Y94339D01*
X82677D01*
X81981Y94200D01*
X81391Y93806D01*
X81391Y93806D01*
X79796Y92212D01*
X79402Y91621D01*
X79264Y90925D01*
X79264Y90925D01*
Y89151D01*
X79246Y89140D01*
X79069Y88875D01*
X79007Y88563D01*
Y81083D01*
X79069Y80770D01*
X79246Y80506D01*
X79511Y80329D01*
X79823Y80267D01*
X82342D01*
X82655Y80329D01*
X82919Y80506D01*
X83096Y80770D01*
X83158Y81083D01*
Y88563D01*
X83096Y88875D01*
X82919Y89140D01*
X82902Y89151D01*
Y90172D01*
X83431Y90701D01*
X84521D01*
X84640Y90545D01*
X85117Y90179D01*
X85091Y89818D01*
X84895Y89379D01*
X84823D01*
X84511Y89317D01*
X84246Y89140D01*
X84069Y88875D01*
X84007Y88563D01*
Y81083D01*
X84069Y80770D01*
X84246Y80506D01*
X84263Y80494D01*
Y79378D01*
X77194D01*
Y79527D01*
X77131Y79840D01*
X76955Y80104D01*
X76690Y80281D01*
X76378Y80343D01*
X74984D01*
X74800Y80527D01*
Y94331D01*
X74705Y95053D01*
X74576Y95366D01*
X75094Y96104D01*
X75787Y96013D01*
X76921Y96162D01*
X77978Y96600D01*
X78885Y97296D01*
X79581Y98203D01*
X80019Y99260D01*
X80168Y100394D01*
X80019Y101528D01*
X79581Y102584D01*
X78885Y103491D01*
X77978Y104188D01*
X76921Y104625D01*
X75787Y104774D01*
X75041Y104676D01*
X74461Y105368D01*
X74548Y105577D01*
X74643Y106299D01*
Y128937D01*
X74548Y129660D01*
X74269Y130333D01*
X73825Y130912D01*
X73247Y131355D01*
X72573Y131634D01*
X71850Y131729D01*
X71128Y131634D01*
X70454Y131355D01*
X70066Y131057D01*
X69830Y131047D01*
X69376Y131123D01*
X69115Y131234D01*
X69081Y131285D01*
X68816Y131462D01*
X68504Y131524D01*
X63189D01*
X62877Y131462D01*
X62612Y131285D01*
X62435Y131021D01*
X62373Y130709D01*
Y119080D01*
X60721Y117428D01*
X60327Y116838D01*
X60243Y116417D01*
X59484Y115898D01*
X59055Y116037D01*
Y151933D01*
X60630D01*
X61020Y152011D01*
X61351Y152232D01*
X61572Y152563D01*
X61600Y152704D01*
X62416D01*
X62444Y152563D01*
X62665Y152232D01*
X62996Y152011D01*
X63386Y151933D01*
X65748D01*
Y158465D01*
Y164996D01*
X63386D01*
X62996Y164918D01*
X62665Y164697D01*
X62444Y164367D01*
X62416Y164225D01*
X61600D01*
X61572Y164367D01*
X61351Y164697D01*
X61020Y164918D01*
X60630Y164996D01*
X59055D01*
Y167323D01*
X65945Y174213D01*
X135827D01*
X142717Y167323D01*
D02*
G37*
%LPC*%
G36*
X332795Y115894D02*
X326496D01*
X326184Y115832D01*
X325919Y115656D01*
X325743Y115391D01*
X325680Y115079D01*
Y108780D01*
X325743Y108467D01*
X325919Y108203D01*
X326184Y108026D01*
X326496Y107964D01*
X332795D01*
X333107Y108026D01*
X333372Y108203D01*
X333549Y108467D01*
X333611Y108780D01*
Y115079D01*
X333549Y115391D01*
X333372Y115656D01*
X333107Y115832D01*
X332795Y115894D01*
D02*
G37*
G36*
X329646Y95913D02*
X328615Y95777D01*
X327654Y95379D01*
X326829Y94746D01*
X326196Y93921D01*
X325798Y92960D01*
X325662Y91929D01*
X325798Y90898D01*
X326196Y89937D01*
X326829Y89112D01*
X327654Y88479D01*
X328615Y88081D01*
X329646Y87945D01*
X330677Y88081D01*
X331638Y88479D01*
X332463Y89112D01*
X333096Y89937D01*
X333494Y90898D01*
X333629Y91929D01*
X333494Y92960D01*
X333096Y93921D01*
X332463Y94746D01*
X331638Y95379D01*
X330677Y95777D01*
X329646Y95913D01*
D02*
G37*
G36*
Y85913D02*
X328615Y85777D01*
X327654Y85379D01*
X326829Y84746D01*
X326196Y83921D01*
X325798Y82960D01*
X325662Y81929D01*
X325798Y80898D01*
X326196Y79937D01*
X326829Y79112D01*
X327654Y78479D01*
X328615Y78081D01*
X329646Y77946D01*
X330677Y78081D01*
X331638Y78479D01*
X332463Y79112D01*
X333096Y79937D01*
X333494Y80898D01*
X333629Y81929D01*
X333494Y82960D01*
X333096Y83921D01*
X332463Y84746D01*
X331638Y85379D01*
X330677Y85777D01*
X329646Y85913D01*
D02*
G37*
G36*
Y105913D02*
X328615Y105777D01*
X327654Y105379D01*
X326829Y104746D01*
X326196Y103921D01*
X325798Y102960D01*
X325662Y101929D01*
X325798Y100898D01*
X326196Y99937D01*
X326829Y99112D01*
X327654Y98479D01*
X328615Y98081D01*
X329646Y97945D01*
X330677Y98081D01*
X331638Y98479D01*
X332463Y99112D01*
X333096Y99937D01*
X333494Y100898D01*
X333629Y101929D01*
X333494Y102960D01*
X333096Y103921D01*
X332463Y104746D01*
X331638Y105379D01*
X330677Y105777D01*
X329646Y105913D01*
D02*
G37*
G36*
Y-37945D02*
X328615Y-38081D01*
X327654Y-38479D01*
X326829Y-39112D01*
X326196Y-39937D01*
X325798Y-40898D01*
X325662Y-41929D01*
X325798Y-42960D01*
X326196Y-43921D01*
X326829Y-44746D01*
X327654Y-45379D01*
X328615Y-45777D01*
X329646Y-45913D01*
X330677Y-45777D01*
X331638Y-45379D01*
X332463Y-44746D01*
X333096Y-43921D01*
X333494Y-42960D01*
X333629Y-41929D01*
X333494Y-40898D01*
X333096Y-39937D01*
X332463Y-39112D01*
X331638Y-38479D01*
X330677Y-38081D01*
X329646Y-37945D01*
D02*
G37*
G36*
Y-27945D02*
X328615Y-28081D01*
X327654Y-28479D01*
X326829Y-29112D01*
X326196Y-29937D01*
X325798Y-30898D01*
X325662Y-31929D01*
X325798Y-32960D01*
X326196Y-33921D01*
X326829Y-34746D01*
X327654Y-35379D01*
X328615Y-35777D01*
X329646Y-35913D01*
X330677Y-35777D01*
X331638Y-35379D01*
X332463Y-34746D01*
X333096Y-33921D01*
X333494Y-32960D01*
X333629Y-31929D01*
X333494Y-30898D01*
X333096Y-29937D01*
X332463Y-29112D01*
X331638Y-28479D01*
X330677Y-28081D01*
X329646Y-27945D01*
D02*
G37*
G36*
Y-17945D02*
X328615Y-18081D01*
X327654Y-18479D01*
X326829Y-19112D01*
X326196Y-19937D01*
X325798Y-20898D01*
X325662Y-21929D01*
X325798Y-22960D01*
X326196Y-23921D01*
X326829Y-24746D01*
X327654Y-25379D01*
X328615Y-25777D01*
X329646Y-25913D01*
X330677Y-25777D01*
X331638Y-25379D01*
X332463Y-24746D01*
X333096Y-23921D01*
X333494Y-22960D01*
X333629Y-21929D01*
X333494Y-20898D01*
X333096Y-19937D01*
X332463Y-19112D01*
X331638Y-18479D01*
X330677Y-18081D01*
X329646Y-17945D01*
D02*
G37*
G36*
Y-97945D02*
X328615Y-98081D01*
X327654Y-98479D01*
X326829Y-99112D01*
X326196Y-99937D01*
X325798Y-100898D01*
X325662Y-101929D01*
X325798Y-102960D01*
X326196Y-103921D01*
X326829Y-104746D01*
X327654Y-105379D01*
X328615Y-105777D01*
X329646Y-105913D01*
X330677Y-105777D01*
X331638Y-105379D01*
X332463Y-104746D01*
X333096Y-103921D01*
X333494Y-102960D01*
X333629Y-101929D01*
X333494Y-100898D01*
X333096Y-99937D01*
X332463Y-99112D01*
X331638Y-98479D01*
X330677Y-98081D01*
X329646Y-97945D01*
D02*
G37*
G36*
Y-87945D02*
X328615Y-88081D01*
X327654Y-88479D01*
X326829Y-89112D01*
X326196Y-89937D01*
X325798Y-90898D01*
X325662Y-91929D01*
X325798Y-92960D01*
X326196Y-93921D01*
X326829Y-94746D01*
X327654Y-95379D01*
X328615Y-95777D01*
X329646Y-95913D01*
X330677Y-95777D01*
X331638Y-95379D01*
X332463Y-94746D01*
X333096Y-93921D01*
X333494Y-92960D01*
X333629Y-91929D01*
X333494Y-90898D01*
X333096Y-89937D01*
X332463Y-89112D01*
X331638Y-88479D01*
X330677Y-88081D01*
X329646Y-87945D01*
D02*
G37*
G36*
Y-107946D02*
X328615Y-108081D01*
X327654Y-108479D01*
X326829Y-109112D01*
X326196Y-109937D01*
X325798Y-110898D01*
X325662Y-111929D01*
X325798Y-112960D01*
X326196Y-113921D01*
X326829Y-114746D01*
X327654Y-115379D01*
X328615Y-115777D01*
X329646Y-115913D01*
X330677Y-115777D01*
X331638Y-115379D01*
X332463Y-114746D01*
X333096Y-113921D01*
X333494Y-112960D01*
X333629Y-111929D01*
X333494Y-110898D01*
X333096Y-109937D01*
X332463Y-109112D01*
X331638Y-108479D01*
X330677Y-108081D01*
X329646Y-107946D01*
D02*
G37*
G36*
Y45913D02*
X328615Y45777D01*
X327654Y45379D01*
X326829Y44746D01*
X326196Y43921D01*
X325798Y42960D01*
X325662Y41929D01*
X325798Y40898D01*
X326196Y39937D01*
X326829Y39112D01*
X327654Y38479D01*
X328615Y38081D01*
X329646Y37945D01*
X330677Y38081D01*
X331638Y38479D01*
X332463Y39112D01*
X333096Y39937D01*
X333494Y40898D01*
X333629Y41929D01*
X333494Y42960D01*
X333096Y43921D01*
X332463Y44746D01*
X331638Y45379D01*
X330677Y45777D01*
X329646Y45913D01*
D02*
G37*
G36*
Y25913D02*
X328615Y25777D01*
X327654Y25379D01*
X326829Y24746D01*
X326196Y23921D01*
X325798Y22960D01*
X325662Y21929D01*
X325798Y20898D01*
X326196Y19937D01*
X326829Y19112D01*
X327654Y18479D01*
X328615Y18081D01*
X329646Y17945D01*
X330677Y18081D01*
X331638Y18479D01*
X332463Y19112D01*
X333096Y19937D01*
X333494Y20898D01*
X333629Y21929D01*
X333494Y22960D01*
X333096Y23921D01*
X332463Y24746D01*
X331638Y25379D01*
X330677Y25777D01*
X329646Y25913D01*
D02*
G37*
G36*
Y35913D02*
X328615Y35777D01*
X327654Y35379D01*
X326829Y34746D01*
X326196Y33921D01*
X325798Y32960D01*
X325662Y31929D01*
X325798Y30898D01*
X326196Y29937D01*
X326829Y29112D01*
X327654Y28479D01*
X328615Y28081D01*
X329646Y27945D01*
X330677Y28081D01*
X331638Y28479D01*
X332463Y29112D01*
X333096Y29937D01*
X333494Y30898D01*
X333629Y31929D01*
X333494Y32960D01*
X333096Y33921D01*
X332463Y34746D01*
X331638Y35379D01*
X330677Y35777D01*
X329646Y35913D01*
D02*
G37*
G36*
Y55913D02*
X328615Y55777D01*
X327654Y55379D01*
X326829Y54746D01*
X326196Y53921D01*
X325798Y52960D01*
X325662Y51929D01*
X325798Y50898D01*
X326196Y49937D01*
X326829Y49112D01*
X327654Y48479D01*
X328615Y48081D01*
X329646Y47945D01*
X330677Y48081D01*
X331638Y48479D01*
X332463Y49112D01*
X333096Y49937D01*
X333494Y50898D01*
X333629Y51929D01*
X333494Y52960D01*
X333096Y53921D01*
X332463Y54746D01*
X331638Y55379D01*
X330677Y55777D01*
X329646Y55913D01*
D02*
G37*
G36*
X13027Y-131595D02*
X10531D01*
Y-135370D01*
X12008D01*
X12398Y-135292D01*
X12729Y-135071D01*
X12950Y-134741D01*
X13027Y-134350D01*
Y-131595D01*
D02*
G37*
G36*
X9154D02*
X6658D01*
Y-134350D01*
X6735Y-134741D01*
X6956Y-135071D01*
X7287Y-135292D01*
X7677Y-135370D01*
X9154D01*
Y-131595D01*
D02*
G37*
G36*
X12008Y-126441D02*
X10531D01*
Y-130217D01*
X13027D01*
Y-127461D01*
X12950Y-127070D01*
X12729Y-126740D01*
X12398Y-126519D01*
X12008Y-126441D01*
D02*
G37*
G36*
X9154D02*
X7677D01*
X7287Y-126519D01*
X6956Y-126740D01*
X6735Y-127070D01*
X6658Y-127461D01*
Y-130217D01*
X9154D01*
Y-126441D01*
D02*
G37*
G36*
Y57614D02*
X7677D01*
X7287Y57537D01*
X6956Y57315D01*
X6735Y56985D01*
X6658Y56595D01*
Y53839D01*
X9154D01*
Y57614D01*
D02*
G37*
G36*
X12008D02*
X10531D01*
Y53839D01*
X13027D01*
Y56595D01*
X12950Y56985D01*
X12729Y57315D01*
X12398Y57537D01*
X12008Y57614D01*
D02*
G37*
G36*
X9154Y52461D02*
X6658D01*
Y49705D01*
X6735Y49315D01*
X6956Y48984D01*
X7287Y48763D01*
X7677Y48685D01*
X9154D01*
Y52461D01*
D02*
G37*
G36*
X13027D02*
X10531D01*
Y48685D01*
X12008D01*
X12398Y48763D01*
X12729Y48984D01*
X12950Y49315D01*
X13027Y49705D01*
Y52461D01*
D02*
G37*
G36*
X111516Y-69256D02*
X106693D01*
X106303Y-69334D01*
X105972Y-69555D01*
X105751Y-69885D01*
X105673Y-70276D01*
Y-72638D01*
X111516D01*
Y-69256D01*
D02*
G37*
G36*
X42757Y-51677D02*
X42677Y-51685D01*
X42597Y-51677D01*
X41343Y-51801D01*
X41266Y-51824D01*
X41186Y-51832D01*
X39980Y-52197D01*
X39909Y-52235D01*
X39832Y-52259D01*
X38721Y-52853D01*
X38659Y-52904D01*
X38659Y-52904D01*
X38659Y-52904D01*
X38588Y-52942D01*
X37614Y-53741D01*
X37563Y-53803D01*
X37563Y-53803D01*
X37563Y-53803D01*
X37501Y-53854D01*
X36701Y-54828D01*
X36663Y-54899D01*
X36663Y-54899D01*
X36612Y-54961D01*
X36018Y-56073D01*
X35995Y-56150D01*
X35957Y-56220D01*
X35592Y-57426D01*
X35584Y-57506D01*
X35560Y-57583D01*
X35437Y-58837D01*
X35441Y-58878D01*
X35433Y-58917D01*
X35441Y-58957D01*
X35437Y-58997D01*
X35560Y-60251D01*
X35584Y-60328D01*
X35592Y-60408D01*
X35957Y-61614D01*
X35995Y-61685D01*
X36018Y-61762D01*
X36613Y-62873D01*
X36663Y-62935D01*
X36663Y-62936D01*
X36663Y-62936D01*
X36701Y-63006D01*
X37501Y-63981D01*
X37563Y-64031D01*
X37563Y-64031D01*
X37563Y-64031D01*
X37614Y-64094D01*
X38588Y-64893D01*
X38659Y-64931D01*
X38659Y-64931D01*
X38721Y-64982D01*
X39832Y-65576D01*
X39909Y-65599D01*
X39980Y-65637D01*
X41186Y-66003D01*
X41266Y-66011D01*
X41343Y-66034D01*
X42597Y-66158D01*
X42677Y-66150D01*
X42757Y-66158D01*
X44011Y-66034D01*
X44088Y-66011D01*
X44168Y-66003D01*
X45374Y-65637D01*
X45445Y-65599D01*
X45522Y-65576D01*
X46633Y-64982D01*
X46695Y-64931D01*
X46695Y-64931D01*
X46695Y-64931D01*
X46766Y-64893D01*
X47740Y-64094D01*
X47791Y-64031D01*
X47791Y-64031D01*
X47791Y-64031D01*
X47853Y-63981D01*
X48653Y-63006D01*
X48691Y-62936D01*
X48691Y-62936D01*
X48742Y-62873D01*
X49336Y-61762D01*
X49359Y-61685D01*
X49397Y-61614D01*
X49763Y-60408D01*
X49771Y-60328D01*
X49794Y-60251D01*
X49918Y-58997D01*
X49913Y-58957D01*
X49921Y-58917D01*
X49913Y-58878D01*
X49918Y-58837D01*
X49794Y-57583D01*
X49771Y-57506D01*
X49763Y-57426D01*
X49397Y-56220D01*
X49359Y-56150D01*
X49336Y-56073D01*
X48742Y-54961D01*
X48691Y-54899D01*
X48691Y-54899D01*
X48691Y-54899D01*
X48653Y-54828D01*
X47853Y-53854D01*
X47791Y-53803D01*
X47791Y-53803D01*
X47791Y-53803D01*
X47740Y-53741D01*
X46766Y-52942D01*
X46695Y-52904D01*
X46695Y-52904D01*
X46633Y-52853D01*
X45522Y-52259D01*
X45445Y-52235D01*
X45374Y-52197D01*
X44168Y-51832D01*
X44088Y-51824D01*
X44011Y-51801D01*
X42757Y-51677D01*
D02*
G37*
G36*
X132909Y-74941D02*
X126673D01*
Y-76846D01*
X131890D01*
X132280Y-76769D01*
X132611Y-76548D01*
X132832Y-76217D01*
X132909Y-75827D01*
Y-74941D01*
D02*
G37*
G36*
Y-104469D02*
X126673D01*
Y-106374D01*
X131890D01*
X132280Y-106296D01*
X132611Y-106075D01*
X132832Y-105745D01*
X132909Y-105354D01*
Y-104469D01*
D02*
G37*
G36*
X111516Y-98784D02*
X106693D01*
X106303Y-98861D01*
X105972Y-99082D01*
X105751Y-99413D01*
X105673Y-99803D01*
Y-102165D01*
X111516D01*
Y-98784D01*
D02*
G37*
G36*
Y-74016D02*
X105673D01*
Y-76378D01*
X105751Y-76768D01*
X105972Y-77099D01*
X106303Y-77320D01*
X106693Y-77398D01*
X111516D01*
Y-74016D01*
D02*
G37*
G36*
X123524Y-1343D02*
X122244D01*
X121854Y-1420D01*
X121523Y-1641D01*
X121302Y-1972D01*
X121224Y-2362D01*
Y-4232D01*
X123524D01*
Y-1343D01*
D02*
G37*
G36*
X42757Y-6677D02*
X42677Y-6685D01*
X42597Y-6677D01*
X41343Y-6801D01*
X41266Y-6824D01*
X41186Y-6832D01*
X39980Y-7198D01*
X39909Y-7235D01*
X39832Y-7259D01*
X38721Y-7853D01*
X38659Y-7904D01*
X38659Y-7904D01*
X38659Y-7904D01*
X38588Y-7942D01*
X37614Y-8741D01*
X37563Y-8803D01*
X37563Y-8803D01*
X37563Y-8803D01*
X37501Y-8854D01*
X36701Y-9828D01*
X36663Y-9899D01*
X36663Y-9899D01*
X36612Y-9961D01*
X36018Y-11073D01*
X35995Y-11150D01*
X35957Y-11220D01*
X35592Y-12426D01*
X35584Y-12506D01*
X35560Y-12583D01*
X35437Y-13837D01*
X35441Y-13878D01*
X35433Y-13917D01*
X35441Y-13957D01*
X35437Y-13997D01*
X35560Y-15251D01*
X35584Y-15328D01*
X35592Y-15408D01*
X35957Y-16614D01*
X35995Y-16685D01*
X36018Y-16762D01*
X36613Y-17873D01*
X36663Y-17935D01*
X36663Y-17935D01*
X36663Y-17935D01*
X36701Y-18006D01*
X37501Y-18981D01*
X37563Y-19031D01*
X37563Y-19031D01*
X37563Y-19031D01*
X37614Y-19094D01*
X38588Y-19893D01*
X38659Y-19931D01*
X38659Y-19931D01*
X38721Y-19982D01*
X39832Y-20576D01*
X39909Y-20599D01*
X39980Y-20637D01*
X41186Y-21003D01*
X41266Y-21011D01*
X41343Y-21034D01*
X42597Y-21158D01*
X42677Y-21150D01*
X42757Y-21158D01*
X44011Y-21034D01*
X44088Y-21011D01*
X44168Y-21003D01*
X45374Y-20637D01*
X45445Y-20599D01*
X45522Y-20576D01*
X46633Y-19982D01*
X46695Y-19931D01*
X46695Y-19931D01*
X46695Y-19931D01*
X46766Y-19893D01*
X47740Y-19094D01*
X47791Y-19031D01*
X47791Y-19031D01*
X47791Y-19031D01*
X47853Y-18981D01*
X48653Y-18006D01*
X48691Y-17935D01*
X48691Y-17935D01*
X48742Y-17873D01*
X49336Y-16762D01*
X49359Y-16685D01*
X49397Y-16614D01*
X49763Y-15408D01*
X49771Y-15328D01*
X49794Y-15251D01*
X49918Y-13997D01*
X49913Y-13957D01*
X49921Y-13917D01*
X49913Y-13878D01*
X49918Y-13837D01*
X49794Y-12583D01*
X49771Y-12506D01*
X49763Y-12426D01*
X49397Y-11220D01*
X49359Y-11150D01*
X49336Y-11073D01*
X48742Y-9961D01*
X48691Y-9899D01*
X48691Y-9899D01*
X48691Y-9899D01*
X48653Y-9828D01*
X47853Y-8854D01*
X47791Y-8803D01*
X47791Y-8803D01*
X47791Y-8803D01*
X47740Y-8741D01*
X46766Y-7942D01*
X46695Y-7904D01*
X46695Y-7904D01*
X46633Y-7853D01*
X45522Y-7259D01*
X45445Y-7235D01*
X45374Y-7198D01*
X44168Y-6832D01*
X44088Y-6824D01*
X44011Y-6801D01*
X42757Y-6677D01*
D02*
G37*
G36*
X126181Y-1343D02*
X124902D01*
Y-4232D01*
X127201D01*
Y-2362D01*
X127123Y-1972D01*
X126902Y-1641D01*
X126571Y-1420D01*
X126181Y-1343D01*
D02*
G37*
G36*
X29823Y16240D02*
X26933D01*
Y14961D01*
X27011Y14570D01*
X27232Y14240D01*
X27563Y14019D01*
X27953Y13941D01*
X29823D01*
Y16240D01*
D02*
G37*
G36*
X152559Y14223D02*
X151425Y14074D01*
X150369Y13636D01*
X149461Y12940D01*
X148765Y12033D01*
X148328Y10976D01*
X148178Y9843D01*
X148328Y8709D01*
X148765Y7652D01*
X149461Y6745D01*
X150369Y6049D01*
X151425Y5611D01*
X152559Y5462D01*
X153693Y5611D01*
X154750Y6049D01*
X155657Y6745D01*
X156353Y7652D01*
X156791Y8709D01*
X156940Y9843D01*
X156791Y10976D01*
X156353Y12033D01*
X155657Y12940D01*
X154750Y13636D01*
X153693Y14074D01*
X152559Y14223D01*
D02*
G37*
G36*
X123524Y-5610D02*
X121224D01*
Y-7480D01*
X121302Y-7870D01*
X121523Y-8201D01*
X121854Y-8422D01*
X122244Y-8500D01*
X123524D01*
Y-5610D01*
D02*
G37*
G36*
X98425Y-20403D02*
X97317Y-20549D01*
X96285Y-20977D01*
X95398Y-21658D01*
X94717Y-22544D01*
X94290Y-23577D01*
X94144Y-24685D01*
X94290Y-25793D01*
X94717Y-26826D01*
X95398Y-27713D01*
X96285Y-28393D01*
X97317Y-28821D01*
X98425Y-28967D01*
X99533Y-28821D01*
X100566Y-28393D01*
X101453Y-27713D01*
X102133Y-26826D01*
X102561Y-25793D01*
X102707Y-24685D01*
X102561Y-23577D01*
X102133Y-22544D01*
X101453Y-21658D01*
X100566Y-20977D01*
X99533Y-20549D01*
X98425Y-20403D01*
D02*
G37*
G36*
Y-10403D02*
X97317Y-10549D01*
X96285Y-10977D01*
X95398Y-11658D01*
X94717Y-12544D01*
X94290Y-13577D01*
X94144Y-14685D01*
X94290Y-15793D01*
X94717Y-16826D01*
X95398Y-17713D01*
X96285Y-18393D01*
X97317Y-18821D01*
X98425Y-18967D01*
X99533Y-18821D01*
X100566Y-18393D01*
X101453Y-17713D01*
X102133Y-16826D01*
X102561Y-15793D01*
X102707Y-14685D01*
X102561Y-13577D01*
X102133Y-12544D01*
X101453Y-11658D01*
X100566Y-10977D01*
X99533Y-10549D01*
X98425Y-10403D01*
D02*
G37*
G36*
X53149Y-14924D02*
X52427Y-15019D01*
X51753Y-15298D01*
X51175Y-15742D01*
X50731Y-16320D01*
X50452Y-16994D01*
X50357Y-17717D01*
X50452Y-18439D01*
X50731Y-19113D01*
X51175Y-19691D01*
X51753Y-20135D01*
X52427Y-20414D01*
X52562Y-20432D01*
X52559Y-21232D01*
X52247Y-21294D01*
X51982Y-21471D01*
X51806Y-21735D01*
X51743Y-22047D01*
Y-31102D01*
X51806Y-31414D01*
X51982Y-31679D01*
X52247Y-31856D01*
X52559Y-31918D01*
X61614D01*
X61926Y-31856D01*
X62191Y-31679D01*
X62368Y-31414D01*
X62430Y-31102D01*
Y-30737D01*
X64591D01*
X65141Y-31453D01*
X65884Y-32023D01*
X66749Y-32382D01*
X67677Y-32504D01*
X68605Y-32382D01*
X69470Y-32023D01*
X70213Y-31453D01*
X70783Y-30711D01*
X71141Y-29846D01*
X71264Y-28917D01*
X71141Y-27989D01*
X70783Y-27124D01*
X70213Y-26381D01*
X69470Y-25811D01*
X68605Y-25453D01*
X67677Y-25331D01*
X66749Y-25453D01*
X65884Y-25811D01*
X65141Y-26381D01*
X64591Y-27098D01*
X62430D01*
Y-22047D01*
X62368Y-21735D01*
X62191Y-21471D01*
X61926Y-21294D01*
X61614Y-21232D01*
X53789D01*
X53737Y-20432D01*
X53872Y-20414D01*
X54546Y-20135D01*
X54672Y-20038D01*
X64105D01*
Y-21673D01*
X64168Y-21985D01*
X64344Y-22250D01*
X64609Y-22427D01*
X64921Y-22489D01*
X70433D01*
X70745Y-22427D01*
X71010Y-22250D01*
X71187Y-21985D01*
X71249Y-21673D01*
Y-16161D01*
X71187Y-15849D01*
X71010Y-15585D01*
X70745Y-15408D01*
X70433Y-15346D01*
X64921D01*
X64671Y-15395D01*
X54672D01*
X54546Y-15298D01*
X53872Y-15019D01*
X53149Y-14924D01*
D02*
G37*
G36*
X135335Y-136516D02*
X133036D01*
Y-138386D01*
X133113Y-138776D01*
X133334Y-139107D01*
X133665Y-139328D01*
X134055Y-139405D01*
X135335D01*
Y-136516D01*
D02*
G37*
G36*
X124248D02*
X121949D01*
Y-139405D01*
X123228D01*
X123618Y-139328D01*
X123949Y-139107D01*
X124170Y-138776D01*
X124248Y-138386D01*
Y-136516D01*
D02*
G37*
G36*
X139012D02*
X136713D01*
Y-139405D01*
X137992D01*
X138382Y-139328D01*
X138713Y-139107D01*
X138934Y-138776D01*
X139012Y-138386D01*
Y-136516D01*
D02*
G37*
G36*
X120571D02*
X118272D01*
Y-138386D01*
X118349Y-138776D01*
X118570Y-139107D01*
X118901Y-139328D01*
X119291Y-139405D01*
X120571D01*
Y-136516D01*
D02*
G37*
G36*
X68347Y-146528D02*
X67315Y-146664D01*
X66355Y-147062D01*
X65530Y-147695D01*
X64897Y-148520D01*
X64499Y-149481D01*
X64363Y-150512D01*
X64499Y-151543D01*
X64897Y-152504D01*
X65530Y-153329D01*
X66355Y-153962D01*
X67315Y-154360D01*
X68347Y-154496D01*
X69377Y-154360D01*
X70338Y-153962D01*
X71163Y-153329D01*
X71796Y-152504D01*
X72194Y-151543D01*
X72330Y-150512D01*
X72194Y-149481D01*
X71796Y-148520D01*
X71163Y-147695D01*
X70338Y-147062D01*
X69377Y-146664D01*
X68347Y-146528D01*
D02*
G37*
G36*
X58346D02*
X57315Y-146664D01*
X56355Y-147062D01*
X55530Y-147695D01*
X54896Y-148520D01*
X54498Y-149481D01*
X54363Y-150512D01*
X54498Y-151543D01*
X54896Y-152504D01*
X55530Y-153329D01*
X56355Y-153962D01*
X57315Y-154360D01*
X58346Y-154496D01*
X59377Y-154360D01*
X60338Y-153962D01*
X61163Y-153329D01*
X61796Y-152504D01*
X62194Y-151543D01*
X62330Y-150512D01*
X62194Y-149481D01*
X61796Y-148520D01*
X61163Y-147695D01*
X60338Y-147062D01*
X59377Y-146664D01*
X58346Y-146528D01*
D02*
G37*
G36*
X78347D02*
X77315Y-146664D01*
X76355Y-147062D01*
X75530Y-147695D01*
X74897Y-148520D01*
X74498Y-149481D01*
X74363Y-150512D01*
X74498Y-151543D01*
X74897Y-152504D01*
X75530Y-153329D01*
X76355Y-153962D01*
X77315Y-154360D01*
X78347Y-154496D01*
X79378Y-154360D01*
X80338Y-153962D01*
X81163Y-153329D01*
X81796Y-152504D01*
X82194Y-151543D01*
X82330Y-150512D01*
X82194Y-149481D01*
X81796Y-148520D01*
X81163Y-147695D01*
X80338Y-147062D01*
X79378Y-146664D01*
X78347Y-146528D01*
D02*
G37*
G36*
X128347D02*
X127316Y-146664D01*
X126355Y-147062D01*
X125530Y-147695D01*
X124897Y-148520D01*
X124499Y-149481D01*
X124363Y-150512D01*
X124499Y-151543D01*
X124897Y-152504D01*
X125530Y-153329D01*
X126355Y-153962D01*
X127316Y-154360D01*
X128347Y-154496D01*
X129378Y-154360D01*
X130339Y-153962D01*
X131164Y-153329D01*
X131797Y-152504D01*
X132195Y-151543D01*
X132330Y-150512D01*
X132195Y-149481D01*
X131797Y-148520D01*
X131164Y-147695D01*
X130339Y-147062D01*
X129378Y-146664D01*
X128347Y-146528D01*
D02*
G37*
G36*
X88346D02*
X87315Y-146664D01*
X86355Y-147062D01*
X85530Y-147695D01*
X84896Y-148520D01*
X84499Y-149481D01*
X84363Y-150512D01*
X84499Y-151543D01*
X84896Y-152504D01*
X85530Y-153329D01*
X86355Y-153962D01*
X87315Y-154360D01*
X88346Y-154496D01*
X89377Y-154360D01*
X90338Y-153962D01*
X91163Y-153329D01*
X91796Y-152504D01*
X92194Y-151543D01*
X92330Y-150512D01*
X92194Y-149481D01*
X91796Y-148520D01*
X91163Y-147695D01*
X90338Y-147062D01*
X89377Y-146664D01*
X88346Y-146528D01*
D02*
G37*
G36*
X20965Y-131595D02*
X18469D01*
Y-134350D01*
X18546Y-134741D01*
X18767Y-135071D01*
X19098Y-135292D01*
X19488Y-135370D01*
X20965D01*
Y-131595D01*
D02*
G37*
G36*
X23819Y-126441D02*
X22343D01*
Y-130217D01*
X24838D01*
Y-127461D01*
X24761Y-127070D01*
X24540Y-126740D01*
X24209Y-126519D01*
X23819Y-126441D01*
D02*
G37*
G36*
X111516Y-103543D02*
X105673D01*
Y-105905D01*
X105751Y-106296D01*
X105972Y-106626D01*
X106303Y-106848D01*
X106693Y-106925D01*
X111516D01*
Y-103543D01*
D02*
G37*
G36*
X56595Y-90707D02*
X51673D01*
X50822Y-90819D01*
X50029Y-91148D01*
X49348Y-91671D01*
X48825Y-92352D01*
X48496Y-93145D01*
X48384Y-93996D01*
Y-108760D01*
X48496Y-109611D01*
X48825Y-110404D01*
X49348Y-111085D01*
X50029Y-111608D01*
X50822Y-111937D01*
X51673Y-112049D01*
X56595D01*
X57446Y-111937D01*
X58239Y-111608D01*
X58920Y-111085D01*
X59443Y-110404D01*
X59771Y-109611D01*
X59883Y-108760D01*
Y-93996D01*
X59771Y-93145D01*
X59443Y-92352D01*
X58920Y-91671D01*
X58239Y-91148D01*
X57446Y-90819D01*
X56595Y-90707D01*
D02*
G37*
G36*
X20965Y-126441D02*
X19488D01*
X19098Y-126519D01*
X18767Y-126740D01*
X18546Y-127070D01*
X18469Y-127461D01*
Y-130217D01*
X20965D01*
Y-126441D01*
D02*
G37*
G36*
X120571Y-132248D02*
X119291D01*
X118901Y-132326D01*
X118570Y-132547D01*
X118349Y-132878D01*
X118272Y-133268D01*
Y-135138D01*
X120571D01*
Y-132248D01*
D02*
G37*
G36*
X24838Y-131595D02*
X22343D01*
Y-135370D01*
X23819D01*
X24209Y-135292D01*
X24540Y-135071D01*
X24761Y-134741D01*
X24838Y-134350D01*
Y-131595D01*
D02*
G37*
G36*
X123228Y-132248D02*
X121949D01*
Y-135138D01*
X124248D01*
Y-133268D01*
X124170Y-132878D01*
X123949Y-132547D01*
X123618Y-132326D01*
X123228Y-132248D01*
D02*
G37*
G36*
X137992D02*
X136713D01*
Y-135138D01*
X139012D01*
Y-133268D01*
X138934Y-132878D01*
X138713Y-132547D01*
X138382Y-132326D01*
X137992Y-132248D01*
D02*
G37*
G36*
X34090Y16240D02*
X31201D01*
Y13941D01*
X33071D01*
X33461Y14019D01*
X33792Y14240D01*
X34013Y14570D01*
X34090Y14961D01*
Y16240D01*
D02*
G37*
G36*
X77398Y69390D02*
X74508D01*
Y67091D01*
X76378D01*
X76768Y67168D01*
X77099Y67389D01*
X77320Y67720D01*
X77398Y68110D01*
Y69390D01*
D02*
G37*
G36*
X73130D02*
X70240D01*
Y68110D01*
X70318Y67720D01*
X70539Y67389D01*
X70870Y67168D01*
X71260Y67091D01*
X73130D01*
Y69390D01*
D02*
G37*
G36*
X111516Y73622D02*
X105673D01*
Y71260D01*
X105751Y70870D01*
X105972Y70539D01*
X106303Y70318D01*
X106693Y70240D01*
X111516D01*
Y73622D01*
D02*
G37*
G36*
X132909Y72697D02*
X126673D01*
Y70791D01*
X131890D01*
X132280Y70869D01*
X132611Y71090D01*
X132832Y71421D01*
X132909Y71811D01*
Y72697D01*
D02*
G37*
G36*
X76378Y73067D02*
X74508D01*
Y70768D01*
X77398D01*
Y72047D01*
X77320Y72437D01*
X77099Y72768D01*
X76768Y72989D01*
X76378Y73067D01*
D02*
G37*
G36*
X85394Y67575D02*
X84823D01*
X84433Y67497D01*
X84102Y67276D01*
X83893Y66963D01*
X83662Y66924D01*
X83325Y66890D01*
X83060Y66921D01*
X82919Y67132D01*
X82655Y67309D01*
X82342Y67371D01*
X79823D01*
X79511Y67309D01*
X79246Y67132D01*
X79069Y66867D01*
X79007Y66555D01*
Y59075D01*
X79069Y58763D01*
X79246Y58498D01*
X78887Y57808D01*
X78664Y57518D01*
X78385Y56845D01*
X78290Y56122D01*
X78385Y55399D01*
X78664Y54726D01*
X79108Y54147D01*
X79686Y53704D01*
X80360Y53425D01*
X81083Y53330D01*
X81805Y53425D01*
X82479Y53704D01*
X83057Y54147D01*
X83501Y54726D01*
X83780Y55399D01*
X83875Y56122D01*
X83780Y56845D01*
X83501Y57518D01*
X83279Y57808D01*
X83219Y57922D01*
X83234Y58035D01*
X83292Y58126D01*
X83530Y58193D01*
X84282Y58233D01*
X84433Y58133D01*
X84823Y58055D01*
X85394D01*
Y62815D01*
Y67575D01*
D02*
G37*
G36*
X87343D02*
X86772D01*
Y62815D01*
Y58055D01*
X87343D01*
X87733Y58133D01*
X87883Y58233D01*
X88636Y58193D01*
X88873Y58126D01*
X88932Y58035D01*
X88946Y57922D01*
X88887Y57808D01*
X88664Y57518D01*
X88385Y56845D01*
X88290Y56122D01*
X88385Y55399D01*
X88664Y54726D01*
X89108Y54147D01*
X89687Y53704D01*
X90360Y53425D01*
X91083Y53330D01*
X91805Y53425D01*
X92479Y53704D01*
X93057Y54147D01*
X93501Y54726D01*
X93780Y55399D01*
X93875Y56122D01*
X93780Y56845D01*
X93501Y57518D01*
X93279Y57808D01*
X92919Y58498D01*
X93096Y58763D01*
X93158Y59075D01*
Y66555D01*
X93096Y66867D01*
X92919Y67132D01*
X92655Y67309D01*
X92343Y67371D01*
X89823D01*
X89511Y67309D01*
X89246Y67132D01*
X89105Y66921D01*
X88841Y66890D01*
X88503Y66924D01*
X88273Y66963D01*
X88064Y67276D01*
X87733Y67497D01*
X87343Y67575D01*
D02*
G37*
G36*
X20965Y57614D02*
X19488D01*
X19098Y57537D01*
X18767Y57315D01*
X18546Y56985D01*
X18469Y56595D01*
Y53839D01*
X20965D01*
Y57614D01*
D02*
G37*
G36*
X23819D02*
X22343D01*
Y53839D01*
X24838D01*
Y56595D01*
X24761Y56985D01*
X24540Y57315D01*
X24209Y57537D01*
X23819Y57614D01*
D02*
G37*
G36*
X111516Y78382D02*
X106693D01*
X106303Y78304D01*
X105972Y78083D01*
X105751Y77752D01*
X105673Y77362D01*
Y75000D01*
X111516D01*
Y78382D01*
D02*
G37*
G36*
X113189Y146113D02*
X112055Y145964D01*
X110999Y145526D01*
X110091Y144830D01*
X109395Y143923D01*
X108958Y142866D01*
X108808Y141732D01*
X108958Y140598D01*
X109395Y139542D01*
X110091Y138635D01*
X110999Y137938D01*
X112055Y137501D01*
X113189Y137352D01*
X114323Y137501D01*
X115379Y137938D01*
X116287Y138635D01*
X116983Y139542D01*
X117420Y140598D01*
X117570Y141732D01*
X117420Y142866D01*
X116983Y143923D01*
X116287Y144830D01*
X115379Y145526D01*
X114323Y145964D01*
X113189Y146113D01*
D02*
G37*
G36*
X80315Y164792D02*
X74213D01*
X73901Y164730D01*
X73636Y164553D01*
X73459Y164288D01*
X73397Y163976D01*
Y152976D01*
X72039Y151618D01*
X72008Y151621D01*
X70977Y151486D01*
X70016Y151088D01*
X69191Y150455D01*
X68558Y149630D01*
X68160Y148669D01*
X68024Y147638D01*
X68160Y146607D01*
X68558Y145646D01*
X69191Y144821D01*
X70016Y144188D01*
X70977Y143790D01*
X72008Y143654D01*
X73039Y143790D01*
X74000Y144188D01*
X74825Y144821D01*
X75458Y145646D01*
X75856Y146607D01*
X75991Y147638D01*
X75987Y147668D01*
X79238Y150919D01*
X79682Y151497D01*
X79947Y152137D01*
X80315D01*
X80627Y152199D01*
X80892Y152376D01*
X81068Y152641D01*
X81131Y152953D01*
Y163976D01*
X81068Y164288D01*
X80892Y164553D01*
X80627Y164730D01*
X80315Y164792D01*
D02*
G37*
G36*
X69488Y164996D02*
X67126D01*
Y159153D01*
X70508D01*
Y163976D01*
X70430Y164367D01*
X70209Y164697D01*
X69878Y164918D01*
X69488Y164996D01*
D02*
G37*
G36*
X70508Y157776D02*
X67126D01*
Y151933D01*
X69488D01*
X69878Y152011D01*
X70209Y152232D01*
X70430Y152563D01*
X70508Y152953D01*
Y157776D01*
D02*
G37*
G36*
X132909Y102224D02*
X126673D01*
Y100319D01*
X131890D01*
X132280Y100397D01*
X132611Y100618D01*
X132832Y100948D01*
X132909Y101339D01*
Y102224D01*
D02*
G37*
G36*
X113189Y114013D02*
X112466Y113918D01*
X111793Y113639D01*
X111214Y113195D01*
X110771Y112617D01*
X110492Y111943D01*
X110397Y111221D01*
X110492Y110498D01*
X110771Y109824D01*
X111214Y109246D01*
X111793Y108802D01*
X112017Y108709D01*
X111858Y107909D01*
X106693D01*
X106303Y107832D01*
X105972Y107611D01*
X105751Y107280D01*
X105673Y106890D01*
Y104527D01*
X112205D01*
Y103839D01*
X112894D01*
Y99768D01*
X117717D01*
X118107Y99845D01*
X118438Y100066D01*
X118601Y100311D01*
X118905Y100434D01*
X119499Y100523D01*
X119689Y100397D01*
X120079Y100319D01*
X125295D01*
Y102913D01*
X125984D01*
Y103602D01*
X132909D01*
Y104488D01*
X133009Y104627D01*
X133597Y104704D01*
X134270Y104983D01*
X134848Y105427D01*
X135292Y106005D01*
X135571Y106679D01*
X135666Y107402D01*
X135571Y108124D01*
X135292Y108798D01*
X134848Y109376D01*
X134270Y109820D01*
X133597Y110099D01*
X132874Y110194D01*
X132151Y110099D01*
X131478Y109820D01*
X131442Y109792D01*
X122111D01*
X119397Y112507D01*
X118806Y112901D01*
X118110Y113040D01*
X118110Y113040D01*
X115283D01*
X115164Y113195D01*
X114585Y113639D01*
X113912Y113918D01*
X113189Y114013D01*
D02*
G37*
G36*
X111516Y103150D02*
X105673D01*
Y100787D01*
X105751Y100397D01*
X105972Y100066D01*
X106303Y99845D01*
X106693Y99768D01*
X111516D01*
Y103150D01*
D02*
G37*
G36*
X120571Y41634D02*
X118272D01*
Y39764D01*
X118349Y39374D01*
X118570Y39043D01*
X118901Y38822D01*
X119291Y38744D01*
X120571D01*
Y41634D01*
D02*
G37*
G36*
X124248D02*
X121949D01*
Y38744D01*
X123228D01*
X123618Y38822D01*
X123949Y39043D01*
X124170Y39374D01*
X124248Y39764D01*
Y41634D01*
D02*
G37*
G36*
X139012D02*
X136713D01*
Y38744D01*
X137992D01*
X138382Y38822D01*
X138713Y39043D01*
X138934Y39374D01*
X139012Y39764D01*
Y41634D01*
D02*
G37*
G36*
X135335D02*
X133036D01*
Y39764D01*
X133113Y39374D01*
X133334Y39043D01*
X133665Y38822D01*
X134055Y38744D01*
X135335D01*
Y41634D01*
D02*
G37*
G36*
X57067Y33946D02*
X49587D01*
X49275Y33884D01*
X49010Y33707D01*
X48833Y33442D01*
X48822Y33388D01*
X35823D01*
X35813Y33442D01*
X35636Y33707D01*
X35371Y33884D01*
X35059Y33946D01*
X27579D01*
X27267Y33884D01*
X27002Y33707D01*
X26825Y33442D01*
X26763Y33130D01*
Y30610D01*
X26825Y30298D01*
X27002Y30033D01*
X27267Y29857D01*
X27579Y29795D01*
X28994D01*
Y27194D01*
X27953D01*
X27641Y27132D01*
X27376Y26955D01*
X27199Y26690D01*
X27137Y26378D01*
Y22441D01*
X27199Y22129D01*
X27376Y21864D01*
X27641Y21687D01*
X27953Y21625D01*
X33071D01*
X33383Y21687D01*
X33648Y21864D01*
X33824Y22129D01*
X33887Y22441D01*
Y26378D01*
X33824Y26690D01*
X33648Y26955D01*
X33383Y27132D01*
X33071Y27194D01*
X32030D01*
Y29795D01*
X35059D01*
X35371Y29857D01*
X35636Y30033D01*
X35813Y30298D01*
X35823Y30352D01*
X48822D01*
X48833Y30298D01*
X49010Y30033D01*
X49275Y29857D01*
X49587Y29795D01*
X57067D01*
X57379Y29857D01*
X57644Y30033D01*
X57820Y30298D01*
X57883Y30610D01*
Y33130D01*
X57820Y33442D01*
X57644Y33707D01*
X57379Y33884D01*
X57067Y33946D01*
D02*
G37*
G36*
X33071Y19917D02*
X31201D01*
Y17618D01*
X34090D01*
Y18898D01*
X34013Y19288D01*
X33792Y19619D01*
X33461Y19840D01*
X33071Y19917D01*
D02*
G37*
G36*
X29823D02*
X27953D01*
X27563Y19840D01*
X27232Y19619D01*
X27011Y19288D01*
X26933Y18898D01*
Y17618D01*
X29823D01*
Y19917D01*
D02*
G37*
G36*
X42757Y21158D02*
X42677Y21150D01*
X42597Y21158D01*
X41343Y21034D01*
X41266Y21011D01*
X41186Y21003D01*
X39980Y20637D01*
X39909Y20599D01*
X39832Y20576D01*
X38721Y19982D01*
X38659Y19931D01*
X38659Y19931D01*
X38659Y19931D01*
X38588Y19893D01*
X37614Y19094D01*
X37563Y19031D01*
X37563Y19031D01*
X37563Y19031D01*
X37501Y18981D01*
X36701Y18006D01*
X36663Y17935D01*
X36663Y17935D01*
X36612Y17873D01*
X36018Y16762D01*
X35995Y16685D01*
X35957Y16614D01*
X35592Y15408D01*
X35584Y15328D01*
X35560Y15251D01*
X35437Y13997D01*
X35441Y13957D01*
X35433Y13917D01*
X35441Y13878D01*
X35437Y13837D01*
X35560Y12583D01*
X35584Y12506D01*
X35592Y12426D01*
X35957Y11220D01*
X35995Y11150D01*
X36018Y11073D01*
X36613Y9961D01*
X36663Y9899D01*
X36663Y9899D01*
X36663Y9899D01*
X36701Y9828D01*
X37501Y8854D01*
X37563Y8803D01*
X37563Y8803D01*
X37563Y8803D01*
X37614Y8741D01*
X38588Y7942D01*
X38659Y7904D01*
X38659Y7904D01*
X38721Y7853D01*
X39832Y7259D01*
X39909Y7235D01*
X39980Y7198D01*
X41186Y6832D01*
X41266Y6824D01*
X41343Y6801D01*
X42597Y6677D01*
X42677Y6685D01*
X42757Y6677D01*
X44011Y6801D01*
X44088Y6824D01*
X44168Y6832D01*
X45374Y7198D01*
X45445Y7235D01*
X45522Y7259D01*
X46633Y7853D01*
X46695Y7904D01*
X46695Y7904D01*
X46695Y7904D01*
X46766Y7942D01*
X47740Y8741D01*
X47791Y8803D01*
X47791Y8803D01*
X47791Y8803D01*
X47853Y8854D01*
X48653Y9828D01*
X48691Y9899D01*
X48691Y9899D01*
X48742Y9961D01*
X49336Y11073D01*
X49359Y11150D01*
X49397Y11220D01*
X49763Y12426D01*
X49771Y12506D01*
X49794Y12583D01*
X49918Y13837D01*
X49913Y13878D01*
X49921Y13917D01*
X49913Y13957D01*
X49918Y13997D01*
X49794Y15251D01*
X49771Y15328D01*
X49763Y15408D01*
X49397Y16614D01*
X49359Y16685D01*
X49336Y16762D01*
X48742Y17873D01*
X48691Y17935D01*
X48691Y17935D01*
X48691Y17935D01*
X48653Y18006D01*
X47853Y18981D01*
X47791Y19031D01*
X47791Y19031D01*
X47791Y19031D01*
X47740Y19094D01*
X46766Y19893D01*
X46695Y19931D01*
X46695Y19931D01*
X46633Y19982D01*
X45522Y20576D01*
X45445Y20599D01*
X45374Y20637D01*
X44168Y21003D01*
X44088Y21011D01*
X44011Y21034D01*
X42757Y21158D01*
D02*
G37*
G36*
X120571Y45902D02*
X119291D01*
X118901Y45824D01*
X118570Y45603D01*
X118349Y45272D01*
X118272Y44882D01*
Y43012D01*
X120571D01*
Y45902D01*
D02*
G37*
G36*
X24838Y52461D02*
X22343D01*
Y48685D01*
X23819D01*
X24209Y48763D01*
X24540Y48984D01*
X24761Y49315D01*
X24838Y49705D01*
Y52461D01*
D02*
G37*
G36*
X20965D02*
X18469D01*
Y49705D01*
X18546Y49315D01*
X18767Y48984D01*
X19098Y48763D01*
X19488Y48685D01*
X20965D01*
Y52461D01*
D02*
G37*
G36*
X57067Y49150D02*
X54016D01*
Y47559D01*
X58087D01*
Y48130D01*
X58009Y48520D01*
X57788Y48851D01*
X57457Y49072D01*
X57067Y49150D01*
D02*
G37*
G36*
X62008Y47084D02*
X61285Y46989D01*
X60612Y46710D01*
X60033Y46266D01*
X59590Y45687D01*
X59311Y45014D01*
X59215Y44291D01*
X59245Y44069D01*
X58629Y43388D01*
X57831D01*
X57820Y43442D01*
X57644Y43707D01*
X57433Y43848D01*
X57402Y44112D01*
X57435Y44450D01*
X57475Y44680D01*
X57788Y44889D01*
X58009Y45220D01*
X58087Y45610D01*
Y46181D01*
X53327D01*
X48567D01*
Y45610D01*
X48645Y45220D01*
X48866Y44889D01*
X49179Y44680D01*
X49218Y44450D01*
X49252Y44112D01*
X49221Y43848D01*
X49010Y43707D01*
X48833Y43442D01*
X48822Y43388D01*
X35823D01*
X35813Y43442D01*
X35636Y43707D01*
X35425Y43848D01*
X35394Y44112D01*
X35427Y44450D01*
X35467Y44680D01*
X35780Y44889D01*
X36001Y45220D01*
X36079Y45610D01*
Y46181D01*
X31319D01*
X26559D01*
Y45610D01*
X26637Y45220D01*
X26858Y44889D01*
X27171Y44680D01*
X27210Y44450D01*
X27244Y44112D01*
X27213Y43848D01*
X27002Y43707D01*
X26825Y43442D01*
X26763Y43130D01*
Y40610D01*
X26825Y40298D01*
X27002Y40034D01*
X27267Y39857D01*
X27579Y39795D01*
X35059D01*
X35371Y39857D01*
X35636Y40034D01*
X35813Y40298D01*
X35823Y40352D01*
X48822D01*
X48833Y40298D01*
X49010Y40034D01*
X49275Y39857D01*
X49587Y39795D01*
X57067D01*
X57379Y39857D01*
X57644Y40034D01*
X57820Y40298D01*
X57831Y40352D01*
X59587D01*
X60168Y40468D01*
X60660Y40797D01*
X60926Y41062D01*
X60968Y41077D01*
X61106Y41038D01*
X61284Y40753D01*
X61472Y40106D01*
X61279Y39640D01*
X61184Y38917D01*
X60720Y38388D01*
X57831D01*
X57820Y38442D01*
X57644Y38707D01*
X57379Y38884D01*
X57067Y38946D01*
X49587D01*
X49275Y38884D01*
X49010Y38707D01*
X48833Y38442D01*
X48822Y38388D01*
X35823D01*
X35813Y38442D01*
X35636Y38707D01*
X35371Y38884D01*
X35059Y38946D01*
X27579D01*
X27267Y38884D01*
X27002Y38707D01*
X26825Y38442D01*
X26763Y38130D01*
Y35610D01*
X26825Y35298D01*
X27002Y35034D01*
X27267Y34857D01*
X27579Y34795D01*
X35059D01*
X35371Y34857D01*
X35636Y35034D01*
X35813Y35298D01*
X35823Y35352D01*
X48822D01*
X48833Y35298D01*
X49010Y35034D01*
X49275Y34857D01*
X49587Y34795D01*
X57067D01*
X57379Y34857D01*
X57644Y35034D01*
X57820Y35298D01*
X57831Y35352D01*
X61929D01*
X62510Y35467D01*
X63003Y35797D01*
X63406Y36200D01*
X63976Y36125D01*
X64699Y36220D01*
X65373Y36499D01*
X65951Y36943D01*
X66395Y37521D01*
X66674Y38195D01*
X66769Y38917D01*
X66674Y39640D01*
X66395Y40314D01*
X65951Y40892D01*
X65373Y41336D01*
X64699Y41615D01*
X64428Y41650D01*
X64275Y41879D01*
X64121Y42498D01*
X64426Y42895D01*
X64705Y43569D01*
X64800Y44291D01*
X64705Y45014D01*
X64426Y45687D01*
X63982Y46266D01*
X63404Y46710D01*
X62731Y46989D01*
X62008Y47084D01*
D02*
G37*
G36*
X123228Y45902D02*
X121949D01*
Y43012D01*
X124248D01*
Y44882D01*
X124170Y45272D01*
X123949Y45603D01*
X123618Y45824D01*
X123228Y45902D01*
D02*
G37*
G36*
X30630Y49150D02*
X27579D01*
X27189Y49072D01*
X26858Y48851D01*
X26637Y48520D01*
X26559Y48130D01*
Y47559D01*
X30630D01*
Y49150D01*
D02*
G37*
G36*
X35059D02*
X32008D01*
Y47559D01*
X36079D01*
Y48130D01*
X36001Y48520D01*
X35780Y48851D01*
X35449Y49072D01*
X35059Y49150D01*
D02*
G37*
G36*
X52638D02*
X49587D01*
X49196Y49072D01*
X48866Y48851D01*
X48645Y48520D01*
X48567Y48130D01*
Y47559D01*
X52638D01*
Y49150D01*
D02*
G37*
%LPD*%
D10*
X30512Y16929D02*
D03*
Y24409D02*
D03*
X73819Y70079D02*
D03*
Y77559D02*
D03*
D11*
X84646Y10827D02*
D03*
Y18701D02*
D03*
Y32854D02*
D03*
Y24980D02*
D03*
D12*
X89764Y0D02*
D03*
X97244D02*
D03*
X136024Y42323D02*
D03*
X143504D02*
D03*
X124213Y-4921D02*
D03*
X131693D02*
D03*
X136024Y-135827D02*
D03*
X143504D02*
D03*
X121260Y42323D02*
D03*
X128740D02*
D03*
X121260Y-135827D02*
D03*
X128740D02*
D03*
D16*
X57579Y158465D02*
D03*
X46752D02*
D03*
X66437D02*
D03*
X77264D02*
D03*
D17*
X112205Y74311D02*
D03*
Y63484D02*
D03*
Y103839D02*
D03*
Y93012D02*
D03*
Y-73327D02*
D03*
Y-84153D02*
D03*
Y-102854D02*
D03*
Y-113681D02*
D03*
D18*
X110236Y88583D02*
X114173D01*
X110236Y59055D02*
X114173D01*
X110236Y-88583D02*
X114173D01*
X110236Y-118110D02*
X114173D01*
X41339Y96555D02*
Y101378D01*
X41240Y96457D02*
X41339Y96555D01*
Y101378D02*
X49528D01*
X116142Y-168307D02*
X308976D01*
X314882Y-162402D01*
X345472Y-156496D02*
X368110Y-133858D01*
X314882Y-162402D02*
X320787Y-156496D01*
X345472D01*
X103347Y-157838D02*
Y-155512D01*
X98347Y-150512D02*
X103347Y-155512D01*
Y-163185D02*
X112221Y-172060D01*
X122847D01*
X124016Y-173228D01*
X109209Y-143701D02*
X113347Y-147838D01*
Y-155512D02*
Y-153185D01*
X108346Y-160512D02*
X113347Y-155512D01*
X53149Y-17717D02*
X66476D01*
X67677Y-18917D01*
X108346Y-160512D02*
X116142Y-168307D01*
X107283Y83661D02*
X116142D01*
X121929Y77874D01*
X114173Y88583D02*
Y91043D01*
X121929Y77874D02*
X125984D01*
X114173Y59055D02*
Y61516D01*
X112205Y63484D02*
X114173Y61516D01*
X110236Y61516D02*
X112205Y63484D01*
X110236Y59055D02*
Y61516D01*
X112205Y93012D02*
X114173Y91043D01*
X110236Y91043D02*
X112205Y93012D01*
X110236Y88583D02*
Y91043D01*
X368110Y-133858D02*
X376370D01*
X110236Y-115650D02*
X112205Y-113681D01*
X110236Y-118110D02*
Y-115650D01*
X112205Y-113681D02*
X114173Y-115650D01*
Y-118110D02*
Y-115650D01*
Y-88583D02*
Y-86122D01*
X112205Y-84153D02*
X114173Y-86122D01*
X110236Y-88583D02*
Y-86122D01*
X112205Y-84153D01*
D19*
X74810Y33457D02*
X84646D01*
Y10827D02*
X91909D01*
X92520Y93504D02*
X95472D01*
X91083Y92067D02*
X92520Y93504D01*
X91083Y84823D02*
Y92067D01*
X96909Y8681D02*
Y30689D01*
X97244Y984D02*
X98228Y0D01*
X101378D02*
X106909Y5531D01*
X98228Y0D02*
X101378D01*
X75787Y10827D02*
X84646D01*
X91909Y8681D02*
Y10827D01*
X142717Y-127953D02*
Y-126969D01*
Y-135039D02*
Y-127953D01*
X111831Y-12185D02*
X116949D01*
X110236Y-13780D02*
X111831Y-12185D01*
X110236Y-16732D02*
Y-13780D01*
Y-16732D02*
X110433D01*
X57972Y88681D02*
X62008D01*
X55276Y91378D02*
X57972Y88681D01*
X49528Y91378D02*
X55276D01*
X65847Y119980D02*
Y124016D01*
X62008Y112106D02*
Y116142D01*
X65847Y119980D01*
X42421Y114272D02*
Y124016D01*
X101909Y30689D02*
Y37402D01*
X91083Y56122D02*
Y62815D01*
X110256Y-27185D02*
X116949D01*
X120610Y-17185D02*
X124213Y-13583D01*
X116949Y-17185D02*
X120610D01*
X314724Y126969D02*
Y142717D01*
X106909Y5531D02*
Y8681D01*
X91909Y3130D02*
Y8681D01*
X89764Y984D02*
X91909Y3130D01*
X92520Y43307D02*
Y48917D01*
Y38917D02*
Y43307D01*
X75797Y43457D02*
X92369D01*
X92520Y43307D01*
X84646Y32854D02*
Y33457D01*
Y32854D02*
X89744D01*
X91909Y30689D01*
X106909Y8681D02*
Y30689D01*
X91909Y11811D02*
Y30689D01*
X101909Y8681D02*
Y30689D01*
X77677Y38917D02*
X84646D01*
X77677Y48917D02*
X84646D01*
X80709Y28917D02*
X84646Y24980D01*
X77677Y18917D02*
X83878D01*
X24606Y96457D02*
X42421Y114272D01*
X77940Y4737D02*
X84986Y-2309D01*
X66964Y4737D02*
X77940D01*
X63976Y7725D02*
X66964Y4737D01*
X17815Y96457D02*
X24606D01*
X103347Y-163185D02*
Y-157838D01*
X113347Y-153185D02*
Y-147838D01*
X84986Y-67294D02*
Y-2309D01*
X63976Y1969D02*
X76793D01*
X82217Y-3455D01*
Y-66147D02*
Y-3455D01*
X79724Y-68640D02*
X82217Y-66147D01*
X79724Y-101378D02*
Y-68640D01*
X74410Y-106693D02*
X79724Y-101378D01*
X82493Y-123216D02*
Y-69786D01*
X84986Y-67294D01*
X77677Y-66772D02*
Y-53917D01*
X67677Y-76772D02*
X77677Y-66772D01*
X74410Y-131299D02*
X82493Y-123216D01*
X81083Y90925D02*
X82677Y92520D01*
X81083Y84823D02*
Y90925D01*
X82677Y92520D02*
X86614D01*
Y77559D02*
X95886D01*
X73819D02*
X86614D01*
X86083Y78091D02*
X86614Y77559D01*
X96083Y77756D02*
Y84823D01*
Y62815D02*
Y77756D01*
X95886Y77559D02*
X96083Y77756D01*
X86083Y78091D02*
Y84823D01*
X96083D02*
X96083Y84823D01*
X113189Y111221D02*
X118110D01*
X121929Y107402D01*
X125984D01*
X142717Y42126D02*
Y50197D01*
X82480Y70079D02*
X86083Y66476D01*
X73819Y70079D02*
X82480D01*
X86083Y62815D02*
Y66476D01*
X81083Y56122D02*
Y62815D01*
X125861Y-30635D02*
X134311Y-22185D01*
X122421Y-27185D02*
X132421Y-17185D01*
X138957D01*
X388779Y-71850D02*
Y123031D01*
X376969Y134843D02*
X388779Y123031D01*
X363189Y134843D02*
X376969D01*
X355315Y142717D02*
X363189Y134843D01*
X344724Y142717D02*
X355315D01*
X383767Y-76863D02*
X388779Y-71850D01*
X357362Y-71929D02*
X369016D01*
X352362Y-66929D02*
X357362Y-71929D01*
X334646Y-66929D02*
X352362D01*
X329646Y-71929D02*
X334646Y-66929D01*
X357283D02*
X374016D01*
X352284Y-61929D02*
X357283Y-66929D01*
X339646Y-61929D02*
X352284D01*
X374016Y-66929D02*
X379016Y-61929D01*
X57087Y-44291D02*
X77303D01*
X77677Y-43917D01*
X57087Y-26575D02*
X59429Y-28917D01*
X67677D01*
Y-59055D02*
Y-48917D01*
X334658Y-51929D02*
X339646D01*
X334579Y-52008D02*
X334658Y-51929D01*
X334579Y-53973D02*
Y-52008D01*
X331689Y-56863D02*
X334579Y-53973D01*
X322166Y-56863D02*
X331689D01*
X369016Y-81929D02*
X370827D01*
X375893Y-76863D01*
X383767D01*
X132264Y-12185D02*
X138957D01*
X128629Y-37056D02*
X132264Y-33422D01*
Y-30886D01*
X134311Y-22185D02*
X138957D01*
X125861Y-69640D02*
Y-30635D01*
Y-69640D02*
X125984Y-69764D01*
X128629Y-55795D02*
Y-37056D01*
Y-55795D02*
X136011Y-63176D01*
X110256Y-22185D02*
X116949D01*
X77677Y28917D02*
X80709D01*
X116949Y-27185D02*
X122421D01*
X131957Y-17185D02*
X132421D01*
X128511Y-13739D02*
X131957Y-17185D01*
X128511Y-13739D02*
Y-8103D01*
X131693Y-4921D01*
X138957Y-27185D02*
X144075D01*
X145669Y-25591D01*
X138957Y-17185D02*
X144153D01*
X145669Y-18701D01*
Y-25591D02*
Y-18701D01*
X124213Y-13583D02*
Y-4921D01*
D20*
X53327Y41870D02*
X59587D01*
X31319D02*
X53327D01*
X30512Y31063D02*
X31319Y31870D01*
X30512Y24409D02*
Y31063D01*
X31319Y31870D02*
X53327D01*
X59587Y41870D02*
X62008Y44291D01*
X53327Y36870D02*
X61929D01*
X63976Y38917D01*
X63524D02*
X63976D01*
X31319Y36870D02*
X53327D01*
D21*
X19685Y-157480D02*
X35433Y-173228D01*
X9843Y66929D02*
X24764D01*
X9843Y-5906D02*
X24764D01*
X9843Y5905D02*
X24764D01*
X152362Y-76968D02*
Y-61024D01*
X142717Y-116142D02*
X150591Y-108268D01*
X142717Y-126969D02*
Y-116142D01*
X71850Y106299D02*
Y128937D01*
X72008Y147638D02*
X77264Y152894D01*
X68898Y103347D02*
X71850Y106299D01*
X68898Y97441D02*
Y103347D01*
Y97441D02*
X72008Y94331D01*
Y79370D02*
Y94331D01*
X67913Y74803D02*
X72008Y78898D01*
Y79370D01*
X73819Y77559D01*
X77264Y152894D02*
Y157480D01*
X66437Y152067D02*
Y157480D01*
X62008Y147638D02*
X66437Y152067D01*
X57926Y151720D02*
X62008Y147638D01*
X57926Y151720D02*
Y157133D01*
X57579Y157480D02*
X57926Y157133D01*
X46752Y152894D02*
X52008Y147638D01*
X46752Y152894D02*
Y157480D01*
X152362Y100197D02*
Y116142D01*
X135827Y125000D02*
X140945Y119882D01*
X35433Y-173228D02*
X85630D01*
X98347Y-160512D01*
X142717Y61024D02*
X150591Y68898D01*
X142717Y50197D02*
Y61024D01*
X150591Y98425D02*
X152362Y100197D01*
X135827Y136811D02*
X139961Y140945D01*
X146851D01*
X140945Y116142D02*
Y119882D01*
Y-61024D02*
Y-57284D01*
X135827Y-52165D02*
X140945Y-57284D01*
X135827Y-40354D02*
X139961Y-36220D01*
X146851D01*
X150591Y-78740D02*
X152362Y-76968D01*
X9843Y-66929D02*
X24685D01*
D22*
X275591Y6890D02*
X368110D01*
X242126Y40354D02*
X275591Y6890D01*
X189372Y40354D02*
X242126D01*
X238189Y-95472D02*
X320775D01*
X228346Y-105315D02*
X238189Y-95472D01*
X228346Y-114960D02*
Y-105315D01*
X220275Y-123031D02*
X228346Y-114960D01*
X242126Y-40354D02*
X275590Y-6890D01*
X236221Y95473D02*
X320775D01*
X228346Y103347D02*
X236221Y95473D01*
X228346Y103347D02*
Y114960D01*
X220275Y123031D02*
X228346Y114960D01*
X235825Y126969D02*
X314724D01*
X225982Y136811D02*
X235825Y126969D01*
X314961D02*
X342520D01*
X209447Y136811D02*
X225982D01*
X352362Y-128937D02*
X360499Y-120800D01*
X233856Y-128937D02*
X352362D01*
X360499Y-120800D02*
X373294D01*
X225982Y-136811D02*
X233856Y-128937D01*
X373294Y-120800D02*
X379016Y-115079D01*
Y-91929D02*
Y-83569D01*
Y-101929D02*
Y-91929D01*
Y-111929D02*
Y-101929D01*
Y-115079D02*
Y-111929D01*
X275590Y-6890D02*
X368110D01*
X209447Y-40354D02*
X242126D01*
X166339Y140945D02*
X187008Y120276D01*
Y62206D02*
Y120276D01*
Y62206D02*
X195080Y54134D01*
X156595Y131201D02*
X173228Y114568D01*
Y56498D02*
Y114568D01*
Y56498D02*
X189372Y40354D01*
X176082Y150689D02*
X203739Y123031D01*
X220275D01*
X185826Y160432D02*
X209447Y136811D01*
X185826Y-16733D02*
X209447Y-40354D01*
X176082Y-26477D02*
X203739Y-54134D01*
X195080Y-123031D02*
X220275D01*
X189372Y-136811D02*
X225982D01*
X173228Y-120667D02*
X189372Y-136811D01*
X173228Y-120667D02*
Y-62597D01*
X156595Y-45964D02*
X173228Y-62597D01*
X187008Y-114960D02*
X195080Y-123031D01*
X187008Y-114960D02*
Y-56890D01*
X166339Y-36220D02*
X187008Y-56890D01*
X379016Y17795D02*
Y21929D01*
Y31929D01*
Y41929D01*
Y50197D01*
X368110Y6890D02*
X379016Y17795D01*
X368110Y-6890D02*
X379016Y-17795D01*
Y-50197D02*
Y-41929D01*
Y-31929D01*
Y-21929D01*
Y-17795D01*
X203739Y-54134D02*
X320866D01*
X379016Y81929D02*
Y91929D01*
Y101929D01*
Y111929D01*
Y116319D01*
X371319Y124016D02*
X379016Y116319D01*
X342520Y126969D02*
X345472Y124016D01*
X371319D01*
X195080Y54134D02*
X318806D01*
X320775Y52165D01*
D23*
X140748Y-87598D02*
X149606Y-78740D01*
X128740Y-130118D02*
X136135Y-122724D01*
X128740Y-134843D02*
Y-130118D01*
X140748Y89567D02*
X149606Y98425D01*
X128740Y47047D02*
X136135Y54442D01*
X128740Y42323D02*
Y47047D01*
X149606Y98425D02*
X150591D01*
X138779Y85630D02*
Y87598D01*
X140748Y89567D01*
X136135Y82985D02*
X138779Y85630D01*
X136135Y54442D02*
Y82985D01*
X149606Y-78740D02*
X150591D01*
X136011Y-63176D02*
X136135Y-63300D01*
Y-89933D02*
Y-63300D01*
X132874Y-93194D02*
X136135Y-89933D01*
X132874Y-99291D02*
Y-93194D01*
X136135Y-122724D02*
Y-94180D01*
X138779Y-91535D01*
Y-89567D01*
X140748Y-87598D01*
D29*
X0Y-177165D02*
X393701D01*
X0D02*
Y177165D01*
X393701Y-177165D02*
Y177165D01*
X0D02*
X393701D01*
D30*
X98425Y-24685D02*
D03*
Y-14685D02*
D03*
X324882Y-162402D02*
D03*
X314882D02*
D03*
D31*
X154528D02*
D03*
X54134Y-130905D02*
D03*
X167323Y-162402D02*
D03*
X131890Y50197D02*
D03*
X121063Y50197D02*
D03*
X142717Y50197D02*
D03*
X142717Y-127953D02*
D03*
X131890D02*
D03*
X121063D02*
D03*
D32*
X72008Y147638D02*
D03*
X62008D02*
D03*
X128347Y-150512D02*
D03*
Y-160512D02*
D03*
X118347Y-150512D02*
D03*
Y-160512D02*
D03*
X108346Y-150512D02*
D03*
Y-160512D02*
D03*
X98347Y-150512D02*
D03*
Y-160512D02*
D03*
X88346Y-150512D02*
D03*
Y-160512D02*
D03*
X78347Y-150512D02*
D03*
Y-160512D02*
D03*
X68347Y-150512D02*
D03*
Y-160512D02*
D03*
X58346Y-150512D02*
D03*
X379016Y111929D02*
D03*
X369016Y101929D02*
D03*
X379016D02*
D03*
X369016Y91929D02*
D03*
X379016D02*
D03*
X369016Y81929D02*
D03*
X379016D02*
D03*
X369016Y71929D02*
D03*
X379016D02*
D03*
X369016Y61929D02*
D03*
X379016D02*
D03*
X369016Y51929D02*
D03*
X379016D02*
D03*
X369016Y41929D02*
D03*
X379016D02*
D03*
X369016Y31929D02*
D03*
X379016D02*
D03*
X369016Y21929D02*
D03*
X379016D02*
D03*
X339646Y111929D02*
D03*
X329646Y101929D02*
D03*
X339646D02*
D03*
X329646Y91929D02*
D03*
X339646D02*
D03*
X329646Y81929D02*
D03*
X339646D02*
D03*
X329646Y71929D02*
D03*
X339646D02*
D03*
X329646Y61929D02*
D03*
X339646D02*
D03*
X329646Y51929D02*
D03*
X339646D02*
D03*
X329646Y41929D02*
D03*
X339646D02*
D03*
X329646Y31929D02*
D03*
X339646D02*
D03*
X329646Y21929D02*
D03*
X339646D02*
D03*
X369016Y-111929D02*
D03*
X379016Y-101929D02*
D03*
X369016D02*
D03*
X379016Y-91929D02*
D03*
X369016D02*
D03*
X379016Y-81929D02*
D03*
X369016D02*
D03*
X379016Y-71929D02*
D03*
X369016D02*
D03*
X379016Y-61929D02*
D03*
X369016D02*
D03*
X379016Y-51929D02*
D03*
X369016D02*
D03*
X379016Y-41929D02*
D03*
X369016D02*
D03*
X379016Y-31929D02*
D03*
X369016D02*
D03*
X379016Y-21929D02*
D03*
X369016D02*
D03*
X329646Y-111929D02*
D03*
X339646Y-101929D02*
D03*
X329646D02*
D03*
X339646Y-91929D02*
D03*
X329646D02*
D03*
X339646Y-81929D02*
D03*
X329646D02*
D03*
X339646Y-71929D02*
D03*
X329646D02*
D03*
X339646Y-61929D02*
D03*
X329646D02*
D03*
X339646Y-51929D02*
D03*
X329646D02*
D03*
X339646Y-41929D02*
D03*
X329646D02*
D03*
X339646Y-31929D02*
D03*
X329646D02*
D03*
X339646Y-21929D02*
D03*
X329646D02*
D03*
D33*
X52008Y147638D02*
D03*
X58346Y-160512D02*
D03*
D34*
X95472Y100394D02*
D03*
X75787D02*
D03*
X113189Y161417D02*
D03*
Y141732D02*
D03*
X132874Y9843D02*
D03*
X152559D02*
D03*
D35*
X294291Y-33465D02*
D03*
X253937Y-73819D02*
D03*
Y73819D02*
D03*
X294291Y33465D02*
D03*
X246063Y-111221D02*
D03*
X286417Y-151575D02*
D03*
Y151575D02*
D03*
X246063Y111221D02*
D03*
D36*
X17717Y-93347D02*
D03*
Y-113347D02*
D03*
X49528Y101378D02*
D03*
Y91378D02*
D03*
D37*
X42677Y13917D02*
D03*
Y58917D02*
D03*
Y-58917D02*
D03*
Y-13917D02*
D03*
D38*
X24685Y5905D02*
D03*
Y66929D02*
D03*
Y-66929D02*
D03*
Y-5905D02*
D03*
D39*
X77677Y18917D02*
D03*
X67677Y23917D02*
D03*
X77677Y28917D02*
D03*
X67677Y33917D02*
D03*
X77677Y38917D02*
D03*
X67677Y43917D02*
D03*
X77677Y48917D02*
D03*
Y-53917D02*
D03*
X67677Y-48917D02*
D03*
X77677Y-43917D02*
D03*
X67677Y-38917D02*
D03*
X77677Y-33917D02*
D03*
X67677Y-28917D02*
D03*
X77677Y-23917D02*
D03*
D40*
X67677Y53917D02*
D03*
Y-18917D02*
D03*
D41*
X29528Y81378D02*
D03*
Y121378D02*
D03*
D42*
X176082Y170176D02*
D03*
X185826Y160432D02*
D03*
X166339D02*
D03*
X176082Y150689D02*
D03*
X156595Y150689D02*
D03*
X166339Y140945D02*
D03*
X146851D02*
D03*
X156595Y131201D02*
D03*
X200787Y67913D02*
D03*
X214567D02*
D03*
X200787Y81693D02*
D03*
X214567D02*
D03*
X200787Y95472D02*
D03*
X214567D02*
D03*
X200787Y109252D02*
D03*
X214567D02*
D03*
X176082Y-6990D02*
D03*
X185826Y-16733D02*
D03*
X166339D02*
D03*
X176082Y-26477D02*
D03*
X156595Y-26477D02*
D03*
X166339Y-36220D02*
D03*
X146851D02*
D03*
X156595Y-45964D02*
D03*
X200787Y-109252D02*
D03*
X214567D02*
D03*
X200787Y-95472D02*
D03*
X214567D02*
D03*
X200787Y-81693D02*
D03*
X214567D02*
D03*
X200787Y-67913D02*
D03*
X214567D02*
D03*
D43*
X29528Y-101378D02*
D03*
D44*
X42323Y-120276D02*
D03*
D45*
X54134Y-101378D02*
D03*
D46*
X314724Y142717D02*
D03*
X329724D02*
D03*
D47*
X344724D02*
D03*
D48*
X369016Y111929D02*
D03*
X329646D02*
D03*
X379016Y-111929D02*
D03*
X339646D02*
D03*
D49*
X19685Y-157480D02*
D03*
Y157480D02*
D03*
X374016Y157480D02*
D03*
Y-157480D02*
D03*
D50*
X95472Y93504D02*
D03*
X110236Y-16732D02*
D03*
X71850Y128937D02*
D03*
X67913Y74803D02*
D03*
X101909Y37402D02*
D03*
X91083Y56122D02*
D03*
X110256Y-27185D02*
D03*
X62008Y44291D02*
D03*
X63976Y38917D02*
D03*
X96457Y18917D02*
D03*
X24606Y96457D02*
D03*
X124016Y-173228D02*
D03*
X109209Y-143701D02*
D03*
X63976Y7725D02*
D03*
Y1969D02*
D03*
X53149Y-17717D02*
D03*
X107283Y83661D02*
D03*
X114173Y88583D02*
D03*
X86614Y92520D02*
D03*
X113189Y111221D02*
D03*
X114173Y59055D02*
D03*
X110236D02*
D03*
Y88583D02*
D03*
X132874Y94803D02*
D03*
Y107402D02*
D03*
Y65276D02*
D03*
Y88583D02*
D03*
Y59055D02*
D03*
X81083Y56122D02*
D03*
X132874Y77874D02*
D03*
X74410Y-106693D02*
D03*
Y-131299D02*
D03*
X12795Y145547D02*
D03*
X5906Y157480D02*
D03*
X7752Y150591D02*
D03*
Y164370D02*
D03*
X19685Y171260D02*
D03*
X12795Y169414D02*
D03*
X26575D02*
D03*
X33465Y157480D02*
D03*
X31618Y164370D02*
D03*
X26575Y145547D02*
D03*
X19685Y143701D02*
D03*
X31618Y150591D02*
D03*
X12795Y-169414D02*
D03*
X5906Y-157480D02*
D03*
X7752Y-164370D02*
D03*
Y-150591D02*
D03*
X19685Y-143701D02*
D03*
X12795Y-145547D02*
D03*
X26575D02*
D03*
X33465Y-157480D02*
D03*
X31618Y-150591D02*
D03*
X26575Y-169414D02*
D03*
X19685Y-171260D02*
D03*
X31618Y-164370D02*
D03*
X367126Y-169414D02*
D03*
X360236Y-157480D02*
D03*
X362082Y-164370D02*
D03*
Y-150591D02*
D03*
X374016Y-143701D02*
D03*
X367126Y-145547D02*
D03*
X380906D02*
D03*
X387795Y-157480D02*
D03*
X385949Y-150591D02*
D03*
X380906Y-169414D02*
D03*
X374016Y-171260D02*
D03*
X385949Y-164370D02*
D03*
X367126Y145547D02*
D03*
X360236Y157480D02*
D03*
X362082Y150591D02*
D03*
Y164370D02*
D03*
X374016Y171260D02*
D03*
X367126Y169414D02*
D03*
X380906D02*
D03*
X387795Y157480D02*
D03*
X385949Y164370D02*
D03*
X380906Y145547D02*
D03*
X374016Y143701D02*
D03*
X385949Y150591D02*
D03*
X376370Y-133858D02*
D03*
X132874Y-99291D02*
D03*
X110236Y-118110D02*
D03*
X114173D02*
D03*
Y-88583D02*
D03*
X110236D02*
D03*
X132264Y-12185D02*
D03*
X132874Y-111890D02*
D03*
Y-118110D02*
D03*
Y-88583D02*
D03*
Y-82362D02*
D03*
Y-69764D02*
D03*
X132264Y-30886D02*
D03*
X110256Y-22185D02*
D03*
D51*
X140748Y60039D02*
D03*
X147310D02*
D03*
X153871D02*
D03*
X160433Y60039D02*
D03*
Y65945D02*
D03*
X153871D02*
D03*
X147310D02*
D03*
X140748D02*
D03*
X160433Y71850D02*
D03*
X153871D02*
D03*
X147310D02*
D03*
X140748D02*
D03*
X160433Y77756D02*
D03*
X153871D02*
D03*
X147310D02*
D03*
X140748D02*
D03*
X147310Y-117126D02*
D03*
X153871D02*
D03*
X160433Y-117126D02*
D03*
Y-111221D02*
D03*
X153871D02*
D03*
X147310D02*
D03*
X160433Y-105315D02*
D03*
X153871D02*
D03*
X147310D02*
D03*
X140748D02*
D03*
X160433Y-99409D02*
D03*
X153871D02*
D03*
X147310D02*
D03*
X140748D02*
D03*
Y-117126D02*
D03*
Y-111221D02*
D03*
Y89567D02*
D03*
X147310D02*
D03*
X153871D02*
D03*
X160433Y89567D02*
D03*
Y95473D02*
D03*
X153871D02*
D03*
X147310D02*
D03*
X140748D02*
D03*
X160433Y101378D02*
D03*
X153871D02*
D03*
X147310D02*
D03*
X140748D02*
D03*
X160433Y107283D02*
D03*
X153871D02*
D03*
X147310D02*
D03*
X140748D02*
D03*
X147310Y-87598D02*
D03*
X153871D02*
D03*
X160433Y-87598D02*
D03*
Y-81693D02*
D03*
X153871D02*
D03*
X147310D02*
D03*
X140748D02*
D03*
X160433Y-75787D02*
D03*
X153871D02*
D03*
X147310D02*
D03*
X140748D02*
D03*
X160433Y-69882D02*
D03*
X153871D02*
D03*
X147310D02*
D03*
X140748D02*
D03*
Y-87598D02*
D03*
D52*
X9843Y53150D02*
D03*
X21654D02*
D03*
X9843Y-130905D02*
D03*
X21654D02*
D03*
D53*
X106909Y8681D02*
D03*
X101909D02*
D03*
X96909D02*
D03*
X91909D02*
D03*
X106909Y30689D02*
D03*
X101909D02*
D03*
X96909D02*
D03*
X91909D02*
D03*
X96083Y62815D02*
D03*
X91083D02*
D03*
X86083D02*
D03*
X81083D02*
D03*
X96083Y84823D02*
D03*
X91083D02*
D03*
X86083D02*
D03*
X81083D02*
D03*
D54*
X31319Y31870D02*
D03*
Y36870D02*
D03*
Y41870D02*
D03*
Y46870D02*
D03*
X53327Y31870D02*
D03*
Y36870D02*
D03*
Y41870D02*
D03*
Y46870D02*
D03*
X116949Y-27185D02*
D03*
Y-22185D02*
D03*
Y-17185D02*
D03*
Y-12185D02*
D03*
X138957Y-27185D02*
D03*
Y-22185D02*
D03*
Y-17185D02*
D03*
Y-12185D02*
D03*
D55*
X92520Y38917D02*
D03*
X84646D02*
D03*
X92520Y48917D02*
D03*
X84646D02*
D03*
D56*
X135827Y136811D02*
D03*
Y125000D02*
D03*
Y-40354D02*
D03*
Y-52165D02*
D03*
D57*
X62008Y88681D02*
D03*
Y112106D02*
D03*
D58*
X16831Y96457D02*
D03*
X40256D02*
D03*
X65847Y124016D02*
D03*
X42421D02*
D03*
D59*
X125984Y59921D02*
D03*
Y64410D02*
D03*
Y73386D02*
D03*
Y77874D02*
D03*
Y-117244D02*
D03*
Y-112756D02*
D03*
Y-103779D02*
D03*
Y-99291D02*
D03*
Y89449D02*
D03*
Y93937D02*
D03*
Y102913D02*
D03*
Y107402D02*
D03*
Y-87717D02*
D03*
Y-83228D02*
D03*
Y-74252D02*
D03*
Y-69764D02*
D03*
D60*
X150591Y68898D02*
D03*
Y-108268D02*
D03*
Y98425D02*
D03*
Y-78740D02*
D03*
D61*
X152362Y116142D02*
D03*
X140945D02*
D03*
X152362Y-61024D02*
D03*
X140945D02*
D03*
D62*
X57087Y-26575D02*
D03*
Y-44291D02*
D03*
X67677Y-59055D02*
D03*
Y-76772D02*
D03*
M02*
