G04 Layer_Color=128*
%FSLAX25Y25*%
%MOIN*%
G70*
G01*
G75*
%ADD29C,0.00394*%
%ADD111C,0.00200*%
D29*
X0Y-177165D02*
X393701D01*
X0D02*
Y177165D01*
X393701Y-177165D02*
Y177165D01*
X0D02*
X393701D01*
D111*
X96675Y-24685D02*
X100175D01*
X98425Y-26435D02*
Y-22935D01*
X96675Y-14685D02*
X100175D01*
X98425Y-16435D02*
Y-12935D01*
X152528Y-162402D02*
X156528D01*
X154528Y-164402D02*
Y-160402D01*
X70039Y147638D02*
X73976D01*
X72008Y145669D02*
Y149606D01*
X60039Y147638D02*
X63976D01*
X62008Y145669D02*
Y149606D01*
X50039Y147638D02*
X53976D01*
X52008Y145669D02*
Y149606D01*
X323132Y-162402D02*
X326632D01*
X324882Y-164152D02*
Y-160652D01*
X313132Y-162402D02*
X316632D01*
X314882Y-164152D02*
Y-160652D01*
X52134Y-130905D02*
X56134D01*
X54134Y-132905D02*
Y-128905D01*
X165323Y-162402D02*
X169323D01*
X167323Y-164402D02*
Y-160402D01*
X94095Y100394D02*
X96850D01*
X95472Y99016D02*
Y101772D01*
X74410Y100394D02*
X77165D01*
X75787Y99016D02*
Y101772D01*
X286417Y-33465D02*
X302165D01*
X294291Y-41339D02*
Y-25591D01*
X246063Y-73819D02*
X261811D01*
X253937Y-81693D02*
Y-65945D01*
X246063Y73819D02*
X261811D01*
X253937Y65945D02*
Y81693D01*
X286417Y33465D02*
X302165D01*
X294291Y25591D02*
Y41339D01*
X238189Y-111221D02*
X253937D01*
X246063Y-119095D02*
Y-103347D01*
X278543Y-151575D02*
X294291D01*
X286417Y-159449D02*
Y-143701D01*
X278543Y151575D02*
X294291D01*
X286417Y143701D02*
Y159449D01*
X238189Y111221D02*
X253937D01*
X246063Y103347D02*
Y119095D01*
X111811Y161417D02*
X114567D01*
X113189Y160039D02*
Y162795D01*
X111811Y141732D02*
X114567D01*
X113189Y140354D02*
Y143110D01*
X131496Y9843D02*
X134252D01*
X132874Y8465D02*
Y11220D01*
X151181Y9843D02*
X153937D01*
X152559Y8465D02*
Y11220D01*
X129890Y50197D02*
X133890D01*
X131890Y48197D02*
Y52197D01*
X119063Y50197D02*
X123063D01*
X121063Y48197D02*
Y52197D01*
X140717Y50197D02*
X144717D01*
X142717Y48197D02*
Y52197D01*
X15354Y-93347D02*
X20079D01*
X17717Y-95709D02*
Y-90984D01*
X15354Y-113347D02*
X20079D01*
X17717Y-115709D02*
Y-110984D01*
X36279Y13917D02*
X49075D01*
X42677Y7520D02*
Y20315D01*
X36279Y58917D02*
X49075D01*
X42677Y52520D02*
Y65315D01*
X21535Y5905D02*
X27835D01*
X24685Y2756D02*
Y9055D01*
X21535Y66929D02*
X27835D01*
X24685Y63780D02*
Y70079D01*
X75905Y18917D02*
X79449D01*
X77677Y17146D02*
Y20689D01*
X65905Y23917D02*
X69449D01*
X67677Y22146D02*
Y25689D01*
X75905Y28917D02*
X79449D01*
X77677Y27146D02*
Y30689D01*
X65905Y33917D02*
X69449D01*
X67677Y32146D02*
Y35689D01*
X75905Y38917D02*
X79449D01*
X77677Y37146D02*
Y40689D01*
X65905Y43917D02*
X69449D01*
X67677Y42146D02*
Y45689D01*
X75905Y48917D02*
X79449D01*
X77677Y47146D02*
Y50689D01*
X65905Y53917D02*
X69449D01*
X67677Y52146D02*
Y55689D01*
X25394Y81378D02*
X33661D01*
X29528Y77244D02*
Y85512D01*
X47559Y101378D02*
X51496D01*
X49528Y99410D02*
Y103347D01*
X25394Y121378D02*
X33661D01*
X29528Y117244D02*
Y125512D01*
X47559Y91378D02*
X51496D01*
X49528Y89410D02*
Y93347D01*
X140717Y-127953D02*
X144717D01*
X142717Y-129953D02*
Y-125953D01*
X129890Y-127953D02*
X133890D01*
X131890Y-129953D02*
Y-125953D01*
X119063Y-127953D02*
X123063D01*
X121063Y-129953D02*
Y-125953D01*
X126181Y-150512D02*
X130512D01*
X128347Y-152677D02*
Y-148346D01*
X126181Y-160512D02*
X130512D01*
X128347Y-162677D02*
Y-158346D01*
X116181Y-150512D02*
X120512D01*
X118347Y-152677D02*
Y-148346D01*
X116181Y-160512D02*
X120512D01*
X118347Y-162677D02*
Y-158346D01*
X106181Y-150512D02*
X110512D01*
X108346Y-152677D02*
Y-148346D01*
X106181Y-160512D02*
X110512D01*
X108346Y-162677D02*
Y-158346D01*
X96181Y-150512D02*
X100512D01*
X98347Y-152677D02*
Y-148346D01*
X96181Y-160512D02*
X100512D01*
X98347Y-162677D02*
Y-158346D01*
X86181Y-150512D02*
X90512D01*
X88346Y-152677D02*
Y-148346D01*
X86181Y-160512D02*
X90512D01*
X88346Y-162677D02*
Y-158346D01*
X76181Y-150512D02*
X80512D01*
X78347Y-152677D02*
Y-148346D01*
X76181Y-160512D02*
X80512D01*
X78347Y-162677D02*
Y-158346D01*
X66181Y-150512D02*
X70512D01*
X68347Y-152677D02*
Y-148346D01*
X66181Y-160512D02*
X70512D01*
X68347Y-162677D02*
Y-158346D01*
X56181Y-150512D02*
X60512D01*
X58346Y-152677D02*
Y-148346D01*
X56181Y-160512D02*
X60512D01*
X58346Y-162677D02*
Y-158346D01*
X173129Y170176D02*
X179035D01*
X176082Y167223D02*
Y173128D01*
X183857Y160432D02*
X187794D01*
X185826Y158464D02*
Y162401D01*
X163386Y160432D02*
X169291D01*
X166339Y157479D02*
Y163385D01*
X174114Y150689D02*
X178051D01*
X176082Y148720D02*
Y152657D01*
X153642Y150689D02*
X159548D01*
X156595Y147736D02*
Y153641D01*
X164370Y140945D02*
X168307D01*
X166339Y138976D02*
Y142913D01*
X143899Y140945D02*
X149804D01*
X146851Y137992D02*
Y143898D01*
X154627Y131201D02*
X158563D01*
X156595Y129233D02*
Y133170D01*
X197835Y67913D02*
X203740D01*
X200787Y64961D02*
Y70866D01*
X212598Y67913D02*
X216535D01*
X214567Y65945D02*
Y69882D01*
X197835Y81693D02*
X203740D01*
X200787Y78740D02*
Y84646D01*
X212598Y81693D02*
X216535D01*
X214567Y79724D02*
Y83661D01*
X197835Y95472D02*
X203740D01*
X200787Y92520D02*
Y98425D01*
X212598Y95472D02*
X216535D01*
X214567Y93504D02*
Y97441D01*
X197835Y109252D02*
X203740D01*
X200787Y106299D02*
Y112205D01*
X212598Y109252D02*
X216535D01*
X214567Y107283D02*
Y111221D01*
X173129Y-6990D02*
X179035D01*
X176082Y-9942D02*
Y-4037D01*
X183857Y-16733D02*
X187794D01*
X185826Y-18702D02*
Y-14765D01*
X163386Y-16733D02*
X169291D01*
X166339Y-19686D02*
Y-13780D01*
X174114Y-26477D02*
X178051D01*
X176082Y-28445D02*
Y-24508D01*
X153642Y-26477D02*
X159548D01*
X156595Y-29430D02*
Y-23524D01*
X164370Y-36220D02*
X168307D01*
X166339Y-38189D02*
Y-34252D01*
X143899Y-36220D02*
X149804D01*
X146851Y-39173D02*
Y-33268D01*
X154627Y-45964D02*
X158563D01*
X156595Y-47933D02*
Y-43996D01*
X197835Y-109252D02*
X203740D01*
X200787Y-112205D02*
Y-106299D01*
X212598Y-109252D02*
X216535D01*
X214567Y-111221D02*
Y-107283D01*
X197835Y-95472D02*
X203740D01*
X200787Y-98425D02*
Y-92520D01*
X212598Y-95472D02*
X216535D01*
X214567Y-97441D02*
Y-93504D01*
X197835Y-81693D02*
X203740D01*
X200787Y-84646D02*
Y-78740D01*
X212598Y-81693D02*
X216535D01*
X214567Y-83661D02*
Y-79724D01*
X197835Y-67913D02*
X203740D01*
X200787Y-70866D02*
Y-64961D01*
X212598Y-67913D02*
X216535D01*
X214567Y-69882D02*
Y-65945D01*
X27559Y-101378D02*
X31496D01*
X29528Y-103347D02*
Y-99410D01*
X40354Y-120276D02*
X44291D01*
X42323Y-122244D02*
Y-118307D01*
X52165Y-101378D02*
X56102D01*
X54134Y-103347D02*
Y-99410D01*
X311968Y142717D02*
X317480D01*
X314724Y139961D02*
Y145472D01*
X326969Y142717D02*
X332480D01*
X329724Y139961D02*
Y145472D01*
X341968Y142717D02*
X347480D01*
X344724Y139961D02*
Y145472D01*
X366850Y111929D02*
X371181D01*
X369016Y109764D02*
Y114094D01*
X376850Y111929D02*
X381181D01*
X379016Y109764D02*
Y114094D01*
X366850Y101929D02*
X371181D01*
X369016Y99764D02*
Y104095D01*
X376850Y101929D02*
X381181D01*
X379016Y99764D02*
Y104095D01*
X366850Y91929D02*
X371181D01*
X369016Y89764D02*
Y94095D01*
X376850Y91929D02*
X381181D01*
X379016Y89764D02*
Y94095D01*
X366850Y81929D02*
X371181D01*
X369016Y79764D02*
Y84095D01*
X376850Y81929D02*
X381181D01*
X379016Y79764D02*
Y84095D01*
X366850Y71929D02*
X371181D01*
X369016Y69764D02*
Y74094D01*
X376850Y71929D02*
X381181D01*
X379016Y69764D02*
Y74094D01*
X366850Y61929D02*
X371181D01*
X369016Y59764D02*
Y64095D01*
X376850Y61929D02*
X381181D01*
X379016Y59764D02*
Y64095D01*
X366850Y51929D02*
X371181D01*
X369016Y49764D02*
Y54094D01*
X376850Y51929D02*
X381181D01*
X379016Y49764D02*
Y54094D01*
X366850Y41929D02*
X371181D01*
X369016Y39764D02*
Y44094D01*
X376850Y41929D02*
X381181D01*
X379016Y39764D02*
Y44094D01*
X366850Y31929D02*
X371181D01*
X369016Y29764D02*
Y34095D01*
X376850Y31929D02*
X381181D01*
X379016Y29764D02*
Y34095D01*
X366850Y21929D02*
X371181D01*
X369016Y19764D02*
Y24094D01*
X376850Y21929D02*
X381181D01*
X379016Y19764D02*
Y24094D01*
X327480Y111929D02*
X331811D01*
X329646Y109764D02*
Y114094D01*
X337480Y111929D02*
X341811D01*
X339646Y109764D02*
Y114094D01*
X327480Y101929D02*
X331811D01*
X329646Y99764D02*
Y104095D01*
X337480Y101929D02*
X341811D01*
X339646Y99764D02*
Y104095D01*
X327480Y91929D02*
X331811D01*
X329646Y89764D02*
Y94095D01*
X337480Y91929D02*
X341811D01*
X339646Y89764D02*
Y94095D01*
X327480Y81929D02*
X331811D01*
X329646Y79764D02*
Y84095D01*
X337480Y81929D02*
X341811D01*
X339646Y79764D02*
Y84095D01*
X327480Y71929D02*
X331811D01*
X329646Y69764D02*
Y74094D01*
X337480Y71929D02*
X341811D01*
X339646Y69764D02*
Y74094D01*
X327480Y61929D02*
X331811D01*
X329646Y59764D02*
Y64095D01*
X337480Y61929D02*
X341811D01*
X339646Y59764D02*
Y64095D01*
X327480Y51929D02*
X331811D01*
X329646Y49764D02*
Y54094D01*
X337480Y51929D02*
X341811D01*
X339646Y49764D02*
Y54094D01*
X327480Y41929D02*
X331811D01*
X329646Y39764D02*
Y44094D01*
X337480Y41929D02*
X341811D01*
X339646Y39764D02*
Y44094D01*
X327480Y31929D02*
X331811D01*
X329646Y29764D02*
Y34095D01*
X337480Y31929D02*
X341811D01*
X339646Y29764D02*
Y34095D01*
X327480Y21929D02*
X331811D01*
X329646Y19764D02*
Y24094D01*
X337480Y21929D02*
X341811D01*
X339646Y19764D02*
Y24094D01*
X36279Y-58917D02*
X49075D01*
X42677Y-65315D02*
Y-52520D01*
X36279Y-13917D02*
X49075D01*
X42677Y-20315D02*
Y-7520D01*
X21535Y-66929D02*
X27835D01*
X24685Y-70079D02*
Y-63780D01*
X21535Y-5905D02*
X27835D01*
X24685Y-9055D02*
Y-2756D01*
X75905Y-53917D02*
X79449D01*
X77677Y-55689D02*
Y-52146D01*
X65905Y-48917D02*
X69449D01*
X67677Y-50689D02*
Y-47146D01*
X75905Y-43917D02*
X79449D01*
X77677Y-45689D02*
Y-42146D01*
X65905Y-38917D02*
X69449D01*
X67677Y-40689D02*
Y-37146D01*
X75905Y-33917D02*
X79449D01*
X77677Y-35689D02*
Y-32146D01*
X65905Y-28917D02*
X69449D01*
X67677Y-30689D02*
Y-27146D01*
X75905Y-23917D02*
X79449D01*
X77677Y-25689D02*
Y-22146D01*
X65905Y-18917D02*
X69449D01*
X67677Y-20689D02*
Y-17146D01*
X376850Y-111929D02*
X381181D01*
X379016Y-114094D02*
Y-109764D01*
X366850Y-111929D02*
X371181D01*
X369016Y-114094D02*
Y-109764D01*
X376850Y-101929D02*
X381181D01*
X379016Y-104095D02*
Y-99764D01*
X366850Y-101929D02*
X371181D01*
X369016Y-104095D02*
Y-99764D01*
X376850Y-91929D02*
X381181D01*
X379016Y-94095D02*
Y-89764D01*
X366850Y-91929D02*
X371181D01*
X369016Y-94095D02*
Y-89764D01*
X376850Y-81929D02*
X381181D01*
X379016Y-84095D02*
Y-79764D01*
X366850Y-81929D02*
X371181D01*
X369016Y-84095D02*
Y-79764D01*
X376850Y-71929D02*
X381181D01*
X379016Y-74094D02*
Y-69764D01*
X366850Y-71929D02*
X371181D01*
X369016Y-74094D02*
Y-69764D01*
X376850Y-61929D02*
X381181D01*
X379016Y-64095D02*
Y-59764D01*
X366850Y-61929D02*
X371181D01*
X369016Y-64095D02*
Y-59764D01*
X376850Y-51929D02*
X381181D01*
X379016Y-54094D02*
Y-49764D01*
X366850Y-51929D02*
X371181D01*
X369016Y-54094D02*
Y-49764D01*
X376850Y-41929D02*
X381181D01*
X379016Y-44094D02*
Y-39764D01*
X366850Y-41929D02*
X371181D01*
X369016Y-44094D02*
Y-39764D01*
X376850Y-31929D02*
X381181D01*
X379016Y-34095D02*
Y-29764D01*
X366850Y-31929D02*
X371181D01*
X369016Y-34095D02*
Y-29764D01*
X376850Y-21929D02*
X381181D01*
X379016Y-24094D02*
Y-19764D01*
X366850Y-21929D02*
X371181D01*
X369016Y-24094D02*
Y-19764D01*
X337480Y-111929D02*
X341811D01*
X339646Y-114094D02*
Y-109764D01*
X327480Y-111929D02*
X331811D01*
X329646Y-114094D02*
Y-109764D01*
X337480Y-101929D02*
X341811D01*
X339646Y-104095D02*
Y-99764D01*
X327480Y-101929D02*
X331811D01*
X329646Y-104095D02*
Y-99764D01*
X337480Y-91929D02*
X341811D01*
X339646Y-94095D02*
Y-89764D01*
X327480Y-91929D02*
X331811D01*
X329646Y-94095D02*
Y-89764D01*
X337480Y-81929D02*
X341811D01*
X339646Y-84095D02*
Y-79764D01*
X327480Y-81929D02*
X331811D01*
X329646Y-84095D02*
Y-79764D01*
X337480Y-71929D02*
X341811D01*
X339646Y-74094D02*
Y-69764D01*
X327480Y-71929D02*
X331811D01*
X329646Y-74094D02*
Y-69764D01*
X337480Y-61929D02*
X341811D01*
X339646Y-64095D02*
Y-59764D01*
X327480Y-61929D02*
X331811D01*
X329646Y-64095D02*
Y-59764D01*
X337480Y-51929D02*
X341811D01*
X339646Y-54094D02*
Y-49764D01*
X327480Y-51929D02*
X331811D01*
X329646Y-54094D02*
Y-49764D01*
X337480Y-41929D02*
X341811D01*
X339646Y-44094D02*
Y-39764D01*
X327480Y-41929D02*
X331811D01*
X329646Y-44094D02*
Y-39764D01*
X337480Y-31929D02*
X341811D01*
X339646Y-34095D02*
Y-29764D01*
X327480Y-31929D02*
X331811D01*
X329646Y-34095D02*
Y-29764D01*
X337480Y-21929D02*
X341811D01*
X339646Y-24094D02*
Y-19764D01*
X327480Y-21929D02*
X331811D01*
X329646Y-24094D02*
Y-19764D01*
X10827Y-157480D02*
X28543D01*
X19685Y-166339D02*
Y-148622D01*
X10827Y157480D02*
X28543D01*
X19685Y148622D02*
Y166339D01*
X365158Y157480D02*
X382874D01*
X374016Y148622D02*
Y166339D01*
X365158Y-157480D02*
X382874D01*
X374016Y-166339D02*
Y-148622D01*
X94488Y93504D02*
X96457D01*
X95472Y92520D02*
Y94488D01*
X109252Y-16732D02*
X111220D01*
X110236Y-17717D02*
Y-15748D01*
X70866Y128937D02*
X72835D01*
X71850Y127953D02*
Y129921D01*
X66929Y74803D02*
X68898D01*
X67913Y73819D02*
Y75787D01*
X100925Y37402D02*
X102894D01*
X101909Y36417D02*
Y38386D01*
X90098Y56122D02*
X92067D01*
X91083Y55138D02*
Y57106D01*
X109272Y-27185D02*
X111240D01*
X110256Y-28169D02*
Y-26201D01*
X61024Y44291D02*
X62992D01*
X62008Y43307D02*
Y45276D01*
X62992Y38917D02*
X64961D01*
X63976Y37933D02*
Y39902D01*
X95472Y18917D02*
X97441D01*
X96457Y17933D02*
Y19902D01*
X23622Y96457D02*
X25591D01*
X24606Y95472D02*
Y97441D01*
X123031Y-173228D02*
X125000D01*
X124016Y-174213D02*
Y-172244D01*
X108224Y-143701D02*
X110193D01*
X109209Y-144685D02*
Y-142716D01*
X62992Y7725D02*
X64961D01*
X63976Y6741D02*
Y8709D01*
X62992Y1969D02*
X64961D01*
X63976Y984D02*
Y2953D01*
X52165Y-17717D02*
X54134D01*
X53149Y-18701D02*
Y-16732D01*
X106299Y83661D02*
X108268D01*
X107283Y82677D02*
Y84646D01*
X113189Y88583D02*
X115157D01*
X114173Y87598D02*
Y89567D01*
X85630Y92520D02*
X87598D01*
X86614Y91535D02*
Y93504D01*
X112205Y111221D02*
X114173D01*
X113189Y110236D02*
Y112205D01*
Y59055D02*
X115157D01*
X114173Y58071D02*
Y60039D01*
X109252Y59055D02*
X111221D01*
X110236Y58071D02*
Y60039D01*
X109252Y88583D02*
X111221D01*
X110236Y87598D02*
Y89567D01*
X131890Y94803D02*
X133858D01*
X132874Y93819D02*
Y95787D01*
X131890Y107402D02*
X133858D01*
X132874Y106417D02*
Y108386D01*
X131890Y65276D02*
X133858D01*
X132874Y64291D02*
Y66260D01*
X131890Y88583D02*
X133858D01*
X132874Y87598D02*
Y89567D01*
X131890Y59055D02*
X133858D01*
X132874Y58071D02*
Y60039D01*
X80098Y56122D02*
X82067D01*
X81083Y55138D02*
Y57106D01*
X131890Y77874D02*
X133858D01*
X132874Y76890D02*
Y78858D01*
X139748Y60039D02*
X141748D01*
X140748Y59039D02*
Y61039D01*
X146310Y60039D02*
X148310D01*
X147310Y59039D02*
Y61039D01*
X152871Y60039D02*
X154871D01*
X153871Y59039D02*
Y61039D01*
X159433Y60039D02*
X161433D01*
X160433Y59039D02*
Y61039D01*
X159433Y65945D02*
X161433D01*
X160433Y64945D02*
Y66945D01*
X152871Y65945D02*
X154871D01*
X153871Y64945D02*
Y66945D01*
X146310Y65945D02*
X148310D01*
X147310Y64945D02*
Y66945D01*
X139748Y65945D02*
X141748D01*
X140748Y64945D02*
Y66945D01*
X159433Y71850D02*
X161433D01*
X160433Y70850D02*
Y72850D01*
X152871Y71850D02*
X154871D01*
X153871Y70850D02*
Y72850D01*
X146310Y71850D02*
X148310D01*
X147310Y70850D02*
Y72850D01*
X139748Y71850D02*
X141748D01*
X140748Y70850D02*
Y72850D01*
X159433Y77756D02*
X161433D01*
X160433Y76756D02*
Y78756D01*
X152871Y77756D02*
X154871D01*
X153871Y76756D02*
Y78756D01*
X146310Y77756D02*
X148310D01*
X147310Y76756D02*
Y78756D01*
X139748Y77756D02*
X141748D01*
X140748Y76756D02*
Y78756D01*
X146310Y-117126D02*
X148310D01*
X147310Y-118126D02*
Y-116126D01*
X152871Y-117126D02*
X154871D01*
X153871Y-118126D02*
Y-116126D01*
X159433Y-117126D02*
X161433D01*
X160433Y-118126D02*
Y-116126D01*
X159433Y-111221D02*
X161433D01*
X160433Y-112221D02*
Y-110221D01*
X152871Y-111221D02*
X154871D01*
X153871Y-112221D02*
Y-110221D01*
X146310Y-111221D02*
X148310D01*
X147310Y-112221D02*
Y-110221D01*
X159433Y-105315D02*
X161433D01*
X160433Y-106315D02*
Y-104315D01*
X152871Y-105315D02*
X154871D01*
X153871Y-106315D02*
Y-104315D01*
X146310Y-105315D02*
X148310D01*
X147310Y-106315D02*
Y-104315D01*
X139748Y-105315D02*
X141748D01*
X140748Y-106315D02*
Y-104315D01*
X159433Y-99409D02*
X161433D01*
X160433Y-100409D02*
Y-98409D01*
X152871Y-99409D02*
X154871D01*
X153871Y-100409D02*
Y-98409D01*
X146310Y-99409D02*
X148310D01*
X147310Y-100409D02*
Y-98409D01*
X139748Y-99409D02*
X141748D01*
X140748Y-100409D02*
Y-98409D01*
X139748Y-117126D02*
X141748D01*
X140748Y-118126D02*
Y-116126D01*
X139748Y-111221D02*
X141748D01*
X140748Y-112221D02*
Y-110221D01*
X139748Y89567D02*
X141748D01*
X140748Y88567D02*
Y90567D01*
X146310Y89567D02*
X148310D01*
X147310Y88567D02*
Y90567D01*
X152871Y89567D02*
X154871D01*
X153871Y88567D02*
Y90567D01*
X159433Y89567D02*
X161433D01*
X160433Y88567D02*
Y90567D01*
X159433Y95473D02*
X161433D01*
X160433Y94472D02*
Y96473D01*
X152871Y95473D02*
X154871D01*
X153871Y94472D02*
Y96473D01*
X146310Y95473D02*
X148310D01*
X147310Y94472D02*
Y96473D01*
X139748Y95473D02*
X141748D01*
X140748Y94472D02*
Y96473D01*
X159433Y101378D02*
X161433D01*
X160433Y100378D02*
Y102378D01*
X152871Y101378D02*
X154871D01*
X153871Y100378D02*
Y102378D01*
X146310Y101378D02*
X148310D01*
X147310Y100378D02*
Y102378D01*
X139748Y101378D02*
X141748D01*
X140748Y100378D02*
Y102378D01*
X159433Y107283D02*
X161433D01*
X160433Y106283D02*
Y108283D01*
X152871Y107283D02*
X154871D01*
X153871Y106283D02*
Y108283D01*
X146310Y107283D02*
X148310D01*
X147310Y106283D02*
Y108283D01*
X139748Y107283D02*
X141748D01*
X140748Y106283D02*
Y108283D01*
X146310Y-87598D02*
X148310D01*
X147310Y-88598D02*
Y-86598D01*
X152871Y-87598D02*
X154871D01*
X153871Y-88598D02*
Y-86598D01*
X159433Y-87598D02*
X161433D01*
X160433Y-88598D02*
Y-86598D01*
X159433Y-81693D02*
X161433D01*
X160433Y-82693D02*
Y-80693D01*
X152871Y-81693D02*
X154871D01*
X153871Y-82693D02*
Y-80693D01*
X146310Y-81693D02*
X148310D01*
X147310Y-82693D02*
Y-80693D01*
X139748Y-81693D02*
X141748D01*
X140748Y-82693D02*
Y-80693D01*
X159433Y-75787D02*
X161433D01*
X160433Y-76787D02*
Y-74787D01*
X152871Y-75787D02*
X154871D01*
X153871Y-76787D02*
Y-74787D01*
X146310Y-75787D02*
X148310D01*
X147310Y-76787D02*
Y-74787D01*
X139748Y-75787D02*
X141748D01*
X140748Y-76787D02*
Y-74787D01*
X159433Y-69882D02*
X161433D01*
X160433Y-70882D02*
Y-68882D01*
X152871Y-69882D02*
X154871D01*
X153871Y-70882D02*
Y-68882D01*
X146310Y-69882D02*
X148310D01*
X147310Y-70882D02*
Y-68882D01*
X139748Y-69882D02*
X141748D01*
X140748Y-70882D02*
Y-68882D01*
X139748Y-87598D02*
X141748D01*
X140748Y-88598D02*
Y-86598D01*
X73425Y-106693D02*
X75394D01*
X74410Y-107677D02*
Y-105709D01*
X73425Y-131299D02*
X75394D01*
X74410Y-132283D02*
Y-130315D01*
X11811Y145547D02*
X13780D01*
X12795Y144563D02*
Y146531D01*
X4921Y157480D02*
X6890D01*
X5906Y156496D02*
Y158465D01*
X6767Y150591D02*
X8736D01*
X7752Y149606D02*
Y151575D01*
X6767Y164370D02*
X8736D01*
X7752Y163386D02*
Y165354D01*
X18701Y171260D02*
X20669D01*
X19685Y170276D02*
Y172244D01*
X11811Y169414D02*
X13780D01*
X12795Y168430D02*
Y170398D01*
X25591Y169414D02*
X27559D01*
X26575Y168430D02*
Y170398D01*
X32480Y157480D02*
X34449D01*
X33465Y156496D02*
Y158465D01*
X30634Y164370D02*
X32603D01*
X31618Y163386D02*
Y165354D01*
X25591Y145547D02*
X27559D01*
X26575Y144563D02*
Y146531D01*
X18701Y143701D02*
X20669D01*
X19685Y142717D02*
Y144685D01*
X30634Y150591D02*
X32603D01*
X31618Y149606D02*
Y151575D01*
X11811Y-169414D02*
X13780D01*
X12795Y-170398D02*
Y-168430D01*
X4921Y-157480D02*
X6890D01*
X5906Y-158465D02*
Y-156496D01*
X6767Y-164370D02*
X8736D01*
X7752Y-165354D02*
Y-163386D01*
X6767Y-150591D02*
X8736D01*
X7752Y-151575D02*
Y-149606D01*
X18701Y-143701D02*
X20669D01*
X19685Y-144685D02*
Y-142717D01*
X11811Y-145547D02*
X13780D01*
X12795Y-146531D02*
Y-144563D01*
X25591Y-145547D02*
X27559D01*
X26575Y-146531D02*
Y-144563D01*
X32480Y-157480D02*
X34449D01*
X33465Y-158465D02*
Y-156496D01*
X30634Y-150591D02*
X32603D01*
X31618Y-151575D02*
Y-149606D01*
X25591Y-169414D02*
X27559D01*
X26575Y-170398D02*
Y-168430D01*
X18701Y-171260D02*
X20669D01*
X19685Y-172244D02*
Y-170276D01*
X30634Y-164370D02*
X32603D01*
X31618Y-165354D02*
Y-163386D01*
X366142Y-169414D02*
X368110D01*
X367126Y-170398D02*
Y-168430D01*
X359252Y-157480D02*
X361221D01*
X360236Y-158465D02*
Y-156496D01*
X361098Y-164370D02*
X363067D01*
X362082Y-165354D02*
Y-163386D01*
X361098Y-150591D02*
X363067D01*
X362082Y-151575D02*
Y-149606D01*
X373031Y-143701D02*
X375000D01*
X374016Y-144685D02*
Y-142717D01*
X366142Y-145547D02*
X368110D01*
X367126Y-146531D02*
Y-144563D01*
X379921Y-145547D02*
X381890D01*
X380906Y-146531D02*
Y-144563D01*
X386811Y-157480D02*
X388779D01*
X387795Y-158465D02*
Y-156496D01*
X384965Y-150591D02*
X386933D01*
X385949Y-151575D02*
Y-149606D01*
X379921Y-169414D02*
X381890D01*
X380906Y-170398D02*
Y-168430D01*
X373031Y-171260D02*
X375000D01*
X374016Y-172244D02*
Y-170276D01*
X384965Y-164370D02*
X386933D01*
X385949Y-165354D02*
Y-163386D01*
X366142Y145547D02*
X368110D01*
X367126Y144563D02*
Y146531D01*
X359252Y157480D02*
X361221D01*
X360236Y156496D02*
Y158465D01*
X361098Y150591D02*
X363067D01*
X362082Y149606D02*
Y151575D01*
X361098Y164370D02*
X363067D01*
X362082Y163386D02*
Y165354D01*
X373031Y171260D02*
X375000D01*
X374016Y170276D02*
Y172244D01*
X366142Y169414D02*
X368110D01*
X367126Y168430D02*
Y170398D01*
X379921Y169414D02*
X381890D01*
X380906Y168430D02*
Y170398D01*
X386811Y157480D02*
X388779D01*
X387795Y156496D02*
Y158465D01*
X384965Y164370D02*
X386933D01*
X385949Y163386D02*
Y165354D01*
X379921Y145547D02*
X381890D01*
X380906Y144563D02*
Y146531D01*
X373031Y143701D02*
X375000D01*
X374016Y142717D02*
Y144685D01*
X384965Y150591D02*
X386933D01*
X385949Y149606D02*
Y151575D01*
X375386Y-133858D02*
X377354D01*
X376370Y-134843D02*
Y-132874D01*
X131890Y-99291D02*
X133858D01*
X132874Y-100276D02*
Y-98307D01*
X109252Y-118110D02*
X111221D01*
X110236Y-119095D02*
Y-117126D01*
X113189Y-118110D02*
X115157D01*
X114173Y-119095D02*
Y-117126D01*
X113189Y-88583D02*
X115157D01*
X114173Y-89567D02*
Y-87598D01*
X109252Y-88583D02*
X111221D01*
X110236Y-89567D02*
Y-87598D01*
X131280Y-12185D02*
X133248D01*
X132264Y-13169D02*
Y-11201D01*
X131890Y-111890D02*
X133858D01*
X132874Y-112874D02*
Y-110906D01*
X131890Y-118110D02*
X133858D01*
X132874Y-119095D02*
Y-117126D01*
X131890Y-88583D02*
X133858D01*
X132874Y-89567D02*
Y-87598D01*
X131890Y-82362D02*
X133858D01*
X132874Y-83346D02*
Y-81378D01*
X131890Y-69764D02*
X133858D01*
X132874Y-70748D02*
Y-68779D01*
X131280Y-30886D02*
X133248D01*
X132264Y-31870D02*
Y-29902D01*
X109272Y-22185D02*
X111240D01*
X110256Y-23169D02*
Y-21201D01*
M02*
