G04 Layer_Color=65535*
%FSLAX25Y25*%
%MOIN*%
G70*
G01*
G75*
%ADD19C,0.01968*%
%ADD29C,0.00394*%
%ADD63C,0.01000*%
%ADD64C,0.00787*%
%ADD65C,0.00800*%
%ADD66C,0.00500*%
%ADD67R,0.10000X0.03090*%
%ADD68R,0.03090X0.10000*%
D19*
X91929Y-37402D02*
G03*
X91929Y-37402I-394J0D01*
G01*
X77165Y-107283D02*
G03*
X77165Y-107283I-394J0D01*
G01*
Y-74803D02*
G03*
X77165Y-74803I-394J0D01*
G01*
D29*
X-62402Y101260D02*
G03*
X-62402Y101260I-3150J0D01*
G01*
X-35039Y126063D02*
X453D01*
X-35039Y76555D02*
X295D01*
X-35039D02*
Y126063D01*
X-82087Y82165D02*
X-35039D01*
X-82087Y120453D02*
X-35039D01*
X-82087Y82165D02*
Y120453D01*
X-20374Y76555D02*
X-18406Y126063D01*
X-24114Y76752D02*
X-22165Y125772D01*
X-27756Y76653D02*
X-25787Y126161D01*
X-31398Y76555D02*
X-29429Y126063D01*
X-35039Y76358D02*
X-33071Y125866D01*
X-16929Y76752D02*
X-14961Y126260D01*
X-13386Y76555D02*
X-11417Y126063D01*
X-9744Y76555D02*
X-7776Y126063D01*
X-6153Y76555D02*
X-4184Y126063D01*
X-2708Y76457D02*
X-739Y125965D01*
X0Y-177165D02*
X393701D01*
X0D02*
Y177165D01*
X393701Y-177165D02*
Y177165D01*
X0D02*
X393701D01*
D63*
X110530Y100394D02*
G03*
X110530Y100394I-24900J0D01*
G01*
X138089Y151575D02*
G03*
X138089Y151575I-24900J0D01*
G01*
X167616Y9843D02*
G03*
X167616Y9843I-24900J0D01*
G01*
X133346Y-153012D02*
X135013D01*
X134179D01*
Y-148013D01*
X133346Y-148846D01*
X140844Y-148013D02*
X139178Y-148846D01*
X137512Y-150513D01*
Y-152179D01*
X138345Y-153012D01*
X140011D01*
X140844Y-152179D01*
Y-151346D01*
X140011Y-150513D01*
X137512D01*
X51846Y-163512D02*
X53513D01*
X52680D01*
Y-158513D01*
X51846Y-159346D01*
X366516Y117929D02*
Y116263D01*
Y117096D01*
X371514D01*
X370681Y117929D01*
X377016Y13097D02*
Y16429D01*
X380348Y13097D01*
X381181D01*
X382014Y13930D01*
Y15596D01*
X381181Y16429D01*
Y11431D02*
X382014Y10598D01*
Y8932D01*
X381181Y8099D01*
X377849D01*
X377016Y8932D01*
Y10598D01*
X377849Y11431D01*
X381181D01*
X327146Y117929D02*
Y116263D01*
Y117096D01*
X332144D01*
X331311Y117929D01*
X337646Y13097D02*
Y16429D01*
X340978Y13097D01*
X341811D01*
X342644Y13930D01*
Y15596D01*
X341811Y16429D01*
Y11431D02*
X342644Y10598D01*
Y8932D01*
X341811Y8099D01*
X338479D01*
X337646Y8932D01*
Y10598D01*
X338479Y11431D01*
X341811D01*
X381516Y-117929D02*
Y-116263D01*
Y-117096D01*
X376517D01*
X377350Y-117929D01*
X371016Y-13097D02*
Y-16429D01*
X367684Y-13097D01*
X366850D01*
X366017Y-13930D01*
Y-15596D01*
X366850Y-16429D01*
Y-11431D02*
X366017Y-10598D01*
Y-8932D01*
X366850Y-8099D01*
X370183D01*
X371016Y-8932D01*
Y-10598D01*
X370183Y-11431D01*
X366850D01*
X342146Y-117929D02*
Y-116263D01*
Y-117096D01*
X337147D01*
X337980Y-117929D01*
X331646Y-13097D02*
Y-16429D01*
X328313Y-13097D01*
X327480D01*
X326647Y-13930D01*
Y-15596D01*
X327480Y-16429D01*
Y-11431D02*
X326647Y-10598D01*
Y-8932D01*
X327480Y-8099D01*
X330813D01*
X331646Y-8932D01*
Y-10598D01*
X330813Y-11431D01*
X327480D01*
D64*
X316929Y88583D02*
G03*
X316929Y88583I-88583J0D01*
G01*
X301181D02*
G03*
X301181Y88583I-72835J0D01*
G01*
X271654D02*
G03*
X271654Y88583I-43307J0D01*
G01*
X316929Y-88583D02*
G03*
X316929Y-88583I-88583J0D01*
G01*
X301181D02*
G03*
X301181Y-88583I-72835J0D01*
G01*
X271654D02*
G03*
X271654Y-88583I-43307J0D01*
G01*
X84842Y139764D02*
Y173228D01*
X39173Y139764D02*
X84842D01*
X39173D02*
Y173228D01*
X84842D01*
X67850Y108268D02*
X71850D01*
X69882Y106299D02*
Y110299D01*
X105315Y133795D02*
Y137795D01*
X103284Y135827D02*
X107283D01*
X156496Y1969D02*
X160496D01*
X158465Y-63D02*
Y3937D01*
X1771Y-123346D02*
X33661D01*
X1771Y-83346D02*
X33661D01*
Y-123346D02*
Y-83346D01*
X1771Y-123346D02*
Y-83346D01*
X33661Y-93307D02*
X36417Y-96063D01*
X33661Y-93307D02*
X36417Y-90551D01*
Y-96063D02*
Y-90551D01*
X157Y67520D02*
X83622D01*
X157Y5315D02*
Y67520D01*
Y5315D02*
X83622D01*
Y67520D01*
X787Y72323D02*
Y130295D01*
Y72323D02*
X57776D01*
X787Y130295D02*
X57776D01*
X57776Y72323D02*
X57776Y130295D01*
X93307Y-59252D02*
Y-39173D01*
X113386Y-59252D02*
Y-39173D01*
X93307D02*
X96653D01*
X110039D02*
X113386D01*
X110039Y-59252D02*
X113386D01*
X93307D02*
X96653D01*
X78543Y-129134D02*
Y-109055D01*
X98622Y-129134D02*
Y-109055D01*
X78543D02*
X81890D01*
X95276D02*
X98622D01*
X95276Y-129134D02*
X98622D01*
X78543D02*
X81890D01*
X78543Y-96653D02*
Y-76575D01*
X98622Y-96653D02*
Y-76575D01*
X78543D02*
X81890D01*
X95276D02*
X98622D01*
X95276Y-96653D02*
X98622D01*
X78543D02*
X81890D01*
X124331Y54803D02*
X129646D01*
X124331Y-122362D02*
X129646D01*
X124331Y84331D02*
X129646D01*
X124331Y-92835D02*
X129646D01*
X57087Y-119095D02*
Y-113189D01*
X53150Y-119095D02*
X57087D01*
X0D02*
Y-83661D01*
Y-119095D02*
X31496D01*
X0Y-83661D02*
X57087D01*
Y-89567D02*
Y-83661D01*
X9843Y-119095D02*
Y-83661D01*
X157Y-5315D02*
X83622D01*
X157Y-67520D02*
Y-5315D01*
Y-67520D02*
X83622D01*
Y-5315D01*
D65*
X118110Y103347D02*
X123031D01*
X118110Y73819D02*
X123031D01*
X117126Y-103347D02*
X123031D01*
X117126Y-73819D02*
X123031D01*
X97821Y-2876D02*
X96154D01*
X96987D01*
Y-7041D01*
X96154Y-7874D01*
X95321D01*
X94488Y-7041D01*
X99487Y-3709D02*
X100320Y-2876D01*
X101986D01*
X102819Y-3709D01*
Y-4542D01*
X101986Y-5375D01*
X102819Y-6208D01*
Y-7041D01*
X101986Y-7874D01*
X100320D01*
X99487Y-7041D01*
Y-6208D01*
X100320Y-5375D01*
X99487Y-4542D01*
Y-3709D01*
X100320Y-5375D02*
X101986D01*
X149606Y-156496D02*
X151272D01*
X150439D01*
Y-151498D01*
X149606Y-152331D01*
X157104Y-156496D02*
X153772D01*
X157104Y-153164D01*
Y-152331D01*
X156271Y-151498D01*
X154605D01*
X153772Y-152331D01*
X158770Y-151498D02*
Y-154830D01*
X160436Y-156496D01*
X162102Y-154830D01*
Y-151498D01*
X28543Y137872D02*
Y133707D01*
X29376Y132874D01*
X31043D01*
X31876Y133707D01*
Y137872D01*
X33542Y137039D02*
X34375Y137872D01*
X36041D01*
X36874Y137039D01*
Y136206D01*
X36041Y135373D01*
X35208D01*
X36041D01*
X36874Y134540D01*
Y133707D01*
X36041Y132874D01*
X34375D01*
X33542Y133707D01*
X314286Y-142377D02*
X312620D01*
X313453D01*
Y-146543D01*
X312620Y-147376D01*
X311787D01*
X310953Y-146543D01*
X315952Y-147376D02*
X317618D01*
X316785D01*
Y-142377D01*
X315952Y-143210D01*
X320117D02*
X320950Y-142377D01*
X322616D01*
X323449Y-143210D01*
Y-144043D01*
X322616Y-144876D01*
X321783D01*
X322616D01*
X323449Y-145710D01*
Y-146543D01*
X322616Y-147376D01*
X320950D01*
X320117Y-146543D01*
X37781Y-128709D02*
X36948Y-127876D01*
X35282D01*
X34449Y-128709D01*
Y-132041D01*
X35282Y-132874D01*
X36948D01*
X37781Y-132041D01*
Y-130375D01*
X36115D01*
X39447Y-132874D02*
Y-127876D01*
X42779Y-132874D01*
Y-127876D01*
X44446D02*
Y-132874D01*
X46945D01*
X47778Y-132041D01*
Y-128709D01*
X46945Y-127876D01*
X44446D01*
X164750Y-173228D02*
X161417D01*
X164750Y-169896D01*
Y-169063D01*
X163917Y-168230D01*
X162250D01*
X161417Y-169063D01*
X168915Y-173228D02*
Y-168230D01*
X166416Y-170729D01*
X169748D01*
X171414Y-168230D02*
Y-171562D01*
X173080Y-173228D01*
X174746Y-171562D01*
Y-168230D01*
X104935Y73591D02*
X105769Y72758D01*
X107435D01*
X108268Y73591D01*
Y76923D01*
X107435Y77756D01*
X105769D01*
X104935Y76923D01*
X99937Y77756D02*
X103269D01*
X99937Y74424D01*
Y73591D01*
X100770Y72758D01*
X102436D01*
X103269Y73591D01*
X136206Y174441D02*
X135373Y175274D01*
X133707D01*
X132874Y174441D01*
Y171109D01*
X133707Y170276D01*
X135373D01*
X136206Y171109D01*
X137872Y174441D02*
X138706Y175274D01*
X140372D01*
X141205Y174441D01*
Y173608D01*
X140372Y172775D01*
X139539D01*
X140372D01*
X141205Y171942D01*
Y171109D01*
X140372Y170276D01*
X138706D01*
X137872Y171109D01*
X112584Y8102D02*
X111751Y8935D01*
X110085D01*
X109252Y8102D01*
Y4770D01*
X110085Y3937D01*
X111751D01*
X112584Y4770D01*
X114250Y3937D02*
X115917D01*
X115083D01*
Y8935D01*
X114250Y8102D01*
X111976Y87978D02*
X111143Y87145D01*
Y85479D01*
X111976Y84646D01*
X115309D01*
X116142Y85479D01*
Y87145D01*
X115309Y87978D01*
X116142Y92976D02*
Y89644D01*
X112810Y92976D01*
X111976D01*
X111143Y92143D01*
Y90477D01*
X111976Y89644D01*
X115309Y94642D02*
X116142Y95476D01*
Y97142D01*
X115309Y97975D01*
X111976D01*
X111143Y97142D01*
Y95476D01*
X111976Y94642D01*
X112810D01*
X113643Y95476D01*
Y97975D01*
X116975Y99641D02*
Y102973D01*
X116142Y107972D02*
Y104639D01*
X112810Y107972D01*
X111976D01*
X111143Y107138D01*
Y105472D01*
X111976Y104639D01*
X135827Y85630D02*
X130828D01*
Y88129D01*
X131661Y88962D01*
X133328D01*
X134161Y88129D01*
Y85630D01*
Y87296D02*
X135827Y88962D01*
X131661Y90628D02*
X130828Y91461D01*
Y93128D01*
X131661Y93961D01*
X132494D01*
X133328Y93128D01*
Y92294D01*
Y93128D01*
X134161Y93961D01*
X134994D01*
X135827Y93128D01*
Y91461D01*
X134994Y90628D01*
X131661Y95627D02*
X130828Y96460D01*
Y98126D01*
X131661Y98959D01*
X132494D01*
X133328Y98126D01*
Y97293D01*
Y98126D01*
X134161Y98959D01*
X134994D01*
X135827Y98126D01*
Y96460D01*
X134994Y95627D01*
X136660Y100625D02*
Y103957D01*
X135827Y108956D02*
Y105623D01*
X132494Y108956D01*
X131661D01*
X130828Y108123D01*
Y106456D01*
X131661Y105623D01*
X135827Y56102D02*
X130828D01*
Y58601D01*
X131661Y59435D01*
X133328D01*
X134161Y58601D01*
Y56102D01*
Y57768D02*
X135827Y59435D01*
X131661Y61101D02*
X130828Y61934D01*
Y63600D01*
X131661Y64433D01*
X132494D01*
X133328Y63600D01*
Y62767D01*
Y63600D01*
X134161Y64433D01*
X134994D01*
X135827Y63600D01*
Y61934D01*
X134994Y61101D01*
X130828Y66099D02*
Y69431D01*
X131661D01*
X134994Y66099D01*
X135827D01*
X136660Y71097D02*
Y74430D01*
X135827Y79428D02*
Y76096D01*
X132494Y79428D01*
X131661D01*
X130828Y78595D01*
Y76929D01*
X131661Y76096D01*
X130905Y43307D02*
X134238D01*
X135904Y41641D01*
X134238Y39975D01*
X130905D01*
X133405D01*
Y43307D01*
X130072Y38309D02*
Y34976D01*
X130905Y29978D02*
Y33310D01*
X134238Y29978D01*
X135071D01*
X135904Y30811D01*
Y32477D01*
X135071Y33310D01*
X126213Y39975D02*
X127046Y40808D01*
Y42474D01*
X126213Y43307D01*
X122880D01*
X122047Y42474D01*
Y40808D01*
X122880Y39975D01*
X124546D01*
Y41641D01*
X122047Y38309D02*
X127046D01*
X122047Y34976D01*
X127046D01*
Y33310D02*
X122047D01*
Y30811D01*
X122880Y29978D01*
X126213D01*
X127046Y30811D01*
Y33310D01*
X121214Y28312D02*
Y24980D01*
X122047Y19981D02*
Y23314D01*
X125380Y19981D01*
X126213D01*
X127046Y20814D01*
Y22480D01*
X126213Y23314D01*
X146731Y43307D02*
X141732D01*
Y40808D01*
X142565Y39975D01*
X143398D01*
X144231Y40808D01*
Y43307D01*
Y40808D01*
X145064Y39975D01*
X145898D01*
X146731Y40808D01*
Y43307D01*
X140899Y38309D02*
Y34976D01*
X141732Y29978D02*
Y33310D01*
X145064Y29978D01*
X145898D01*
X146731Y30811D01*
Y32477D01*
X145898Y33310D01*
X91180Y3557D02*
Y6890D01*
X88680D01*
Y5224D01*
Y6890D01*
X86181D01*
X91180Y1891D02*
X86181D01*
Y-608D01*
X87014Y-1441D01*
X87847D01*
X88680Y-608D01*
Y1891D01*
Y-608D01*
X89513Y-1441D01*
X90346D01*
X91180Y-608D01*
Y1891D01*
X86181Y-5606D02*
X91180D01*
X88680Y-3107D01*
Y-6439D01*
X103726Y30589D02*
X100394D01*
Y28090D01*
X102060D01*
X100394D01*
Y25591D01*
X105392Y30589D02*
Y25591D01*
X107891D01*
X108724Y26424D01*
Y27257D01*
X107891Y28090D01*
X105392D01*
X107891D01*
X108724Y28923D01*
Y29756D01*
X107891Y30589D01*
X105392D01*
X110390Y29756D02*
X111223Y30589D01*
X112890D01*
X113723Y29756D01*
Y28923D01*
X112890Y28090D01*
X112057D01*
X112890D01*
X113723Y27257D01*
Y26424D01*
X112890Y25591D01*
X111223D01*
X110390Y26424D01*
X103726Y41416D02*
X100394D01*
Y38917D01*
X102060D01*
X100394D01*
Y36417D01*
X105392Y41416D02*
Y36417D01*
X107891D01*
X108724Y37250D01*
Y38083D01*
X107891Y38917D01*
X105392D01*
X107891D01*
X108724Y39750D01*
Y40583D01*
X107891Y41416D01*
X105392D01*
X113723Y36417D02*
X110390D01*
X113723Y39750D01*
Y40583D01*
X112890Y41416D01*
X111223D01*
X110390Y40583D01*
X103726Y51258D02*
X100394D01*
Y48759D01*
X102060D01*
X100394D01*
Y46260D01*
X105392Y51258D02*
Y46260D01*
X107891D01*
X108724Y47093D01*
Y47926D01*
X107891Y48759D01*
X105392D01*
X107891D01*
X108724Y49592D01*
Y50425D01*
X107891Y51258D01*
X105392D01*
X110390Y46260D02*
X112057D01*
X111223D01*
Y51258D01*
X110390Y50425D01*
X40734Y-85553D02*
X39068D01*
X39901D01*
Y-89718D01*
X39068Y-90551D01*
X38235D01*
X37402Y-89718D01*
X42400Y-90551D02*
X44066D01*
X43233D01*
Y-85553D01*
X42400Y-86386D01*
X49898Y-90551D02*
X46565D01*
X49898Y-87219D01*
Y-86386D01*
X49064Y-85553D01*
X47398D01*
X46565Y-86386D01*
X66324Y76849D02*
X64658D01*
X65491D01*
Y72684D01*
X64658Y71850D01*
X63825D01*
X62992Y72684D01*
X71323Y71850D02*
X67990D01*
X71323Y75183D01*
Y76016D01*
X70490Y76849D01*
X68824D01*
X67990Y76016D01*
X6285Y69959D02*
X4619D01*
X5452D01*
Y65794D01*
X4619Y64961D01*
X3786D01*
X2953Y65794D01*
X11283Y69959D02*
X9617Y69126D01*
X7951Y67460D01*
Y65794D01*
X8784Y64961D01*
X10450D01*
X11283Y65794D01*
Y66627D01*
X10450Y67460D01*
X7951D01*
X110992Y-91156D02*
X110159Y-91989D01*
Y-93655D01*
X110992Y-94488D01*
X114324D01*
X115157Y-93655D01*
Y-91989D01*
X114324Y-91156D01*
X115157Y-86158D02*
Y-89490D01*
X111825Y-86158D01*
X110992D01*
X110159Y-86991D01*
Y-88657D01*
X110992Y-89490D01*
X114324Y-84491D02*
X115157Y-83658D01*
Y-81992D01*
X114324Y-81159D01*
X110992D01*
X110159Y-81992D01*
Y-83658D01*
X110992Y-84491D01*
X111825D01*
X112658Y-83658D01*
Y-81159D01*
X115990Y-79493D02*
Y-76161D01*
X115157Y-74495D02*
Y-72829D01*
Y-73662D01*
X110159D01*
X110992Y-74495D01*
X135827Y-91535D02*
X130828D01*
Y-89036D01*
X131661Y-88203D01*
X133328D01*
X134161Y-89036D01*
Y-91535D01*
Y-89869D02*
X135827Y-88203D01*
X131661Y-86537D02*
X130828Y-85704D01*
Y-84038D01*
X131661Y-83205D01*
X132494D01*
X133328Y-84038D01*
Y-84871D01*
Y-84038D01*
X134161Y-83205D01*
X134994D01*
X135827Y-84038D01*
Y-85704D01*
X134994Y-86537D01*
X131661Y-81539D02*
X130828Y-80706D01*
Y-79040D01*
X131661Y-78206D01*
X132494D01*
X133328Y-79040D01*
Y-79873D01*
Y-79040D01*
X134161Y-78206D01*
X134994D01*
X135827Y-79040D01*
Y-80706D01*
X134994Y-81539D01*
X136660Y-76540D02*
Y-73208D01*
X135827Y-71542D02*
Y-69876D01*
Y-70709D01*
X130828D01*
X131661Y-71542D01*
X135827Y-121063D02*
X130828D01*
Y-118564D01*
X131661Y-117731D01*
X133328D01*
X134161Y-118564D01*
Y-121063D01*
Y-119397D02*
X135827Y-117731D01*
X131661Y-116065D02*
X130828Y-115232D01*
Y-113565D01*
X131661Y-112732D01*
X132494D01*
X133328Y-113565D01*
Y-114399D01*
Y-113565D01*
X134161Y-112732D01*
X134994D01*
X135827Y-113565D01*
Y-115232D01*
X134994Y-116065D01*
X130828Y-111066D02*
Y-107734D01*
X131661D01*
X134994Y-111066D01*
X135827D01*
X136660Y-106068D02*
Y-102736D01*
X135827Y-101069D02*
Y-99403D01*
Y-100236D01*
X130828D01*
X131661Y-101069D01*
X136811Y-130828D02*
Y-135827D01*
X139310D01*
X140143Y-134994D01*
Y-134161D01*
X139310Y-133328D01*
X136811D01*
X139310D01*
X140143Y-132494D01*
Y-131661D01*
X139310Y-130828D01*
X136811D01*
X141809Y-136660D02*
X145142D01*
X146808Y-135827D02*
X148474D01*
X147641D01*
Y-130828D01*
X146808Y-131661D01*
X125000Y-135827D02*
Y-132494D01*
X126666Y-130828D01*
X128332Y-132494D01*
Y-135827D01*
Y-133328D01*
X125000D01*
X129998Y-136660D02*
X133331D01*
X134997Y-135827D02*
X136663D01*
X135830D01*
Y-130828D01*
X134997Y-131661D01*
X105694D02*
X104861Y-130828D01*
X103195D01*
X102362Y-131661D01*
Y-134994D01*
X103195Y-135827D01*
X104861D01*
X105694Y-134994D01*
Y-133328D01*
X104028D01*
X107361Y-135827D02*
Y-130828D01*
X110693Y-135827D01*
Y-130828D01*
X112359D02*
Y-135827D01*
X114858D01*
X115691Y-134994D01*
Y-131661D01*
X114858Y-130828D01*
X112359D01*
X117357Y-136660D02*
X120690D01*
X122356Y-135827D02*
X124022D01*
X123189D01*
Y-130828D01*
X122356Y-131661D01*
X97441Y-66852D02*
X100773D01*
X99107D01*
Y-71850D01*
X102439Y-66852D02*
X105772Y-71850D01*
Y-66852D02*
X102439Y-71850D01*
X107438Y-67685D02*
X108271Y-66852D01*
X109937D01*
X110770Y-67685D01*
Y-68518D01*
X109937Y-69351D01*
X109104D01*
X109937D01*
X110770Y-70184D01*
Y-71017D01*
X109937Y-71850D01*
X108271D01*
X107438Y-71017D01*
X63899Y-124016D02*
Y-120684D01*
Y-122350D01*
X68898D01*
X63899Y-119017D02*
X68898Y-115685D01*
X63899D02*
X68898Y-119017D01*
X63899Y-110687D02*
Y-114019D01*
X66399D01*
X65565Y-112353D01*
Y-111520D01*
X66399Y-110687D01*
X68065D01*
X68898Y-111520D01*
Y-113186D01*
X68065Y-114019D01*
X63899Y-92520D02*
Y-89187D01*
Y-90854D01*
X68898D01*
X63899Y-87521D02*
X68898Y-84189D01*
X63899D02*
X68898Y-87521D01*
Y-80024D02*
X63899D01*
X66399Y-82523D01*
Y-79191D01*
X30891Y-135750D02*
X29225D01*
X30058D01*
Y-139915D01*
X29225Y-140748D01*
X28392D01*
X27559Y-139915D01*
X32557D02*
X33391Y-140748D01*
X35057D01*
X35890Y-139915D01*
Y-136583D01*
X35057Y-135750D01*
X33391D01*
X32557Y-136583D01*
Y-137416D01*
X33391Y-138249D01*
X35890D01*
X285433Y9920D02*
X288765D01*
X287099D01*
Y4921D01*
X290431Y9920D02*
X293764Y4921D01*
Y9920D02*
X290431Y4921D01*
X298762D02*
X295430D01*
X298762Y8253D01*
Y9087D01*
X297929Y9920D01*
X296263D01*
X295430Y9087D01*
X285433Y-4844D02*
X288765D01*
X287099D01*
Y-9843D01*
X290431Y-4844D02*
X293764Y-9843D01*
Y-4844D02*
X290431Y-9843D01*
X295430D02*
X297096D01*
X296263D01*
Y-4844D01*
X295430Y-5677D01*
X137718Y56102D02*
X142717D01*
Y58602D01*
X141884Y59435D01*
X138551D01*
X137718Y58602D01*
Y56102D01*
X138551Y61101D02*
X137718Y61934D01*
Y63600D01*
X138551Y64433D01*
X139384D01*
X140217Y63600D01*
X141050Y64433D01*
X141884D01*
X142717Y63600D01*
Y61934D01*
X141884Y61101D01*
X141050D01*
X140217Y61934D01*
X139384Y61101D01*
X138551D01*
X140217Y61934D02*
Y63600D01*
X143550Y66099D02*
Y69431D01*
X142717Y74430D02*
Y71097D01*
X139384Y74430D01*
X138551D01*
X137718Y73597D01*
Y71931D01*
X138551Y71097D01*
X137718Y-121063D02*
X142717D01*
Y-118564D01*
X141884Y-117731D01*
X138551D01*
X137718Y-118564D01*
Y-121063D01*
X138551Y-116065D02*
X137718Y-115232D01*
Y-113565D01*
X138551Y-112732D01*
X139384D01*
X140217Y-113565D01*
X141050Y-112732D01*
X141884D01*
X142717Y-113565D01*
Y-115232D01*
X141884Y-116065D01*
X141050D01*
X140217Y-115232D01*
X139384Y-116065D01*
X138551D01*
X140217Y-115232D02*
Y-113565D01*
X143550Y-111066D02*
Y-107734D01*
X142717Y-106068D02*
Y-104402D01*
Y-105235D01*
X137718D01*
X138551Y-106068D01*
X137718Y85630D02*
X142717D01*
Y88129D01*
X141884Y88962D01*
X138551D01*
X137718Y88129D01*
Y85630D01*
Y90628D02*
Y93961D01*
X138551D01*
X141884Y90628D01*
X142717D01*
X143550Y95627D02*
Y98959D01*
X142717Y103957D02*
Y100625D01*
X139384Y103957D01*
X138551D01*
X137718Y103124D01*
Y101458D01*
X138551Y100625D01*
X137718Y-91535D02*
X142717D01*
Y-89036D01*
X141884Y-88203D01*
X138551D01*
X137718Y-89036D01*
Y-91535D01*
Y-86537D02*
Y-83205D01*
X138551D01*
X141884Y-86537D01*
X142717D01*
X143550Y-81539D02*
Y-78206D01*
X142717Y-76540D02*
Y-74874D01*
Y-75707D01*
X137718D01*
X138551Y-76540D01*
X111976Y59435D02*
X111143Y58601D01*
Y56935D01*
X111976Y56102D01*
X115309D01*
X116142Y56935D01*
Y58601D01*
X115309Y59435D01*
X111976Y61101D02*
X111143Y61934D01*
Y63600D01*
X111976Y64433D01*
X112810D01*
X113643Y63600D01*
Y62767D01*
Y63600D01*
X114476Y64433D01*
X115309D01*
X116142Y63600D01*
Y61934D01*
X115309Y61101D01*
X116142Y69431D02*
Y66099D01*
X112810Y69431D01*
X111976D01*
X111143Y68598D01*
Y66932D01*
X111976Y66099D01*
X116975Y71097D02*
Y74430D01*
X116142Y79428D02*
Y76096D01*
X112810Y79428D01*
X111976D01*
X111143Y78595D01*
Y76929D01*
X111976Y76096D01*
X110992Y-116746D02*
X110159Y-117579D01*
Y-119246D01*
X110992Y-120079D01*
X114324D01*
X115157Y-119246D01*
Y-117579D01*
X114324Y-116746D01*
X110992Y-115080D02*
X110159Y-114247D01*
Y-112581D01*
X110992Y-111748D01*
X111825D01*
X112658Y-112581D01*
Y-113414D01*
Y-112581D01*
X113491Y-111748D01*
X114324D01*
X115157Y-112581D01*
Y-114247D01*
X114324Y-115080D01*
X115157Y-106750D02*
Y-110082D01*
X111825Y-106750D01*
X110992D01*
X110159Y-107583D01*
Y-109249D01*
X110992Y-110082D01*
X115990Y-105084D02*
Y-101751D01*
X115157Y-100085D02*
Y-98419D01*
Y-99252D01*
X110159D01*
X110992Y-100085D01*
X140520Y114553D02*
X139687Y113720D01*
Y112054D01*
X140520Y111221D01*
X143852D01*
X144685Y112054D01*
Y113720D01*
X143852Y114553D01*
X144685Y119551D02*
Y116219D01*
X141353Y119551D01*
X140520D01*
X139687Y118718D01*
Y117052D01*
X140520Y116219D01*
Y121217D02*
X139687Y122050D01*
Y123716D01*
X140520Y124549D01*
X141353D01*
X142186Y123716D01*
X143019Y124549D01*
X143852D01*
X144685Y123716D01*
Y122050D01*
X143852Y121217D01*
X143019D01*
X142186Y122050D01*
X141353Y121217D01*
X140520D01*
X142186Y122050D02*
Y123716D01*
X145518Y126216D02*
Y129548D01*
X144685Y134546D02*
Y131214D01*
X141353Y134546D01*
X140520D01*
X139687Y133713D01*
Y132047D01*
X140520Y131214D01*
X129693Y-61628D02*
X128860Y-62461D01*
Y-64128D01*
X129693Y-64961D01*
X133025D01*
X133858Y-64128D01*
Y-62461D01*
X133025Y-61628D01*
X133858Y-56630D02*
Y-59962D01*
X130526Y-56630D01*
X129693D01*
X128860Y-57463D01*
Y-59129D01*
X129693Y-59962D01*
Y-54964D02*
X128860Y-54131D01*
Y-52465D01*
X129693Y-51632D01*
X130526D01*
X131359Y-52465D01*
X132192Y-51632D01*
X133025D01*
X133858Y-52465D01*
Y-54131D01*
X133025Y-54964D01*
X132192D01*
X131359Y-54131D01*
X130526Y-54964D01*
X129693D01*
X131359Y-54131D02*
Y-52465D01*
X134691Y-49966D02*
Y-46633D01*
X133858Y-44967D02*
Y-43301D01*
Y-44134D01*
X128860D01*
X129693Y-44967D01*
X41718Y-75710D02*
X40052D01*
X40885D01*
Y-79876D01*
X40052Y-80709D01*
X39219D01*
X38386Y-79876D01*
X43384Y-80709D02*
X45050D01*
X44217D01*
Y-75710D01*
X43384Y-76543D01*
X47550D02*
X48383Y-75710D01*
X50049D01*
X50882Y-76543D01*
Y-79876D01*
X50049Y-80709D01*
X48383D01*
X47550Y-79876D01*
Y-76543D01*
X294671Y172321D02*
X293005D01*
X293838D01*
Y168156D01*
X293005Y167323D01*
X292172D01*
X291339Y168156D01*
X296337Y167323D02*
X298003D01*
X297170D01*
Y172321D01*
X296337Y171488D01*
X300502Y167323D02*
X302168D01*
X301335D01*
Y172321D01*
X300502Y171488D01*
X385222Y139841D02*
X383556D01*
X384389D01*
Y135676D01*
X383556Y134843D01*
X382723D01*
X381890Y135676D01*
X386888Y139841D02*
X390220D01*
Y139008D01*
X386888Y135676D01*
Y134843D01*
X358647Y138857D02*
X356981D01*
X357814D01*
Y134691D01*
X356981Y133858D01*
X356148D01*
X355315Y134691D01*
X363646Y138857D02*
X360313D01*
Y136357D01*
X361980Y137190D01*
X362812D01*
X363646Y136357D01*
Y134691D01*
X362812Y133858D01*
X361146D01*
X360313Y134691D01*
X64356Y2046D02*
X62690D01*
X63523D01*
Y-2120D01*
X62690Y-2953D01*
X61857D01*
X61024Y-2120D01*
X68521Y-2953D02*
Y2046D01*
X66022Y-454D01*
X69354D01*
X384238Y-134765D02*
X382572D01*
X383405D01*
Y-138931D01*
X382572Y-139764D01*
X381739D01*
X380906Y-138931D01*
X385904Y-135599D02*
X386737Y-134765D01*
X388403D01*
X389236Y-135599D01*
Y-136432D01*
X388403Y-137265D01*
X387570D01*
X388403D01*
X389236Y-138098D01*
Y-138931D01*
X388403Y-139764D01*
X386737D01*
X385904Y-138931D01*
X347820Y-134765D02*
X346154D01*
X346987D01*
Y-138931D01*
X346154Y-139764D01*
X345321D01*
X344488Y-138931D01*
X349487Y-139764D02*
X351153D01*
X350320D01*
Y-134765D01*
X349487Y-135599D01*
D66*
X38268Y-172932D02*
Y-137106D01*
X38269Y-172932D02*
X148425D01*
X148425Y-137106D02*
X148426Y-172932D01*
X38268Y-137106D02*
X148425D01*
X38268Y-172932D02*
Y-137106D01*
Y-172932D02*
X148425D01*
Y-137106D01*
X38268D02*
X148425D01*
X304487Y174213D02*
X354960D01*
X304487Y137992D02*
Y174213D01*
Y137992D02*
X354960D01*
Y174213D01*
X392422Y1851D02*
Y132008D01*
X356595Y1851D02*
X392422D01*
X356595D02*
Y132008D01*
X392422D01*
Y1851D02*
Y132008D01*
X356595Y1851D02*
X392422D01*
X356595D02*
Y132008D01*
X392422D01*
X353052Y1851D02*
Y132008D01*
X317225Y1851D02*
X353052D01*
X317225D02*
Y132008D01*
X353052D01*
Y1851D02*
Y132008D01*
X317225Y1851D02*
X353052D01*
X317225D02*
Y132008D01*
X353052D01*
X355610Y-132008D02*
Y-1851D01*
X391436D01*
Y-132008D02*
Y-1851D01*
X355610Y-132008D02*
X391436D01*
X355610D02*
Y-1851D01*
X391436D01*
Y-132008D02*
Y-1851D01*
X355610Y-132008D02*
X391436D01*
X316240D02*
Y-1851D01*
X352066D01*
Y-132008D02*
Y-1851D01*
X316240Y-132008D02*
X352066D01*
X316240D02*
Y-1851D01*
X352066D01*
Y-132008D02*
Y-1851D01*
X316240Y-132008D02*
X352066D01*
D67*
X93347Y-171387D02*
D03*
D68*
X358140Y66929D02*
D03*
X318770Y66929D02*
D03*
X389891Y-66929D02*
D03*
X350521Y-66929D02*
D03*
M02*
