G04 Layer_Color=255*
%FSLAX25Y25*%
%MOIN*%
G70*
G01*
G75*
%ADD10R,0.05118X0.03937*%
%ADD11R,0.04921X0.03543*%
%ADD12R,0.03937X0.05118*%
%ADD16R,0.06102X0.11024*%
%ADD17R,0.11024X0.06102*%
%ADD29C,0.00394*%
%ADD30C,0.06890*%
%ADD31C,0.07000*%
%ADD32C,0.06299*%
%ADD33R,0.06299X0.06299*%
%ADD34C,0.07087*%
%ADD35C,0.15748*%
%ADD36C,0.07874*%
%ADD37C,0.12795*%
%ADD38C,0.09449*%
%ADD39C,0.05512*%
%ADD40R,0.05512X0.05512*%
%ADD41C,0.13780*%
%ADD42C,0.09842*%
G04:AMPARAMS|DCode=43|XSize=177.16mil|YSize=88.58mil|CornerRadius=22.15mil|HoleSize=0mil|Usage=FLASHONLY|Rotation=270.000|XOffset=0mil|YOffset=0mil|HoleType=Round|Shape=RoundedRectangle|*
%AMROUNDEDRECTD43*
21,1,0.17716,0.04429,0,0,270.0*
21,1,0.13287,0.08858,0,0,270.0*
1,1,0.04429,-0.02215,-0.06644*
1,1,0.04429,-0.02215,0.06644*
1,1,0.04429,0.02215,0.06644*
1,1,0.04429,0.02215,-0.06644*
%
%ADD43ROUNDEDRECTD43*%
G04:AMPARAMS|DCode=44|XSize=177.16mil|YSize=88.58mil|CornerRadius=22.15mil|HoleSize=0mil|Usage=FLASHONLY|Rotation=0.000|XOffset=0mil|YOffset=0mil|HoleType=Round|Shape=RoundedRectangle|*
%AMROUNDEDRECTD44*
21,1,0.17716,0.04429,0,0,0.0*
21,1,0.13287,0.08858,0,0,0.0*
1,1,0.04429,0.06644,-0.02215*
1,1,0.04429,-0.06644,-0.02215*
1,1,0.04429,-0.06644,0.02215*
1,1,0.04429,0.06644,0.02215*
%
%ADD44ROUNDEDRECTD44*%
G04:AMPARAMS|DCode=45|XSize=196.85mil|YSize=98.42mil|CornerRadius=24.61mil|HoleSize=0mil|Usage=FLASHONLY|Rotation=90.000|XOffset=0mil|YOffset=0mil|HoleType=Round|Shape=RoundedRectangle|*
%AMROUNDEDRECTD45*
21,1,0.19685,0.04921,0,0,90.0*
21,1,0.14764,0.09842,0,0,90.0*
1,1,0.04921,0.02461,0.07382*
1,1,0.04921,0.02461,-0.07382*
1,1,0.04921,-0.02461,-0.07382*
1,1,0.04921,-0.02461,0.07382*
%
%ADD45ROUNDEDRECTD45*%
%ADD46C,0.07480*%
%ADD47R,0.07480X0.07480*%
%ADD48R,0.06299X0.06299*%
%ADD49C,0.33465*%
%ADD52R,0.04331X0.06890*%
%ADD53R,0.02520X0.07480*%
%ADD54R,0.07480X0.02520*%
%ADD55R,0.03543X0.04921*%
%ADD56R,0.10827X0.05118*%
%ADD57R,0.13386X0.05315*%
%ADD58R,0.05315X0.13386*%
%ADD59R,0.11811X0.03150*%
%ADD60R,0.25590X0.23622*%
%ADD61R,0.05512X0.07677*%
%ADD62R,0.09055X0.09055*%
D10*
X30512Y16929D02*
D03*
Y24409D02*
D03*
X73819Y70079D02*
D03*
Y77559D02*
D03*
D11*
X84646Y10827D02*
D03*
Y18701D02*
D03*
Y32854D02*
D03*
Y24980D02*
D03*
D12*
X89764Y0D02*
D03*
X97244D02*
D03*
X136024Y42323D02*
D03*
X143504D02*
D03*
X124213Y-4921D02*
D03*
X131693D02*
D03*
X136024Y-135827D02*
D03*
X143504D02*
D03*
X121260Y42323D02*
D03*
X128740D02*
D03*
X121260Y-135827D02*
D03*
X128740D02*
D03*
D16*
X57579Y158465D02*
D03*
X46752D02*
D03*
X66437D02*
D03*
X77264D02*
D03*
D17*
X112205Y74311D02*
D03*
Y63484D02*
D03*
Y103839D02*
D03*
Y93012D02*
D03*
Y-73327D02*
D03*
Y-84153D02*
D03*
Y-102854D02*
D03*
Y-113681D02*
D03*
D29*
X0Y-177165D02*
X393701D01*
X0D02*
Y177165D01*
X393701Y-177165D02*
Y177165D01*
X0D02*
X393701D01*
D30*
X98425Y-24685D02*
D03*
Y-14685D02*
D03*
X324882Y-162402D02*
D03*
X314882D02*
D03*
D31*
X154528D02*
D03*
X54134Y-130905D02*
D03*
X167323Y-162402D02*
D03*
X131890Y50197D02*
D03*
X121063Y50197D02*
D03*
X142717Y50197D02*
D03*
X142717Y-127953D02*
D03*
X131890D02*
D03*
X121063D02*
D03*
D32*
X72008Y147638D02*
D03*
X62008D02*
D03*
X128347Y-150512D02*
D03*
Y-160512D02*
D03*
X118347Y-150512D02*
D03*
Y-160512D02*
D03*
X108346Y-150512D02*
D03*
Y-160512D02*
D03*
X98347Y-150512D02*
D03*
Y-160512D02*
D03*
X88346Y-150512D02*
D03*
Y-160512D02*
D03*
X78347Y-150512D02*
D03*
Y-160512D02*
D03*
X68347Y-150512D02*
D03*
Y-160512D02*
D03*
X58346Y-150512D02*
D03*
X379016Y111929D02*
D03*
X369016Y101929D02*
D03*
X379016D02*
D03*
X369016Y91929D02*
D03*
X379016D02*
D03*
X369016Y81929D02*
D03*
X379016D02*
D03*
X369016Y71929D02*
D03*
X379016D02*
D03*
X369016Y61929D02*
D03*
X379016D02*
D03*
X369016Y51929D02*
D03*
X379016D02*
D03*
X369016Y41929D02*
D03*
X379016D02*
D03*
X369016Y31929D02*
D03*
X379016D02*
D03*
X369016Y21929D02*
D03*
X379016D02*
D03*
X339646Y111929D02*
D03*
X329646Y101929D02*
D03*
X339646D02*
D03*
X329646Y91929D02*
D03*
X339646D02*
D03*
X329646Y81929D02*
D03*
X339646D02*
D03*
X329646Y71929D02*
D03*
X339646D02*
D03*
X329646Y61929D02*
D03*
X339646D02*
D03*
X329646Y51929D02*
D03*
X339646D02*
D03*
X329646Y41929D02*
D03*
X339646D02*
D03*
X329646Y31929D02*
D03*
X339646D02*
D03*
X329646Y21929D02*
D03*
X339646D02*
D03*
X369016Y-111929D02*
D03*
X379016Y-101929D02*
D03*
X369016D02*
D03*
X379016Y-91929D02*
D03*
X369016D02*
D03*
X379016Y-81929D02*
D03*
X369016D02*
D03*
X379016Y-71929D02*
D03*
X369016D02*
D03*
X379016Y-61929D02*
D03*
X369016D02*
D03*
X379016Y-51929D02*
D03*
X369016D02*
D03*
X379016Y-41929D02*
D03*
X369016D02*
D03*
X379016Y-31929D02*
D03*
X369016D02*
D03*
X379016Y-21929D02*
D03*
X369016D02*
D03*
X329646Y-111929D02*
D03*
X339646Y-101929D02*
D03*
X329646D02*
D03*
X339646Y-91929D02*
D03*
X329646D02*
D03*
X339646Y-81929D02*
D03*
X329646D02*
D03*
X339646Y-71929D02*
D03*
X329646D02*
D03*
X339646Y-61929D02*
D03*
X329646D02*
D03*
X339646Y-51929D02*
D03*
X329646D02*
D03*
X339646Y-41929D02*
D03*
X329646D02*
D03*
X339646Y-31929D02*
D03*
X329646D02*
D03*
X339646Y-21929D02*
D03*
X329646D02*
D03*
D33*
X52008Y147638D02*
D03*
X58346Y-160512D02*
D03*
D34*
X95472Y100394D02*
D03*
X75787D02*
D03*
X113189Y161417D02*
D03*
Y141732D02*
D03*
X132874Y9843D02*
D03*
X152559D02*
D03*
D35*
X294291Y-33465D02*
D03*
X253937Y-73819D02*
D03*
Y73819D02*
D03*
X294291Y33465D02*
D03*
X246063Y-111221D02*
D03*
X286417Y-151575D02*
D03*
Y151575D02*
D03*
X246063Y111221D02*
D03*
D36*
X17717Y-93347D02*
D03*
Y-113347D02*
D03*
X49528Y101378D02*
D03*
Y91378D02*
D03*
D37*
X42677Y13917D02*
D03*
Y58917D02*
D03*
Y-58917D02*
D03*
Y-13917D02*
D03*
D38*
X24685Y5905D02*
D03*
Y66929D02*
D03*
Y-66929D02*
D03*
Y-5905D02*
D03*
D39*
X77677Y18917D02*
D03*
X67677Y23917D02*
D03*
X77677Y28917D02*
D03*
X67677Y33917D02*
D03*
X77677Y38917D02*
D03*
X67677Y43917D02*
D03*
X77677Y48917D02*
D03*
Y-53917D02*
D03*
X67677Y-48917D02*
D03*
X77677Y-43917D02*
D03*
X67677Y-38917D02*
D03*
X77677Y-33917D02*
D03*
X67677Y-28917D02*
D03*
X77677Y-23917D02*
D03*
D40*
X67677Y53917D02*
D03*
Y-18917D02*
D03*
D41*
X29528Y81378D02*
D03*
Y121378D02*
D03*
D42*
X176082Y170176D02*
D03*
X185826Y160432D02*
D03*
X166339D02*
D03*
X176082Y150689D02*
D03*
X156595Y150689D02*
D03*
X166339Y140945D02*
D03*
X146851D02*
D03*
X156595Y131201D02*
D03*
X200787Y67913D02*
D03*
X214567D02*
D03*
X200787Y81693D02*
D03*
X214567D02*
D03*
X200787Y95472D02*
D03*
X214567D02*
D03*
X200787Y109252D02*
D03*
X214567D02*
D03*
X176082Y-6990D02*
D03*
X185826Y-16733D02*
D03*
X166339D02*
D03*
X176082Y-26477D02*
D03*
X156595Y-26477D02*
D03*
X166339Y-36220D02*
D03*
X146851D02*
D03*
X156595Y-45964D02*
D03*
X200787Y-109252D02*
D03*
X214567D02*
D03*
X200787Y-95472D02*
D03*
X214567D02*
D03*
X200787Y-81693D02*
D03*
X214567D02*
D03*
X200787Y-67913D02*
D03*
X214567D02*
D03*
D43*
X29528Y-101378D02*
D03*
D44*
X42323Y-120276D02*
D03*
D45*
X54134Y-101378D02*
D03*
D46*
X314724Y142717D02*
D03*
X329724D02*
D03*
D47*
X344724D02*
D03*
D48*
X369016Y111929D02*
D03*
X329646D02*
D03*
X379016Y-111929D02*
D03*
X339646D02*
D03*
D49*
X19685Y-157480D02*
D03*
Y157480D02*
D03*
X374016Y157480D02*
D03*
Y-157480D02*
D03*
D52*
X9843Y53150D02*
D03*
X21654D02*
D03*
X9843Y-130905D02*
D03*
X21654D02*
D03*
D53*
X106909Y8681D02*
D03*
X101909D02*
D03*
X96909D02*
D03*
X91909D02*
D03*
X106909Y30689D02*
D03*
X101909D02*
D03*
X96909D02*
D03*
X91909D02*
D03*
X96083Y62815D02*
D03*
X91083D02*
D03*
X86083D02*
D03*
X81083D02*
D03*
X96083Y84823D02*
D03*
X91083D02*
D03*
X86083D02*
D03*
X81083D02*
D03*
D54*
X31319Y31870D02*
D03*
Y36870D02*
D03*
Y41870D02*
D03*
Y46870D02*
D03*
X53327Y31870D02*
D03*
Y36870D02*
D03*
Y41870D02*
D03*
Y46870D02*
D03*
X116949Y-27185D02*
D03*
Y-22185D02*
D03*
Y-17185D02*
D03*
Y-12185D02*
D03*
X138957Y-27185D02*
D03*
Y-22185D02*
D03*
Y-17185D02*
D03*
Y-12185D02*
D03*
D55*
X92520Y38917D02*
D03*
X84646D02*
D03*
X92520Y48917D02*
D03*
X84646D02*
D03*
D56*
X135827Y136811D02*
D03*
Y125000D02*
D03*
Y-40354D02*
D03*
Y-52165D02*
D03*
D57*
X62008Y88681D02*
D03*
Y112106D02*
D03*
D58*
X16831Y96457D02*
D03*
X40256D02*
D03*
X65847Y124016D02*
D03*
X42421D02*
D03*
D59*
X125984Y59921D02*
D03*
Y64410D02*
D03*
Y73386D02*
D03*
Y77874D02*
D03*
Y-117244D02*
D03*
Y-112756D02*
D03*
Y-103779D02*
D03*
Y-99291D02*
D03*
Y89449D02*
D03*
Y93937D02*
D03*
Y102913D02*
D03*
Y107402D02*
D03*
Y-87717D02*
D03*
Y-83228D02*
D03*
Y-74252D02*
D03*
Y-69764D02*
D03*
D60*
X150591Y68898D02*
D03*
Y-108268D02*
D03*
Y98425D02*
D03*
Y-78740D02*
D03*
D61*
X152362Y116142D02*
D03*
X140945D02*
D03*
X152362Y-61024D02*
D03*
X140945D02*
D03*
D62*
X57087Y-26575D02*
D03*
Y-44291D02*
D03*
X67677Y-59055D02*
D03*
Y-76772D02*
D03*
M02*
