M48
;Layer_Color=9474304
;FILE_FORMAT=2:5
INCH,TZ
;TYPE=PLATED
T2F00S00C0.01968
T3F00S00C0.02000
T4F00S00C0.02756
T5F00S00C0.03500
T6F00S00C0.03543
T7F00S00C0.03937
T9F00S00C0.04000
T10F00S00C0.04331
T11F00S00C0.04724
T12F00S00C0.05512
T13F00S00C0.05906
T14F00S00C0.06299
T15F00S00C0.08268
T16F00S00C0.15748
T17F00S00C0.17717
;TYPE=NON_PLATED
T1F00S00C0.12795
%
T02
X12795Y-169414
X19685Y-171260
X26575Y-169414
X31618Y-164370
X33465Y-157480
X31618Y-150591
X26575Y-145547
X19685Y-143701
X12795Y-145547
X7752Y-150591
X5906Y-157480
X7752Y-164370
X109209Y-143701
X124016Y-173228
X362082Y-164370
X360236Y-157480
X362082Y-150591
X367126Y-145547
X374016Y-143701
X380906Y-145547
X385949Y-150591
X387795Y-157480
X385949Y-164370
X380906Y-169414
X374016Y-171260
X367126Y-169414
X376370Y-133858
X132874Y-118110
Y-111890
Y-99291
Y-88583
Y-82362
Y-69764
X114173Y-88583
X110236
Y-118110
X114173
X74410Y-106693
Y-131299
X53149Y-17717
X63976Y1969
Y7725
X110236Y-16732
X110256Y-22185
Y-27185
X132264Y-30886
Y-12185
X24606Y96457
X26575Y145547
X19685Y143701
X12795Y145547
X7752Y150591
X5906Y157480
X7752Y164370
X12795Y169414
X19685Y171260
X26575Y169414
X31618Y164370
X33465Y157480
X31618Y150591
X71850Y128937
X86614Y92520
X95472Y93504
X110236Y88583
X114173
X107283Y83661
X110236Y59055
X114173
X132874Y59055
Y65276
Y77874
Y88583
Y94803
Y107402
X113189Y111221
X91083Y56122
X81083
X62008Y44291
X63976Y38917
X101909Y37402
X96457Y18917
X67913Y74803
X362082Y150591
X360236Y157480
X362082Y164370
X367126Y169414
X374016Y171260
X380906Y169414
X385949Y164370
X387795Y157480
X385949Y150591
X380906Y145547
X374016Y143701
X367126Y145547
T03
X140748Y-117126
Y-111221
Y-105315
Y-99409
X147310
Y-105315
Y-111221
Y-117126
X153871
Y-111221
Y-105315
Y-99409
X160433
Y-105315
Y-111221
Y-117126
Y-87598
Y-81693
Y-75787
Y-69882
X153871
Y-75787
Y-81693
Y-87598
X147310
Y-81693
Y-75787
Y-69882
X140748
Y-75787
Y-81693
Y-87598
Y60039
Y65945
Y71850
Y77756
X147310
Y71850
Y65945
Y60039
X153871
Y65945
Y71850
Y77756
X160433
Y71850
Y65945
Y60039
Y89567
Y95473
Y101378
Y107283
X153871
Y101378
Y95473
Y89567
X147310
Y95473
Y101378
Y107283
X140748
Y101378
Y95473
Y89567
T04
X132874Y9843
X152559
X95472Y100394
X75787
X113189Y141732
Y161417
T05
X314882Y-162402
X324882
X98425Y-24685
Y-14685
T06
X67677Y-48917
Y-38917
Y-28917
Y-18917
X77677Y-23917
Y-33917
Y-43917
Y-53917
Y18917
Y28917
Y38917
Y48917
X67677Y43917
Y33917
Y23917
Y53917
T07
X214567Y-109252
Y-95472
Y-81693
Y-67913
X185826Y-16733
X176082Y-26477
X166339Y-36220
X156595Y-45964
X49528Y91378
Y101378
X52008Y147638
X62008
X72008
X166339Y140945
X176082Y150689
X185826Y160432
X156595Y131201
X214567Y109252
Y95472
Y81693
Y67913
T09
X154528Y-162402
X167323
X142717Y-127953
X131890
X121063
X54134Y-130905
X121063Y50197
X131890Y50197
X142717Y50197
T10
X58346Y-160512
X68347
X78347
X88346
X98347
X108346
Y-150512
X98347
X88346
X78347
X68347
X58346
X118347
X128347
Y-160512
X118347
X369016Y-111929
X379016
Y-101929
X369016
Y-91929
X379016
Y-81929
X369016
Y-71929
X379016
Y-61929
X369016
Y-51929
X379016
Y-41929
X369016
Y-31929
X379016
Y-21929
X369016
X339646
Y-31929
Y-41929
Y-51929
Y-61929
Y-71929
Y-81929
Y-91929
Y-101929
Y-111929
X329646
Y-101929
Y-91929
Y-81929
Y-71929
Y-61929
Y-51929
Y-41929
Y-31929
Y-21929
Y21929
Y31929
Y41929
Y51929
Y61929
Y71929
Y81929
Y91929
Y101929
Y111929
X339646
Y101929
Y91929
Y81929
Y71929
Y61929
Y51929
Y41929
Y31929
Y21929
X369016
Y31929
Y41929
Y51929
Y61929
Y71929
Y81929
Y91929
Y101929
Y111929
X379016
Y101929
Y91929
Y81929
Y71929
Y61929
Y51929
Y41929
Y31929
Y21929
T11
X17717Y-113347
Y-93347
T12
X314724Y142717
X329724
X344724
T13
X200787Y-109252
Y-95472
Y-81693
Y-67913
X176082Y-6990
X166339Y-16733
X156595Y-26477
X146851Y-36220
X200787Y67913
Y81693
Y95472
Y109252
X176082Y170176
X166339Y160432
X156595Y150689
X146851Y140945
T14
X24685Y-66929
Y-5905
Y5905
Y66929
T15
X29528Y81378
Y121378
T16
X286417Y-151575
X246063Y-111221
X253937Y-73819
X294291Y-33465
Y33465
X253937Y73819
X246063Y111221
X286417Y151575
T17
X19685Y-157480
X374016Y-157480
X19685Y157480
X374016Y157480
T01
X42677Y-58917
Y-13917
Y13917
Y58917
M30
