G04 Layer_Color=128*
%FSLAX25Y25*%
%MOIN*%
G70*
G01*
G75*
%ADD10R,0.05118X0.03937*%
%ADD11R,0.04921X0.03543*%
%ADD12R,0.03937X0.05118*%
%ADD16R,0.06102X0.11024*%
%ADD17R,0.11024X0.06102*%
%ADD29C,0.00394*%
%ADD52R,0.04331X0.06890*%
%ADD53R,0.02520X0.07480*%
%ADD54R,0.07480X0.02520*%
%ADD55R,0.03543X0.04921*%
%ADD56R,0.10827X0.05118*%
%ADD57R,0.13386X0.05315*%
%ADD58R,0.05315X0.13386*%
%ADD59R,0.11811X0.03150*%
%ADD60R,0.25590X0.23622*%
%ADD61R,0.05512X0.07677*%
%ADD62R,0.09055X0.09055*%
D10*
X30512Y16929D02*
D03*
Y24409D02*
D03*
X73819Y70079D02*
D03*
Y77559D02*
D03*
D11*
X84646Y10827D02*
D03*
Y18701D02*
D03*
Y32854D02*
D03*
Y24980D02*
D03*
D12*
X89764Y0D02*
D03*
X97244D02*
D03*
X136024Y42323D02*
D03*
X143504D02*
D03*
X124213Y-4921D02*
D03*
X131693D02*
D03*
X136024Y-135827D02*
D03*
X143504D02*
D03*
X121260Y42323D02*
D03*
X128740D02*
D03*
X121260Y-135827D02*
D03*
X128740D02*
D03*
D16*
X57579Y158465D02*
D03*
X46752D02*
D03*
X66437D02*
D03*
X77264D02*
D03*
D17*
X112205Y74311D02*
D03*
Y63484D02*
D03*
Y103839D02*
D03*
Y93012D02*
D03*
Y-73327D02*
D03*
Y-84153D02*
D03*
Y-102854D02*
D03*
Y-113681D02*
D03*
D29*
X0Y-177165D02*
X393701D01*
X0D02*
Y177165D01*
X393701Y-177165D02*
Y177165D01*
X0D02*
X393701D01*
D52*
X9843Y53150D02*
D03*
X21654D02*
D03*
X9843Y-130905D02*
D03*
X21654D02*
D03*
D53*
X106909Y8681D02*
D03*
X101909D02*
D03*
X96909D02*
D03*
X91909D02*
D03*
X106909Y30689D02*
D03*
X101909D02*
D03*
X96909D02*
D03*
X91909D02*
D03*
X96083Y62815D02*
D03*
X91083D02*
D03*
X86083D02*
D03*
X81083D02*
D03*
X96083Y84823D02*
D03*
X91083D02*
D03*
X86083D02*
D03*
X81083D02*
D03*
D54*
X31319Y31870D02*
D03*
Y36870D02*
D03*
Y41870D02*
D03*
Y46870D02*
D03*
X53327Y31870D02*
D03*
Y36870D02*
D03*
Y41870D02*
D03*
Y46870D02*
D03*
X116949Y-27185D02*
D03*
Y-22185D02*
D03*
Y-17185D02*
D03*
Y-12185D02*
D03*
X138957Y-27185D02*
D03*
Y-22185D02*
D03*
Y-17185D02*
D03*
Y-12185D02*
D03*
D55*
X92520Y38917D02*
D03*
X84646D02*
D03*
X92520Y48917D02*
D03*
X84646D02*
D03*
D56*
X135827Y136811D02*
D03*
Y125000D02*
D03*
Y-40354D02*
D03*
Y-52165D02*
D03*
D57*
X62008Y88681D02*
D03*
Y112106D02*
D03*
D58*
X16831Y96457D02*
D03*
X40256D02*
D03*
X65847Y124016D02*
D03*
X42421D02*
D03*
D59*
X125984Y59921D02*
D03*
Y64410D02*
D03*
Y73386D02*
D03*
Y77874D02*
D03*
Y-117244D02*
D03*
Y-112756D02*
D03*
Y-103779D02*
D03*
Y-99291D02*
D03*
Y89449D02*
D03*
Y93937D02*
D03*
Y102913D02*
D03*
Y107402D02*
D03*
Y-87717D02*
D03*
Y-83228D02*
D03*
Y-74252D02*
D03*
Y-69764D02*
D03*
D60*
X150591Y68898D02*
D03*
Y-108268D02*
D03*
Y98425D02*
D03*
Y-78740D02*
D03*
D61*
X152362Y116142D02*
D03*
X140945D02*
D03*
X152362Y-61024D02*
D03*
X140945D02*
D03*
D62*
X57087Y-26575D02*
D03*
Y-44291D02*
D03*
X67677Y-59055D02*
D03*
Y-76772D02*
D03*
M02*
