G04 Layer_Color=32768*
%FSLAX25Y25*%
%MOIN*%
G70*
G01*
G75*
%ADD29C,0.00394*%
%ADD64C,0.00787*%
%ADD110C,0.00197*%
D29*
X52165Y156496D02*
Y160433D01*
X50197Y158465D02*
X54134D01*
X42717Y164961D02*
X61614D01*
X42717Y151969D02*
X61614D01*
Y164961D01*
X42717Y151969D02*
Y164961D01*
X71850Y156496D02*
Y160433D01*
X69882Y158465D02*
X73819D01*
X62402Y151969D02*
X81299D01*
X62402Y164961D02*
X81299D01*
X62402Y151969D02*
Y164961D01*
X81299Y151969D02*
Y164961D01*
X15748Y51181D02*
Y55118D01*
X13780Y53150D02*
X17717D01*
X6693Y48720D02*
X24803D01*
X6693Y57579D02*
X24803D01*
X6693Y48720D02*
Y57579D01*
X24803Y48720D02*
Y57579D01*
X15748Y-132874D02*
Y-128937D01*
X13780Y-130905D02*
X17717D01*
X6693Y-135335D02*
X24803D01*
X6693Y-126476D02*
X24803D01*
X6693Y-135335D02*
Y-126476D01*
X24803Y-135335D02*
Y-126476D01*
X62008Y145669D02*
Y149606D01*
X60039Y147638D02*
X63976D01*
X110236Y68898D02*
X114173D01*
X112205Y66929D02*
Y70866D01*
X105709Y59449D02*
Y78347D01*
X118701Y59449D02*
Y78347D01*
X105709D02*
X118701D01*
X105709Y59449D02*
X118701D01*
X110236Y98425D02*
X114173D01*
X112205Y96457D02*
Y100394D01*
X105709Y88976D02*
Y107874D01*
X118701Y88976D02*
Y107874D01*
X105709D02*
X118701D01*
X105709Y88976D02*
X118701D01*
X133858Y130905D02*
X137795D01*
X135827Y128937D02*
Y132874D01*
X129429Y121457D02*
Y140354D01*
X142224Y121457D02*
Y140354D01*
X129429D02*
X142224D01*
X129429Y121457D02*
X142224D01*
X133858Y-46260D02*
X137795D01*
X135827Y-48228D02*
Y-44291D01*
X129429Y-55709D02*
Y-36811D01*
X142224Y-55709D02*
Y-36811D01*
X129429D02*
X142224D01*
X129429Y-55709D02*
X142224D01*
X62008Y98425D02*
Y102362D01*
X60039Y100394D02*
X63976D01*
X26575Y96457D02*
X30512D01*
X28543Y94488D02*
Y98425D01*
X110236Y-78740D02*
X114173D01*
X112205Y-80709D02*
Y-76772D01*
X105709Y-88189D02*
Y-69291D01*
X118701Y-88189D02*
Y-69291D01*
X105709D02*
X118701D01*
X105709Y-88189D02*
X118701D01*
X110236Y-108268D02*
X114173D01*
X112205Y-110236D02*
Y-106299D01*
X105709Y-117717D02*
Y-98819D01*
X118701Y-117717D02*
Y-98819D01*
X105709D02*
X118701D01*
X105709Y-117717D02*
X118701D01*
X-82087Y72478D02*
X57776Y72380D01*
X-82087Y72478D02*
Y130295D01*
X57776Y130295D01*
X57776Y72380D02*
X57776Y130295D01*
X197D02*
X295Y72520D01*
X-35236Y76555D02*
X-35138Y126161D01*
X-35335Y130295D02*
X-35138Y126161D01*
X-35236Y72445D02*
Y76555D01*
X118764Y54528D02*
Y83268D01*
X164665Y54528D02*
Y83268D01*
X118764Y54528D02*
X164665D01*
X118764Y83268D02*
X164665D01*
X137795Y68898D02*
X141732D01*
X137795Y66929D02*
Y70866D01*
X118764Y-122638D02*
Y-93898D01*
X164665Y-122638D02*
Y-93898D01*
X118764Y-122638D02*
X164665D01*
X118764Y-93898D02*
X164665D01*
X137795Y-108268D02*
X141732D01*
X137795Y-110236D02*
Y-106299D01*
X118764Y84055D02*
Y112795D01*
X164665Y84055D02*
Y112795D01*
X118764Y84055D02*
X164665D01*
X118764Y112795D02*
X164665D01*
X137795Y98425D02*
X141732D01*
X137795Y96457D02*
Y100394D01*
X118764Y-93110D02*
Y-64370D01*
X164665Y-93110D02*
Y-64370D01*
X118764Y-93110D02*
X164665D01*
X118764Y-64370D02*
X164665D01*
X137795Y-78740D02*
X141732D01*
X137795Y-80709D02*
Y-76772D01*
X156102Y111319D02*
Y120965D01*
X137205Y111319D02*
Y120965D01*
X156102D01*
X137205Y111319D02*
X156102D01*
X144685Y116142D02*
X148622D01*
X146653Y114173D02*
Y118110D01*
X156102Y-65847D02*
Y-56201D01*
X137205Y-65847D02*
Y-56201D01*
X156102D01*
X137205Y-65847D02*
X156102D01*
X144685Y-61024D02*
X148622D01*
X146653Y-62992D02*
Y-59055D01*
X52165Y124016D02*
X56102D01*
X54134Y122047D02*
Y125984D01*
X103347Y-50000D02*
Y-48425D01*
X102559Y-49213D02*
X104134D01*
X88583Y-119882D02*
Y-118307D01*
X87795Y-119095D02*
X89370D01*
X88583Y-87402D02*
Y-85827D01*
X87795Y-86614D02*
X89370D01*
X123327Y55413D02*
X130610D01*
X123327Y68602D02*
X130610D01*
X123327Y55413D02*
Y68602D01*
X130610Y55413D02*
Y68602D01*
X126969Y60039D02*
Y63976D01*
X125000Y62008D02*
X128937D01*
X123327Y-121752D02*
X130610D01*
X123327Y-108563D02*
X130610D01*
X123327Y-121752D02*
Y-108563D01*
X130610Y-121752D02*
Y-108563D01*
X126969Y-117126D02*
Y-113189D01*
X125000Y-115157D02*
X128937D01*
X123327Y84941D02*
X130610D01*
X123327Y98130D02*
X130610D01*
X123327Y84941D02*
Y98130D01*
X130610Y84941D02*
Y98130D01*
X126969Y89567D02*
Y93504D01*
X125000Y91535D02*
X128937D01*
X123327Y-92224D02*
X130610D01*
X123327Y-79035D02*
X130610D01*
X123327Y-92224D02*
Y-79035D01*
X130610Y-92224D02*
Y-79035D01*
X126969Y-87598D02*
Y-83661D01*
X125000Y-85630D02*
X128937D01*
X129921Y118110D02*
Y122047D01*
X127953Y120079D02*
X131890D01*
X120472Y126575D02*
X139370D01*
X120472Y113583D02*
X139370D01*
X120472D02*
Y126575D01*
X139370Y113583D02*
Y126575D01*
X139764Y-56102D02*
X143701D01*
X141732Y-58071D02*
Y-54134D01*
X148228Y-65551D02*
Y-46654D01*
X135236Y-65551D02*
Y-46654D01*
X148228D01*
X135236Y-65551D02*
X148228D01*
X0Y-177165D02*
X393701D01*
X0D02*
Y177165D01*
X393701Y-177165D02*
Y177165D01*
X0D02*
X393701D01*
D64*
X29528Y98878D02*
Y103878D01*
X27028Y101378D02*
X32028D01*
D110*
X54331Y85039D02*
X69685D01*
X54331Y115748D02*
X69685D01*
Y85039D02*
Y115748D01*
X54331Y85039D02*
Y115748D01*
X13189Y88779D02*
Y104134D01*
X43898Y88779D02*
Y104134D01*
X13189Y88779D02*
X43898D01*
X13189Y104134D02*
X43898D01*
X69488Y116339D02*
Y131693D01*
X38780Y116339D02*
Y131693D01*
X69488D01*
X38780Y116339D02*
X69488D01*
M02*
